<?xml version="1.0" encoding="utf-8"?>
<!-- Generator: Adobe Illustrator 27.9.0, SVG Export Plug-In . SVG Version: 6.00 Build 0)  -->
<svg version="1.1" id="레이어_1" xmlns="http://www.w3.org/2000/svg" xmlns:xlink="http://www.w3.org/1999/xlink" x="0px"
	 y="0px" viewBox="0 0 595.28 139.67" style="enable-background:new 0 0 595.28 139.67;" xml:space="preserve">
<style type="text/css">
	.st0{fill:#F4F4F1;}
</style>
<g>
	<g>
		<path class="st0" d="M87.36,106.98H73.74L58.92,82.17c-2.96-4.96-5.67-8.34-8.13-10.12c-2.46-1.79-5.4-2.68-8.83-2.68h-8.31v37.61
			H22.11V17.62h27.23c8.69,0,15.5,2.1,20.42,6.29c4.92,4.19,7.38,10.06,7.38,17.6c0,12.39-6.62,20.42-19.85,24.11v0.29
			c2.46,1.04,4.59,2.52,6.37,4.44c1.79,1.93,4.11,5.21,6.95,9.86L87.36,106.98z M33.65,27.71v31.56h13.61
			c5.27,0,9.55-1.54,12.84-4.62c3.29-3.08,4.93-7.11,4.93-12.11c0-4.65-1.5-8.29-4.5-10.9c-3-2.61-7.37-3.92-13.1-3.92H33.65z"/>
		<path class="st0" d="M94.05,20.67c0-2,0.68-3.68,2.05-5.05c1.36-1.37,3.05-2.05,5.05-2.05c2.04,0,3.76,0.67,5.16,2.02
			c1.4,1.35,2.11,3.04,2.11,5.08c0,2-0.7,3.66-2.11,4.99c-1.4,1.32-3.13,1.99-5.16,1.99c-2.04,0-3.73-0.66-5.08-1.99
			C94.73,24.34,94.05,22.68,94.05,20.67z M95.38,106.98v-63.8h11.31v63.8H95.38z"/>
		<path class="st0" d="M120.94,93.19c5.69,4.12,11.83,6.17,18.4,6.17c8.81,0,13.21-2.88,13.21-8.65c0-2.46-0.96-4.49-2.88-6.08
			c-1.92-1.6-5.83-3.49-11.71-5.68c-7.08-2.85-11.67-5.66-13.79-8.45c-2.12-2.79-3.17-6.16-3.17-10.12c0-5.65,2.39-10.18,7.18-13.58
			c4.79-3.41,10.68-5.11,17.68-5.11c5.42,0,10.46,0.94,15.11,2.83v10.9c-4.77-3.08-10.17-4.62-16.21-4.62
			c-3.62,0-6.56,0.79-8.83,2.37c-2.27,1.58-3.4,3.66-3.4,6.23c0,2.54,0.82,4.52,2.45,5.94c1.63,1.42,5.26,3.25,10.87,5.48
			c7.11,2.65,11.92,5.4,14.42,8.25c2.5,2.85,3.75,6.37,3.75,10.56c0,5.85-2.39,10.45-7.18,13.82c-4.79,3.36-10.99,5.05-18.6,5.05
			c-6.62,0-12.39-1.25-17.31-3.75V93.19z"/>
		<path class="st0" d="M175.46,20.67c0-2,0.68-3.68,2.05-5.05c1.36-1.37,3.05-2.05,5.05-2.05c2.04,0,3.76,0.67,5.16,2.02
			c1.4,1.35,2.11,3.04,2.11,5.08c0,2-0.7,3.66-2.11,4.99c-1.4,1.32-3.13,1.99-5.16,1.99c-2.04,0-3.73-0.66-5.08-1.99
			C176.13,24.34,175.46,22.68,175.46,20.67z M176.79,106.98v-63.8h11.31v63.8H176.79z"/>
		<path class="st0" d="M259.86,106.98h-11.25V70.69c0-13.11-4.79-19.67-14.36-19.67c-4.96,0-9.04,1.85-12.23,5.54
			c-3.19,3.69-4.79,8.37-4.79,14.02v36.4h-11.31v-63.8h11.31v10.56h0.23c4.81-8.04,11.79-12.06,20.94-12.06
			c7,0,12.33,2.24,15.98,6.72c3.65,4.48,5.48,11.01,5.48,19.58V106.98z"/>
		<path class="st0" d="M331.74,101.61c0,23.61-11.46,35.42-34.38,35.42c-7.92,0-14.81-1.48-20.65-4.44v-10.9
			c7.11,3.96,13.94,5.94,20.48,5.94c15.5,0,23.25-8.16,23.25-24.46v-6.75h-0.23c-4.85,8.04-12.08,12.06-21.69,12.06
			c-8,0-14.4-2.86-19.21-8.6c-4.81-5.73-7.21-13.33-7.21-22.79c0-10.88,2.65-19.51,7.96-25.88c5.31-6.36,12.38-9.55,21.23-9.55
			c8.5,0,14.81,3.39,18.92,10.15h0.23v-8.65h11.31V101.61z M320.44,69.02c0.04-4.92-1.62-9.15-4.96-12.69
			c-3.35-3.54-7.46-5.31-12.35-5.31c-6.15,0-10.94,2.26-14.36,6.78c-3.42,4.52-5.13,10.72-5.13,18.61c0,6.77,1.65,12.25,4.96,16.44
			c3.31,4.19,7.69,6.29,13.15,6.29c5.5,0,10-2,13.5-6c3.5-4,5.23-9.08,5.19-15.23V69.02z"/>
		<path class="st0" d="M405.01,27.89h-25.79v79.09h-11.6V27.89h-25.67V17.62h63.05V27.89z"/>
		<path class="st0" d="M453.76,77.96h-44.65c0.19,6.81,2.06,12.07,5.6,15.78c3.53,3.71,8.48,5.57,14.82,5.57
			c7.15,0,13.71-2.29,19.68-6.87v10.1c-5.62,3.96-13.06,5.94-22.33,5.94c-9.23,0-16.43-2.92-21.6-8.77
			c-5.17-5.84-7.76-13.96-7.76-24.35c0-9.77,2.84-17.83,8.51-24.17c5.67-6.35,12.72-9.52,21.14-9.52c8.34,0,14.86,2.68,19.55,8.05
			c4.69,5.37,7.04,12.88,7.04,22.53V77.96z M442.45,68.9c-0.04-5.77-1.4-10.23-4.09-13.38c-2.7-3.15-6.49-4.73-11.37-4.73
			c-4.5,0-8.39,1.67-11.68,5.02c-3.29,3.35-5.35,7.71-6.2,13.1H442.45z"/>
		<path class="st0" d="M510.53,104.09c-4.89,2.92-10.77,4.38-17.65,4.38c-9.23,0-16.65-2.96-22.27-8.88
			c-5.62-5.92-8.42-13.59-8.42-23.02c0-10.46,3.03-18.89,9.09-25.3c6.05-6.41,14.16-9.61,24.31-9.61c5.84,0,10.85,1.04,15,3.12
			v11.19c-4.5-3.31-9.5-4.96-15-4.96c-6.46,0-11.72,2.24-15.78,6.72c-4.06,4.48-6.09,10.45-6.09,17.91c0,7.35,1.91,13.1,5.74,17.25
			c3.83,4.15,8.99,6.23,15.49,6.23c5.5,0,10.69-1.81,15.58-5.42V104.09z"/>
		<path class="st0" d="M577.22,106.98h-11.25V70.29c0-12.84-4.77-19.27-14.31-19.27c-4.89,0-8.94,1.88-12.17,5.62
			c-3.23,3.75-4.85,8.47-4.85,14.16v36.17h-11.31V12.54h11.31v41.13h0.23c4.88-8,11.83-12,20.83-12c14.34,0,21.52,8.67,21.52,26.02
			V106.98z"/>
	</g>
</g>
</svg>
