<svg width="90" height="80" viewBox="0 0 90 80" fill="none" xmlns="http://www.w3.org/2000/svg">
<g clip-path="url(#clip0_4048_13650)">
<path d="M30.9984 69.424H28.9952L28.4812 71.2673H27.6777L29.5549 64.9141H30.4304L32.3172 71.2673H31.5137L30.9998 69.424H30.9984ZM30.8183 68.7795L30.1506 66.4178C30.0965 66.185 30.0508 65.9521 30.0065 65.693H29.9885C29.9428 65.9521 29.8984 66.185 29.8444 66.4178L29.1767 68.7795H30.8197H30.8183Z" fill="white"/>
<path d="M34.8591 66.6865C34.9048 66.6865 34.9409 66.6865 34.9852 66.6948V67.4557H34.8854C34.4795 67.4557 34.2357 67.6165 34.0556 67.859C33.7481 68.2166 33.7398 68.7364 33.7398 69.2104V71.2685H33V66.7946H33.6857V67.8147C33.8478 67.2146 34.2177 66.6879 34.8591 66.6879V66.6865Z" fill="white"/>
<path d="M37.0355 69.0843L36.4038 69.8535V71.2672H35.6641V64.7795H36.4038V68.9582L38.0552 66.7933H38.9404L37.5592 68.4759L39.0027 71.2672H38.1452L37.0355 69.0843Z" fill="white"/>
<path d="M39.3379 70.1043C39.3379 69.6123 39.5457 69.2727 39.8435 69.0482C40.1054 68.8514 40.4572 68.7267 41.0266 68.6283L41.7941 68.4938V68.2166C41.7941 67.5541 41.5683 67.2686 41.0446 67.2686C40.4129 67.2686 40.2231 67.6539 40.2051 68.2166H39.4473C39.4653 67.0261 40.2411 66.6865 41.0446 66.6865C42.1002 66.6865 42.5339 67.0801 42.5339 68.1903V69.9435C42.5339 70.5076 42.5699 70.9276 42.6419 71.2671H41.9105C41.8744 71.0079 41.8467 70.721 41.8467 70.4702C41.693 71.0163 41.233 71.3738 40.6013 71.3738C39.7895 71.3738 39.3379 70.8638 39.3379 70.1029V70.1043ZM41.8024 69.6303V69.0219L41.0086 69.1743C40.4406 69.2824 40.1331 69.5416 40.1234 70.0336C40.1151 70.5256 40.3575 70.7848 40.8368 70.7848C41.4145 70.7848 41.8024 70.3468 41.8024 69.6303Z" fill="white"/>
<path d="M43.5703 66.7932H44.2657V67.6247C44.4999 66.99 44.9072 66.6851 45.5209 66.6851C46.3147 66.6851 46.7123 67.1868 46.7123 68.2068V71.267H45.9808V68.2692C45.9808 67.6164 45.737 67.3032 45.2313 67.3032C44.6356 67.3032 44.3101 67.8049 44.3101 68.7973V71.267H43.5703V66.7932Z" fill="white"/>
<path d="M47.4082 69.9698L48.1397 69.8534C48.2034 70.4174 48.5636 70.775 49.1052 70.775C49.6469 70.775 49.9448 70.5158 49.9448 70.0945C49.9448 69.6732 49.7647 69.4944 49.295 69.3697L48.6356 69.1992C47.9762 69.0287 47.5703 68.6088 47.5703 67.9643C47.5703 67.1674 48.22 66.6851 49.0775 66.6851C49.9988 66.6851 50.6028 67.0884 50.6388 67.9463L49.9254 68.0627C49.8713 67.4903 49.5638 67.2575 49.0775 67.2575C48.5913 67.2575 48.292 67.4986 48.292 67.9283C48.292 68.2955 48.5082 68.4646 48.9695 68.5908L49.6109 68.7612C50.3784 68.9677 50.6665 69.3697 50.6665 70.0405C50.6665 70.7653 50.0708 71.3641 49.0955 71.3641C48.1203 71.3641 47.4886 70.8901 47.4082 69.9684V69.9698Z" fill="white"/>
<path d="M51.2812 70.1043C51.2812 69.6123 51.489 69.2727 51.7869 69.0482C52.0487 68.8514 52.4006 68.7267 52.97 68.6283L53.7374 68.4938V68.2166C53.7374 67.5541 53.5116 67.2686 52.988 67.2686C52.3563 67.2686 52.1665 67.6539 52.1485 68.2166H51.3907C51.4087 67.0261 52.1845 66.6865 52.988 66.6865C54.0436 66.6865 54.4772 67.0801 54.4772 68.1903V69.9435C54.4772 70.5076 54.5132 70.9276 54.5853 71.2671H53.8538C53.8178 71.0079 53.7901 70.721 53.7901 70.4702C53.6363 71.0163 53.1764 71.3738 52.5447 71.3738C51.7329 71.3738 51.2812 70.8638 51.2812 70.1029V70.1043ZM53.7458 69.6303V69.0219L52.952 69.1743C52.384 69.2824 52.0764 69.5416 52.0667 70.0336C52.0584 70.5256 52.3009 70.7848 52.7802 70.7848C53.3579 70.7848 53.7458 70.3468 53.7458 69.6303Z" fill="white"/>
<path d="M55.1777 69.9698L55.9092 69.8534C55.9729 70.4174 56.3331 70.775 56.8748 70.775C57.4164 70.775 57.7143 70.5158 57.7143 70.0945C57.7143 69.6732 57.5342 69.4944 57.0646 69.3697L56.4051 69.1992C55.7457 69.0287 55.3398 68.6088 55.3398 67.9643C55.3398 67.1674 55.9895 66.6851 56.8471 66.6851C57.7683 66.6851 58.3723 67.0884 58.4083 67.9463L57.6949 68.0627C57.6409 67.4903 57.3333 67.2575 56.8471 67.2575C56.3608 67.2575 56.0616 67.4986 56.0616 67.9283C56.0616 68.2955 56.2777 68.4646 56.739 68.5908L57.3804 68.7612C58.1479 68.9677 58.436 69.3697 58.436 70.0405C58.436 70.7653 57.8403 71.3641 56.8651 71.3641C55.8898 71.3641 55.2581 70.8901 55.1777 69.9684V69.9698Z" fill="white"/>
<path d="M61.5977 64.9141H62.7613L64.0345 69.6651C64.1245 69.9964 64.1605 70.1571 64.1882 70.426H64.2159C64.2339 70.1571 64.27 69.9964 64.36 69.6651L65.6331 64.9141H66.8065V71.2673H66.0848V66.8114C66.0848 66.4802 66.0848 65.9161 66.1125 65.6126H66.0667C66.039 65.8634 65.985 66.1309 65.895 66.5523L64.6038 71.2673H63.792L62.5009 66.5523C62.4192 66.1323 62.3471 65.7027 62.3291 65.6126H62.2931C62.3111 65.9175 62.3208 66.4802 62.3208 66.8114V71.2673H61.599V64.9141H61.5977Z" fill="white"/>
<path d="M67.8906 69.8271V66.7932H68.6304V69.791C68.6304 70.4258 68.8742 70.739 69.3438 70.739C69.9035 70.739 70.2554 70.211 70.2554 69.3517V66.7932H70.9868V71.2671H70.3011V70.4799C70.139 71.0162 69.6957 71.3752 69.1277 71.3752C68.1802 71.3752 67.8906 70.7307 67.8906 69.8271Z" fill="white"/>
<path d="M71.7559 69.9698L72.4873 69.8534C72.551 70.4174 72.9112 70.775 73.4529 70.775C73.9946 70.775 74.2924 70.5158 74.2924 70.0945C74.2924 69.6732 74.1123 69.4944 73.6427 69.3697L72.9833 69.1992C72.3238 69.0287 71.9179 68.6088 71.9179 67.9643C71.9179 67.1674 72.5677 66.6851 73.4252 66.6851C74.3464 66.6851 74.9504 67.0884 74.9865 67.9463L74.273 68.0627C74.219 67.4903 73.9114 67.2575 73.4252 67.2575C72.9389 67.2575 72.6397 67.4986 72.6397 67.9283C72.6397 68.2955 72.8558 68.4646 73.3171 68.5908L73.9585 68.7612C74.726 68.9677 75.0142 69.3697 75.0142 70.0405C75.0142 70.7653 74.4185 71.3641 73.4432 71.3641C72.4679 71.3641 71.8362 70.8901 71.7559 69.9684V69.9698Z" fill="white"/>
<path d="M78.9744 69.2007H76.3575C76.3852 70.2291 76.6831 70.7308 77.3868 70.7308C77.8648 70.7308 78.2083 70.48 78.3081 69.8993L78.9675 70.0961C78.8137 70.9373 78.218 71.3753 77.3702 71.3753C76.3686 71.3753 75.6191 70.7669 75.6191 69.0316C75.6191 67.2964 76.3949 66.688 77.3522 66.688C78.3815 66.688 78.9772 67.3768 78.9772 68.6297V69.2021L78.9744 69.2007ZM78.225 68.6463C78.225 67.6706 77.9188 67.259 77.3494 67.259C76.8175 67.259 76.3838 67.5279 76.3561 68.6463H78.225Z" fill="white"/>
<path d="M79.7969 69.8271V66.7932H80.5366V69.791C80.5366 70.4258 80.7805 70.739 81.2501 70.739C81.8098 70.739 82.1616 70.211 82.1616 69.3517V66.7932H82.8931V71.2671H82.2074V70.4799C82.0453 71.0162 81.602 71.3752 81.034 71.3752C80.0864 71.3752 79.7969 70.7307 79.7969 69.8271Z" fill="white"/>
<path d="M84.6661 66.7932V67.5624C84.8559 66.9803 85.2258 66.6851 85.7578 66.6851C86.2897 66.6851 86.6513 66.972 86.8051 67.5347C87.0309 66.9706 87.4188 66.6851 87.9425 66.6851C88.6559 66.6851 89.0521 67.1688 89.0521 68.0544V71.267H88.3123V68.1985C88.3123 67.5984 88.0962 67.3032 87.6529 67.3032C87.1473 67.3032 86.8771 67.7051 86.8771 68.4937V71.267H86.1457V68.1805C86.1457 67.6081 85.9199 67.3032 85.4863 67.3032C84.9903 67.3032 84.7105 67.7328 84.7105 68.5201V71.267H83.9707V66.7932H84.6661Z" fill="white"/>
<path d="M27.8945 77.6563C27.8945 76.0458 28.572 75.3113 29.6636 75.3113C30.7552 75.3113 31.4327 76.0444 31.4327 77.6563C31.4327 79.2682 30.7552 80 29.6636 80C28.572 80 27.8945 79.2668 27.8945 77.6563ZM30.6472 77.6563C30.6472 76.3147 30.2316 75.8934 29.6636 75.8934C29.0956 75.8934 28.68 76.3133 28.68 77.6563C28.68 78.9993 29.0956 79.4193 29.6636 79.4193C30.2316 79.4193 30.6472 78.9993 30.6472 77.6563Z" fill="white"/>
<path d="M34.1748 76.0004H33.2356V79.8921H32.5041V76.0004H31.8184V75.4183H32.5041V74.613C32.5041 73.8438 32.9557 73.3518 33.6872 73.3518C33.877 73.3518 34.039 73.3698 34.1748 73.4059V74.0226C34.0487 74.0046 33.931 73.9963 33.8132 73.9963C33.4073 73.9963 33.2356 74.2014 33.2356 74.6851V75.4183H34.1748V76.0004Z" fill="white"/>
<path d="M37.9417 74.2111V76.2956H40.2345V76.9581H37.9417V79.8935H37.1562V73.5403H40.3882V74.2111H37.9417Z" fill="white"/>
<path d="M41.0938 73.6484H41.9153V74.6241H41.0938V73.6484ZM41.1395 75.4197H41.8792V79.8936H41.1395V75.4197Z" fill="white"/>
<path d="M42.9531 75.4194H43.6486V76.251C43.8827 75.6162 44.29 75.3113 44.9037 75.3113C45.6975 75.3113 46.0951 75.813 46.0951 76.8331V79.8933H45.3636V76.8954C45.3636 76.2426 45.1198 75.9294 44.6141 75.9294C44.0185 75.9294 43.6929 76.4311 43.6929 77.4235V79.8933H42.9531V75.4194Z" fill="white"/>
<path d="M50.2557 77.8271H47.6388C47.6665 78.8555 47.9643 79.3572 48.6681 79.3572C49.146 79.3572 49.4896 79.1064 49.5893 78.5256L50.2487 78.7224C50.095 79.5637 49.4993 80.0017 48.6515 80.0017C47.6499 80.0017 46.9004 79.3932 46.9004 77.658C46.9004 75.9228 47.6762 75.313 48.6334 75.313C49.6627 75.313 50.2584 76.0018 50.2584 77.2547V77.8271H50.2557ZM49.5062 77.2727C49.5062 76.297 49.1987 75.8854 48.6307 75.8854C48.0987 75.8854 47.6651 76.1543 47.6374 77.2727H49.5062Z" fill="white"/>
<path d="M56.1781 78.0502H54.1749L53.6609 79.8935H52.8574L54.7345 73.5403H55.6101L57.4969 79.8935H56.6934L56.1795 78.0502H56.1781ZM55.998 77.4057L55.3302 75.0441C55.2762 74.8112 55.2305 74.5784 55.1862 74.3192H55.1682C55.1224 74.5784 55.0781 74.8112 55.0241 75.0441L54.3564 77.4057H55.9994H55.998Z" fill="white"/>
<path d="M60.0349 75.3113C60.0806 75.3113 60.1166 75.3113 60.161 75.3196V76.0805H60.0612C59.6553 76.0805 59.4115 76.2413 59.2314 76.4838C58.9239 76.8414 58.9155 77.3611 58.9155 77.8351V79.8933H58.1758V75.4194H58.8615V76.4395C59.0236 75.8393 59.3935 75.3127 60.0349 75.3127V75.3113Z" fill="white"/>
<path d="M60.5742 75.4194H61.2697V74.2926L62.0011 74.0154V75.4207H62.9404V76.0028H62.0011V78.6154C62.0011 79.0811 62.1632 79.2779 62.5608 79.2779C62.7326 79.2779 62.8323 79.2598 62.9584 79.2335V79.9043C62.7866 79.9487 62.6148 79.9764 62.371 79.9764C61.5495 79.9764 61.2697 79.5024 61.2697 78.7235V76.0028H60.5742V75.4207V75.4194Z" fill="white"/>
<path d="M63.4277 78.596L64.1592 78.4796C64.2229 79.0437 64.5831 79.4012 65.1248 79.4012C65.6664 79.4012 65.9643 79.1421 65.9643 78.7207C65.9643 78.2994 65.7842 78.1206 65.3146 77.9959L64.6551 77.8254C63.9957 77.6549 63.5898 77.235 63.5898 76.5905C63.5898 75.7936 64.2395 75.3113 65.0971 75.3113C66.0183 75.3113 66.6223 75.7146 66.6583 76.5725L65.9449 76.6889C65.8909 76.1165 65.5833 75.8837 65.0971 75.8837C64.6108 75.8837 64.3116 76.1248 64.3116 76.5545C64.3116 76.9218 64.5277 77.0908 64.989 77.217L65.6304 77.3874C66.3979 77.5939 66.686 77.9959 66.686 78.6667C66.686 79.3915 66.0903 79.9903 65.1151 79.9903C64.1398 79.9903 63.5081 79.5163 63.4277 78.5946V78.596Z" fill="white"/>
<path d="M10.9649 58.4233L10.5493 50.4929H7.23006L6.57757 58.4233H0L4.80157 11.4241H13.5139L18.4333 58.4219H10.9649V58.4233ZM9.18615 27.2864L7.82299 43.3247H10.1337L9.18477 27.2864H9.18615Z" fill="white"/>
<path d="M48.2903 58.4233V26.7001L43.4887 58.4233H38.6886L34.3622 26.7001V58.4233H27.7832V11.4241H39.1637L41.8305 33.4553L44.676 11.4241H55.5827V58.4219H48.2917L48.2903 58.4233Z" fill="white"/>
<path d="M65.7672 18.0046V31.3999H70.983V38.2146H65.7672V58.4247H58.418V11.4241H72.8213V18.0032H65.7686L65.7672 18.0046Z" fill="white"/>
<path d="M81.855 58.4236L81.4394 50.4932H78.1201L77.4676 58.4236H70.8887L75.6902 11.4258H84.4026L89.3219 58.4236H81.8536H81.855ZM80.0762 27.2867L78.713 43.325H81.0238L80.0762 27.2867Z" fill="white"/>
<path d="M18.6133 79.8822H19.8975L26.7327 -0.000244141H25.4471L18.6133 79.8822Z" fill="white"/>
</g>
<defs>
<clipPath id="clip0_4048_13650">
<rect width="89.3236" height="80.0003" fill="white"/>
</clipPath>
</defs>
</svg>
