<svg width="120" height="49" viewBox="0 0 120 49" fill="none" xmlns="http://www.w3.org/2000/svg">
<path fill-rule="evenodd" clip-rule="evenodd" d="M11.1651 8.08732V8.08934L11.1649 8.08924V15.7523L10.987 15.53L10.6757 15.2631L10.3492 15.0114L9.9789 14.7743L9.53445 14.5219L7.22157 13.3655L6.74669 13.0986L6.19763 12.7873L5.67901 12.431L5.17497 12.0607L4.68551 11.6606L4.25564 11.2003L3.84037 10.7115L3.48468 10.1922L3.24693 9.718L3.0396 9.22854L2.89188 8.70992L2.75874 8.1317L2.69914 7.53826V6.94482L2.75874 6.35202L2.8475 5.7738L3.01044 5.19557L3.20381 4.64715L3.44094 4.17227L3.70786 3.71261L4.00458 3.28275L4.37484 2.86747L4.7749 2.49721L5.2054 2.15611L5.70944 1.82959L6.21348 1.54809L6.8215 1.28117L7.42889 1.05863L8.06671 0.881104L8.71911 0.74796L9.37151 0.673781L10.0239 0.643982L10.7797 0.658564L11.1649 0.688347V4.00923L11.1353 3.99475L10.7201 3.96495H10.32L9.91993 4.03913L9.65301 4.12853L9.40131 4.23187L9.16419 4.38023L8.95623 4.55776L8.79329 4.7505L8.67409 4.95845L8.6145 5.34393L8.6443 5.75921L8.77807 6.18908L9.01519 6.57456L9.3265 6.91566L9.74114 7.27134L10.2604 7.59722L11.0168 8.0125L11.1651 8.08732ZM11.1649 4.00923V4.00937L11.5352 4.08355L12.1286 4.27629L12.6923 4.51341L13.2407 4.81013L13.7593 5.12143L14.2634 5.46253L14.9158 5.95136L15.5682 6.4852L16.1762 7.01904L16.769 7.59726V2.45223L15.9537 2.02237L15.2569 1.69648L14.5303 1.41435L13.8037 1.17723L13.0625 0.984485L12.3214 0.836125L11.5504 0.717564L11.1649 0.687766V0.688347L11.1651 0.688363V4.00933L11.1649 4.00923ZM11.1649 15.7523V15.7545L11.2391 15.8585L11.4762 16.1843L11.5656 16.3771L11.6398 16.5698L11.6988 16.7778L11.7134 16.9832L11.6981 17.2203L11.6392 17.4574L11.5504 17.68L11.4173 17.8879L11.2391 18.0959L11.1649 18.1701V22.158L11.8617 22.0243L12.6175 21.8467L13.2699 21.6242L13.8779 21.3725L14.4853 21.0758L15.0337 20.7347L15.553 20.3644L16.0418 19.9339L16.4716 19.5193L16.8723 19.0742L17.2432 18.5847L17.5393 18.0959L17.8062 17.5919L18.0288 17.0434L18.1771 16.4354L18.2659 15.7976V15.1452L18.1917 14.5226L18.0288 13.9L17.8062 13.3072L17.5989 12.9071L17.3466 12.4918L17.0505 12.0918L16.6796 11.6765L16.2497 11.246L15.7609 10.8314L15.2125 10.4313L14.6343 10.0306L13.4036 9.27485L12.1584 8.59265L11.1651 8.08934V15.7526L11.1649 15.7523ZM104.589 1.62293V1.62299H104.589V6.93071L104.412 6.51562L102.084 13.0396H104.589L104.589 13.0397V16.4203L100.838 16.4202L100.571 17.3395L100.453 17.8879L100.438 18.4516L100.468 19L100.571 19.5484L100.764 20.0823L101.002 20.5711L101.372 21.3566H77.4563V21.3561H77.4574V20.0526H77.4563V20.0518L77.4861 20.022L77.8709 19.5332L78.122 19.0881L78.3743 18.4947L78.5975 17.7979L78.7154 17.1011L78.7452 16.5819V6.67856L78.7009 5.89302L78.6127 5.06246L78.4492 4.26233L78.167 3.53575L77.7822 2.83834L77.4563 2.39389V2.39352L77.4566 2.39395V1.62299H77.4563V1.62293H86.4999L86.0554 2.26011L85.6408 2.9271L85.3301 3.6391L85.0778 4.38026L84.944 5.13601L84.8698 5.89239L84.8413 6.67793V18.0059H89.9705L90.6679 17.9317L91.3653 17.7986L92.0475 17.6058L92.7139 17.3681L93.3365 17.0422L93.9147 16.6415L94.4485 16.1818L94.7161 16.36L94.1226 20.9712L94.8346 20.4227L95.4281 19.8889L95.8427 19.4445L96.2276 18.9696L96.5693 18.451L96.8654 17.9025L97.1329 17.3541L102.189 4.38026L102.277 4.08354L102.352 3.72723L102.411 3.34174V2.98606L102.352 2.65954L102.232 2.34824L102.055 2.06674L101.832 1.82962L101.566 1.6223H104.589V1.62293ZM77.4563 1.62299H76.7744L77.3083 2.20121L77.4563 2.39352V1.62299ZM77.4563 20.0526H77.4561L76.9819 20.497L76.417 20.8679L75.8983 21.1349L76.4918 16.3607L76.3447 16.1826L75.8108 16.5979L75.2472 16.9688L74.6538 17.2953L74.0312 17.5768L73.2596 17.7993L72.4594 17.9622L71.6733 18.0066H66.8104V6.67869L66.825 5.86334L66.8833 5.07717L67.0025 4.3658L67.1959 3.7432L67.4919 3.13518L67.9376 2.4086L68.4563 1.63763H58.863L59.3968 2.31983L59.8121 2.94244L60.079 3.43126L60.3016 4.0247L60.4791 4.69168L60.5837 5.43285L60.5983 6.04087L60.6129 6.67805L60.5983 16.9383V17.2794L60.5539 17.8133L60.4201 18.4213L60.1982 19.0439L59.9161 19.6373L59.5306 20.1857L59.0709 20.6746L58.5371 21.0746L58.7451 21.3561H77.4563V20.0526ZM104.589 16.4203L104.589 16.4202V13.0396L107.081 13.0397L104.589 6.93096V6.93071L104.589 6.9309V1.62299H109.305L115.547 16.613L115.977 17.5323L116.466 18.4073L117.059 19.2372L117.712 19.9936L118.409 20.7201L119.194 21.3573H108.386L108.134 21.0758L108.534 20.3049L108.727 19.8306L108.875 19.3259L108.934 18.8225V18.3033L108.875 17.7847L108.727 17.2958L108.371 16.4209H104.589V16.4203ZM104.589 42.0704V46.9185L104.041 46.5624V41.581L104.485 41.9823L104.589 42.0698V42.0708L104.589 42.0704ZM104.589 36.3032V36.3072L104.663 36.4695L105.019 36.9894L105.419 37.4783L105.864 37.9227L106.338 38.3228L106.842 38.693L107.376 39.0493L107.924 39.3752L108.4 39.6276L110.697 40.784L111.157 41.0351L111.528 41.2728L111.854 41.5239L112.151 41.806L112.432 42.1167L112.655 42.4584L112.745 42.6366L112.819 42.8287L112.862 43.0367L112.892 43.2434L112.877 43.4811L112.819 43.7334L112.73 43.9554L112.61 44.1633L112.417 44.37L112.121 44.6376L111.78 44.8442L111.409 44.9926L111.024 45.0668L110.609 45.0814L110.178 45.0668L109.778 45.0072L109.364 44.9178L108.962 44.7986L108.532 44.6363L108.044 44.4131L107.51 44.162L106.976 43.8501L106.324 43.4202L105.686 42.9606L105.078 42.4863L104.589 42.0708V46.9188L104.589 46.9185V46.9194L104.633 46.9517L105.227 47.2922L105.849 47.6041L106.502 47.8704L107.184 48.0936L107.88 48.2705L108.577 48.4042L109.289 48.4936L109.987 48.538H110.698L111.484 48.5082L112.27 48.434L113.04 48.3003L113.797 48.1082L114.434 47.9002L115.056 47.6479L115.664 47.3372L116.212 47.0113L116.732 46.6252L117.221 46.2105L117.651 45.7807L118.051 45.3362L118.407 44.8607L118.718 44.3719L118.985 43.8533L119.192 43.3194L119.356 42.6968L119.445 42.059V41.4225L119.356 40.7846L119.207 40.162L118.971 39.5686L118.777 39.1825L118.54 38.7678L118.229 38.3678L117.873 37.9531L117.428 37.5233L116.939 37.0921L116.375 36.6921L115.812 36.3072L114.581 35.5508L113.322 34.8687L112.21 34.2752L111.424 33.8751L110.935 33.5493L110.505 33.193L110.178 32.8525L109.956 32.4524L109.822 32.0365L109.778 31.6219L109.852 31.237L109.971 31.0138L110.118 30.8217L110.341 30.6582L110.579 30.5098L110.83 30.3906L111.098 30.3012L111.498 30.2416L111.912 30.2283L112.312 30.2727L112.714 30.3608L113.307 30.539L113.871 30.79L114.419 31.0874L114.938 31.3835L115.427 31.7398L116.094 32.2286L116.732 32.7472L117.353 33.2957L117.947 33.8739V28.7136L117.132 28.299L116.435 27.9731L115.723 27.691L114.982 27.4545L114.24 27.2611L113.484 27.0975L112.729 26.9936L111.973 26.9194H111.201L110.535 26.934L109.882 27.0234L109.244 27.1425L108.607 27.3207L107.984 27.5426L107.391 27.8102L106.872 28.1062L106.383 28.4334L105.953 28.7739L105.552 29.1441L105.182 29.5455L104.871 29.9753L104.603 30.435L104.589 30.4938V30.4909L104.38 30.9202L104.188 31.4686L104.025 32.0322L103.921 32.6104L103.878 33.2039V33.8119L103.936 34.4053L104.055 34.9836L104.219 35.4876L104.412 35.9764L104.589 36.3032ZM104.589 36.3032L104.589 36.3036V30.4938L104.589 30.4946V36.3032ZM77.4563 44.9021V48.2947H77.5286L78.1962 48.2801L78.8784 48.2205L79.5308 48.1324L80.1832 47.9986L80.8343 47.835L81.3396 47.6715L81.992 47.435L82.6286 47.1528L83.2512 46.8269L83.8446 46.4567L84.4228 46.0553L84.9865 45.6109L85.5051 45.1367L86.0237 44.6478L86.3509 44.2776L86.6615 43.8915L87.0762 43.2834L87.4623 42.6608L87.7882 42.0084L88.0855 41.3421L88.322 40.6301L88.5154 39.9327L88.6492 39.2219L88.7373 38.4954L88.7671 37.7688L88.7538 37.0422L88.6796 36.3162L88.5604 35.6042L88.3823 34.9068L88.1604 34.2246L87.8928 33.5583L87.5669 32.8907L87.1954 32.2681L86.7807 31.66L86.3211 31.0818L85.7727 30.4884L85.1646 29.94L84.542 29.4213L83.8598 28.9471L83.1637 28.5324L82.4517 28.1609L81.6953 27.835L80.8508 27.5529L79.9904 27.3462L79.1016 27.1978L78.2114 27.1084L77.4563 27.0939V30.4744L77.9159 30.5042L78.4942 30.6082L79.0724 30.8016L79.636 31.0825L80.1997 31.5421L80.6885 32.0462L81.1329 32.6098L81.5032 33.2324L81.8747 34.004L82.1708 34.7889L82.394 35.6201L82.5132 36.3467L82.5874 37.0726L82.6007 37.8144L82.5709 38.541L82.4827 39.267L82.3344 39.9935L82.1708 40.5718L81.9641 41.1354L81.741 41.699L81.5628 42.0547L81.3859 42.3965L81.1184 42.7965L80.8223 43.1966L80.4951 43.5681L80.1394 43.9086L79.7692 44.2059L79.3533 44.4424L78.9234 44.6504L78.4637 44.7841L77.9895 44.8723L77.5007 44.9167L77.4563 44.9021ZM91.6003 47.6017H101.046L100.468 46.8453L100.17 46.3856L99.9192 45.8968L99.7113 45.4067L99.5477 44.8729L99.4285 44.339L99.3689 43.7906L99.3556 43.2422V32.9528L99.3689 32.3593L99.4431 31.7513L99.5623 31.1433L99.7258 30.5499L99.949 29.9716L100.215 29.408L100.527 28.8742L100.883 28.3701L101.268 27.8813H91.2744L91.793 28.3999L92.1779 28.8596L92.5196 29.3782L92.8005 29.912L93.0084 30.4903L93.1422 31.0837L93.2316 31.6917L93.2601 32.3739V42.9753L93.2316 43.5687L93.1422 44.1324L93.0084 44.696L92.8151 45.2444L92.564 45.763L92.2666 46.2671L91.956 46.7267L91.4374 47.3202L91.6003 47.6017ZM77.4558 30.4759V27.0953V27.0947H77.3227L76.4471 27.1245L75.543 27.2284L74.6839 27.392L73.8235 27.6139L72.979 27.9113L72.1776 28.267L71.406 28.6816L70.7099 29.1273L70.0575 29.6314L69.4349 30.1652L68.8414 30.7586L68.293 31.3952L67.8042 32.0774L67.3598 32.7894L66.9882 33.5458L66.6921 34.2863L66.4544 35.0281L66.2921 35.7984L66.1729 36.57L66.1133 37.3562L66.1279 38.1411L66.1875 38.9273L66.3212 39.7135L66.5133 40.4686L66.7511 41.2402L67.0618 41.982L67.4333 42.6927L67.8479 43.3901L68.352 44.0425L68.8858 44.6651L69.4793 45.2586L70.1019 45.807L70.7841 46.2958L71.4352 46.7105L72.1326 47.0953L72.8446 47.4225L73.5712 47.7033L74.2223 47.8967L74.8747 48.0451L75.5271 48.1642L76.1948 48.2372L76.8624 48.2968H77.4558V44.9016L77.0101 44.887L76.5504 44.8141L76.0762 44.6803L75.6019 44.4724L75.1423 44.2061L74.7264 43.8789L74.2965 43.4491L73.9262 42.9748L73.5706 42.486L73.1546 41.7144L72.8142 40.9143L72.5764 40.0539L72.4141 39.1784L72.3101 38.3041L72.2956 37.4152L72.3552 36.525L72.5035 35.6507L72.6956 34.8195L72.993 34.0048L73.3632 33.2186L73.8229 32.492L74.3713 31.8111L74.7574 31.4396L75.1873 31.1289L75.6615 30.8626L76.1504 30.6692L76.7286 30.5355L77.322 30.4759H77.4558ZM48.0103 47.6018V47.0679L48.0114 47.069V47.6018H48.0103ZM48.0114 47.6018H48.4991L48.0114 47.069V47.0678H48.0107L47.8624 46.8897L46.5423 45.4359L45.2528 43.939L42.1239 39.8762L41.7974 39.4616L41.4563 39.0615L41.0708 38.7198L40.6409 38.4091L40.1813 38.1415L40.7449 37.9494L41.2635 37.7117L41.7822 37.4308L42.257 37.0891L42.7021 36.7188L43.1168 36.2744L43.4731 35.7855L43.7844 35.2517L44.0361 34.6735L44.2288 34.0655L44.3176 33.4428L44.3474 32.7904L44.2732 32.1678L44.1255 31.5452L43.8877 30.9518L43.591 30.3736L43.1313 29.751L42.5829 29.2171L41.9603 28.7575L41.2933 28.4018L40.5813 28.1197L39.825 27.9428L39.0686 27.8686H35.125L35.125 27.8693H24.717L25.1469 28.3581L25.5469 28.8768L25.8582 29.4404L26.0954 30.063L26.2583 30.7008L26.3325 31.3222L26.3623 31.9448V43.3919L26.3033 43.9257L26.1848 44.4444L25.992 44.9484L25.7549 45.4372L25.4728 45.8829L25.1317 46.2976L24.5832 46.891L23.9898 46.2684L23.4414 45.6008L22.9519 44.8888L22.522 44.1629L22.1511 43.3913L21.8696 42.7236L15.5682 27.8674H11.1652H11.1649V27.868H8.15549L8.40719 28.2979L8.58535 28.7278L8.71849 29.1576L8.77809 29.6033L8.74829 30.0478L8.67411 30.4922L8.55555 30.8638L8.46615 31.1301L3.38072 44.1337L3.18798 44.504L2.87668 45.0676L2.55016 45.5862L2.16468 46.0751L1.76462 46.5208L1.30496 46.9354L0.830078 47.3203L1.097 47.6024H7.7998L7.41432 46.5201L7.23617 45.9121L7.13219 45.2743L7.10239 44.6365L7.14677 43.9987L7.26533 43.376L7.4587 42.768H11.1649V39.255H8.71849L10.987 32.8489L11.1649 33.263V33.2641L13.611 39.255H11.1652V42.768H14.768L14.976 43.2721L15.1833 43.7165L15.3463 44.1774L15.4204 44.6517L15.435 45.1405L15.3608 45.6293L15.2423 46.1036L15.0343 46.5334L14.782 46.9494L14.4561 47.3196L14.6932 47.6018H34.3851L33.9102 47.0381L33.5247 46.5626L33.1982 46.0738L32.9465 45.5697L32.7538 45.0213L32.6346 44.4729L32.5756 43.8947V39.7438H32.9459L33.4797 39.7869L33.9984 39.9207L34.4872 40.1286L34.9323 40.4247L35.125 40.6029V36.4374L34.6653 36.4659H32.575V30.7287L34.3838 30.7433L34.9025 30.7579L35.125 30.7864L35.125 30.7882L35.3919 30.8339L35.8668 30.981L36.3265 31.2041L36.7119 31.5148L37.053 31.8711L37.32 32.301L37.5127 32.7011L37.6319 33.1309L37.6763 33.5766L37.6471 34.0211L37.5577 34.4509L37.365 34.8656L37.0537 35.3411L36.6536 35.7855L36.194 36.1114L35.7191 36.3194L35.2302 36.4386H35.1263V40.604L35.3336 40.7974L35.6449 41.1081L35.986 41.4929L36.3867 42.0116L36.9649 42.8275L38.9519 45.7041L39.2784 46.1339L39.6493 46.534L40.064 46.8757L40.5389 47.1566L41.0429 47.3798L41.5767 47.5135L42.1106 47.6029H48.0114V47.6018ZM11.1649 33.263V27.868H11.1652V33.2635L11.1649 33.263ZM48.2031 32.5076L48.0104 32.6402H48.0103V28.1331L48.0098 28.1386V28.1304L48.0396 27.8939L64.7046 27.8793L65.357 33.1423L64.6311 32.6978L63.8747 32.2978L63.1183 31.9263L62.3334 31.5858L61.6512 31.3778L60.9392 31.2009L60.2272 31.097L59.5159 31.0526V42.6335L59.5602 43.2846L59.6934 43.8926L59.8716 44.4861L60.1093 45.0643L60.361 45.6279L60.6882 46.1618L61.222 46.948L61.7406 47.6156H51.7169L51.4353 47.3334L51.9546 46.681L52.4586 45.9988L52.7104 45.5392L52.9177 45.0649L53.0515 44.5609L53.1256 44.0423V43.5237L53.1402 30.9797L52.2361 31.0538L51.3612 31.1876L50.5014 31.4241L49.6563 31.736L48.9151 32.0917L48.2031 32.5076ZM48.0098 28.1386L47.5354 32.982L48.0103 32.6403V32.6402H48.0098V28.1386ZM48.0098 21.3422V17.9915H51.2268L51.9388 17.9319L52.7097 17.8431L53.4953 17.6649L54.1477 17.4722L54.7113 17.2205L55.2451 16.9238L55.7638 16.5827L56.2386 16.1972L56.5797 16.5085L55.9571 21.3422H48.0098ZM48.0098 8.69525V12.3573L48.1283 12.3719L49.1364 12.5203L50.1147 12.713L51.0638 12.9501L52.0129 13.2468L52.9323 13.5734L52.5024 8.69525H48.0098ZM48.0098 4.73614V1.6225H55.0968L55.7194 7.06361L55.1855 6.61917L54.6219 6.23369L54.0291 5.89259L53.4065 5.59587L52.5759 5.24019L51.8348 5.00306L51.0638 4.83949L50.2783 4.75073L49.4921 4.73614H48.0098ZM48.0096 4.73663V1.62362H38.4005L38.8456 2.03827L39.231 2.52772L39.5575 3.06157L39.7947 3.6252L39.9874 4.29219L40.0914 5.09295L40.1206 6.16063L40.0914 16.7772L40.0616 17.4296L39.943 18.0668L39.7649 18.6742L39.5278 19.2822L39.2462 19.8015L38.8906 20.2903L38.4753 20.7201L38.0156 21.0758L38.2534 21.3427H48.0096V17.992H46.0968V12.2541L47.1049 12.2833L48.0096 12.3575V8.69542H46.0968V4.73663H48.0096ZM35.1251 5.92291V1.63761H36.1928L36.8452 6.88662L35.6292 6.17462L35.1251 5.92291ZM35.1248 5.92294V1.63763H19.5128L19.0088 6.72307L19.4387 6.39718L19.8983 6.10046L20.3871 5.83354L20.8766 5.59642L21.3654 5.37388L21.8993 5.18114L22.4179 5.0182L22.9517 4.91422L23.5002 4.81024L24.0492 4.75128L24.6128 4.72148L24.583 17.2655L24.5685 17.6953L24.5241 18.1258L24.4201 18.5405L24.3015 18.9557L24.1532 19.3558L23.8717 19.8161L23.5902 20.2606L23.2637 20.6758L22.9073 21.0759L23.1743 21.3574H33.2126L32.7828 20.809L32.3821 20.2155L32.0118 19.6221L31.6555 19.0147L31.4329 18.5107L31.2548 17.9914L31.1216 17.4728L31.0329 16.9389L30.9885 16.3905V4.79566L31.5667 4.82546L32.1449 4.89964L32.7232 5.0182L33.2716 5.16656L33.879 5.37388L34.487 5.61164L35.0652 5.89314L35.1248 5.92294ZM2.8623 20.3048V15.3227L3.30675 15.7234L3.89955 16.2268L4.50757 16.7017L5.14539 17.1461L5.79843 17.576L6.33227 17.8873L6.86611 18.1542L7.35493 18.3622L7.7848 18.5251L8.20008 18.6589L8.60014 18.7476L9.01542 18.8066L9.41548 18.8218L9.84534 18.8066L10.2308 18.7178L10.6011 18.5847L10.9422 18.3622L11.1647 18.1694V22.158H11.0905L10.3044 22.2468L9.53404 22.2614H8.80746L8.09546 22.2316L7.3841 22.1428L6.68668 22.0096L6.00448 21.8315L5.3375 21.5944L4.67052 21.3274L4.04791 21.0161L3.44053 20.675L2.8623 20.3048Z" fill="white"/>
</svg>
