<svg width="124" height="79" viewBox="0 0 124 79" fill="none" xmlns="http://www.w3.org/2000/svg">
<path fill-rule="evenodd" clip-rule="evenodd" d="M48.5976 58.4435L33.265 47.9653C33.265 47.9653 25.8887 42.6631 18.131 39.1282L34.6877 30.0387C34.6877 30.0387 45.3466 23.4663 48.7804 21.2018C48.7804 21.2018 57.1797 15.2917 61.758 11.0176C61.758 11.0176 69.8167 17.1334 79.9909 23.193C79.9909 23.193 91.3845 30.0387 97.9977 34.205C97.9977 34.205 104.611 38.2445 105.374 39.0022C105.374 39.0022 91.0029 47.4603 88.205 49.4804L69.6232 61.8677L61.9368 66.8814C61.9368 66.8814 53.1045 61.4733 48.5976 58.4435ZM23.7168 26.9532L0.445312 39.8446C11.3493 44.8582 21.7171 52.3781 21.7171 52.3781L43.268 67.2392C49.6027 71.5367 61.5791 78.6985 61.5791 78.6985L71.1983 72.7562L98.9386 54.5267C102.871 51.6622 123.07 39.6657 123.07 39.6657C121.998 38.5914 112.703 32.8617 112.703 32.8617C103.407 26.9532 87.3197 17.8215 87.3197 17.8215C73.0191 9.22721 61.5791 0.483521 61.5791 0.483521C55.144 6.54518 43.525 14.4195 43.525 14.4195C38.6986 17.6313 23.7168 26.9532 23.7168 26.9532ZM15.3316 18.7198C14.9753 12.3879 13.9063 6.69357 13.9063 6.69357L30.831 7.63901L49.5382 8.55031C48.4694 9.29786 32.6137 19.4552 32.6137 19.4552C23.7061 24.9075 14.9765 29.6563 14.9765 29.6563C15.1546 26.1388 15.3316 18.7198 15.3316 18.7198ZM108.925 6.69357C108.925 6.69357 108.719 13.0882 108.394 18.819C108.394 18.819 108.41 24.8888 108.572 28.0727C108.572 28.0727 100.229 23.4314 92.1157 18.4965C92.1157 18.4965 78.2257 10.1289 77.2519 9.45239L88.3987 9.24279C88.3987 9.24279 97.6516 8.73124 102.378 8.00152C107.104 7.2718 108.925 6.69357 108.925 6.69357ZM110.373 59.5771C110.677 65.573 110.373 71.6227 110.373 71.6227C110.373 71.6227 108.111 71.3073 103.687 70.544C99.2628 69.7805 90.9808 69.315 90.9808 69.315L80.4192 68.9585C81.3305 68.2505 94.5053 59.43 94.5053 59.43C102.101 54.2666 109.84 49.4518 109.84 49.4518C109.91 52.5082 110.373 59.5771 110.373 59.5771ZM14.0078 71.2274C14.0078 71.2274 13.1499 63.7943 13.4709 57.3056C13.4709 57.3056 13.2748 52.2649 13.1143 48.66C13.1143 48.66 20.6565 53.5592 28.6824 59.1464C28.6824 59.1464 43.8241 69.4094 44.7871 70.1753L33.848 71.0465C33.848 71.0465 27.6075 71.4082 22.5971 71.5889C17.8543 71.7599 14.0078 71.2274 14.0078 71.2274ZM92.449 34.7151C92.4289 35.067 92.4289 35.3751 92.4289 37.0466V38.9822C92.4289 40.39 92.4289 41.1487 92.6386 41.3466C92.8083 41.5116 93.068 41.5889 93.8466 41.5889C94.3755 41.5889 94.7651 41.5776 95.0147 41.2807C95.1344 41.1378 95.2543 40.8298 95.2743 40.6209C95.2843 40.5219 95.3042 40.4561 95.384 40.4561C95.454 40.4561 95.464 40.5109 95.464 40.6431C95.464 40.7638 95.3941 41.5889 95.3143 41.9078C95.2543 42.1498 95.2043 42.2047 94.6852 42.2047C94.1413 42.2047 93.7117 42.192 93.3402 42.1811C93.2208 42.1776 93.1073 42.1742 92.998 42.1715C92.5487 42.1498 92.1893 42.1385 91.78 42.1385C91.6702 42.1385 91.4505 42.1385 91.2109 42.1498C91.0922 42.1498 90.9654 42.1556 90.843 42.1612L90.8429 42.1612C90.7288 42.1665 90.6185 42.1715 90.5222 42.1715C90.4671 42.1715 90.4228 42.1656 90.3901 42.1529C90.4675 42.1369 90.4923 42.1087 90.4923 42.0614C90.4923 42.0052 90.4667 41.9842 90.423 41.977C90.4401 41.9747 90.4597 41.9736 90.4822 41.9736C90.6319 41.9736 90.7518 41.9516 90.8416 41.9297C91.0412 41.8856 91.0911 41.6436 91.1311 41.3247C91.181 40.8628 91.181 39.9942 91.181 38.9822V37.0466C91.181 35.3751 91.181 35.067 91.161 34.7151C91.1411 34.3411 91.0611 34.1653 90.7318 34.0882C90.6519 34.0663 90.532 34.0552 90.4024 34.0552C90.2924 34.0552 90.2325 34.0333 90.2325 33.9563C90.2325 33.8792 90.3025 33.8573 90.4522 33.8573C90.7191 33.8573 91.0377 33.8679 91.3125 33.8772L91.3127 33.8772C91.5208 33.8841 91.7038 33.8903 91.82 33.8903C91.9253 33.8903 92.1252 33.8839 92.3492 33.8767C92.6348 33.8676 92.9595 33.8573 93.1777 33.8573C93.3175 33.8573 93.3874 33.8792 93.3874 33.9563C93.3874 34.0333 93.3275 34.0552 93.2077 34.0552C93.0979 34.0552 92.9381 34.0663 92.8183 34.0882C92.5487 34.1432 92.4689 34.3303 92.449 34.7151ZM83.0585 42.1686C83.307 42.1636 83.5422 42.1534 83.7064 42.1462C83.8093 42.1417 83.8843 42.1385 83.9175 42.1385C84.0649 42.1385 84.2406 42.1466 84.4177 42.1548L84.4179 42.1548C84.5978 42.1631 84.779 42.1715 84.9335 42.1715C85.0389 42.1715 85.0964 42.1497 85.0964 42.0614C85.0964 41.9954 85.0676 41.9735 84.9526 41.9735H84.809C84.5116 41.9735 84.4255 41.8308 84.4255 41.6327C84.4255 41.5007 84.4735 41.2369 84.5693 40.9617L85.0869 39.389C85.1059 39.3232 85.1252 39.3011 85.1732 39.3011H87.3103C87.3583 39.3011 87.3871 39.3232 87.4062 39.3783L88.173 41.7095C88.2208 41.8415 88.1538 41.9405 88.0867 41.9626C87.9909 41.9735 87.9525 41.9954 87.9525 42.0614C87.9525 42.132 88.049 42.1379 88.1978 42.1471L88.2401 42.1497C89.0066 42.1715 89.7061 42.1715 90.0513 42.1715H90.0515C90.2162 42.1715 90.3229 42.1668 90.3901 42.1529C90.3456 42.1356 90.3224 42.1059 90.3224 42.0615C90.3224 42.0168 90.3488 41.9867 90.423 41.977C90.4069 41.9743 90.3884 41.9735 90.3677 41.9735C90.2527 41.9735 90.109 41.9626 89.9652 41.9296C89.7639 41.8745 89.486 41.7208 89.1218 40.7307C88.7771 39.7915 88.142 37.9632 87.6108 36.4343L87.6102 36.4328L87.6098 36.4314L87.6082 36.427C87.1952 35.2381 86.8455 34.2317 86.745 33.9672C86.649 33.7142 86.5915 33.6154 86.5054 33.6154C86.4094 33.6154 86.352 33.7363 86.237 34.0552L83.8312 40.9617C83.6396 41.5116 83.4575 41.8856 83.0167 41.9516C82.9781 41.9571 82.925 41.9626 82.8708 41.9667C82.7571 41.9586 82.6355 41.9441 82.5472 41.9297C82.2597 41.8856 82.1927 41.6877 82.1639 41.3907C82.1255 40.9179 82.1255 40.0491 82.1255 38.9822V37.0466C82.1255 35.3751 82.1255 35.067 82.1447 34.7151C82.1639 34.3303 82.2405 34.1432 82.4994 34.0882C82.6144 34.0663 82.691 34.0552 82.7868 34.0552C82.8826 34.0552 82.9401 34.0333 82.9401 33.9452C82.9401 33.8792 82.8635 33.8573 82.7388 33.8573C82.5378 33.8573 82.2754 33.8673 82.0404 33.8763L82.04 33.8763C81.8494 33.8836 81.6769 33.8903 81.5696 33.8903C81.44 33.8903 81.2396 33.8831 81.0257 33.8754C80.7807 33.8667 80.5181 33.8573 80.3237 33.8573C80.1704 33.8573 80.0936 33.8792 80.0936 33.9452C80.0936 34.0333 80.1511 34.0552 80.2469 34.0552C80.362 34.0552 80.4866 34.0663 80.5921 34.0993C80.8029 34.1542 80.8988 34.3411 80.918 34.7151C80.937 35.067 80.937 35.3751 80.937 37.0466V38.9822C80.937 40.0491 80.937 40.9179 80.8892 41.3796C80.8605 41.6987 80.8029 41.8856 80.6111 41.9297C80.525 41.9516 80.41 41.9736 80.2662 41.9736C80.1511 41.9736 80.1128 42.0066 80.1128 42.0615C80.1128 42.1385 80.1799 42.1715 80.3045 42.1715C80.5226 42.1715 80.8119 42.1609 81.0615 42.1516C81.2507 42.1447 81.4171 42.1385 81.5121 42.1385C81.613 42.1385 81.7664 42.1436 81.9535 42.1497L81.9537 42.1497H81.9538C82.1762 42.157 82.4461 42.1658 82.7321 42.1696C82.7486 42.1709 82.7668 42.1715 82.7866 42.1715C82.8174 42.1715 82.8483 42.1713 82.8791 42.1711C82.9216 42.1714 82.9643 42.1715 83.0072 42.1715C83.0252 42.1715 83.0424 42.1706 83.0585 42.1686ZM83.0585 42.1686C82.9992 42.1698 82.9391 42.1706 82.8791 42.1711C82.8297 42.1708 82.7807 42.1703 82.7321 42.1696C82.6452 42.1628 82.6045 42.1356 82.6045 42.0614C82.6045 41.9954 82.6428 41.9735 82.7196 41.9735C82.7625 41.9735 82.8172 41.9708 82.8708 41.9667C82.9299 41.971 82.9868 41.9736 83.0359 41.9736C83.1415 41.9736 83.1893 42.0066 83.1893 42.0615C83.1893 42.1254 83.1366 42.159 83.0585 42.1686ZM85.3268 38.6742C85.317 38.7182 85.3268 38.7512 85.365 38.7512H87.1285C87.1765 38.7512 87.186 38.7182 87.1765 38.6852L86.3138 35.9687L86.3118 35.9591C86.3028 35.9172 86.2927 35.8698 86.266 35.8698C86.2372 35.8698 86.218 35.9249 86.2085 35.9687L85.3268 38.6742ZM73.184 36.0571H73.1552L73.2605 40.676C73.2798 41.5341 73.4043 41.8198 73.5961 41.8969C73.759 41.9629 73.9411 41.9737 74.0944 41.9737C74.1998 41.9737 74.2573 41.9957 74.2573 42.0617C74.2573 42.15 74.171 42.1717 74.0369 42.1717C73.6327 42.1717 73.3294 42.1578 73.1164 42.1481H73.1163C73.0011 42.1428 72.9124 42.1387 72.8485 42.1387C72.8231 42.1387 72.7662 42.1416 72.6859 42.1456L72.6856 42.1456C72.4928 42.1553 72.1651 42.1717 71.8135 42.1717C71.6889 42.1717 71.6026 42.1606 71.6026 42.0617C71.6026 41.9957 71.6601 41.9737 71.7559 41.9737C71.8805 41.9737 72.0531 41.9629 72.1872 41.9188C72.4363 41.8311 72.4748 41.5118 72.4843 40.5551L72.5706 34.0444C72.5706 33.8244 72.5994 33.6705 72.6952 33.6705C72.7794 33.6705 72.8514 33.7618 72.9601 33.8995C72.9874 33.9341 73.017 33.9716 73.0497 34.0114C73.1647 34.1544 74.6215 35.947 76.021 37.5417C76.3951 37.9711 76.9811 38.6761 77.443 39.232C77.7856 39.6442 78.06 39.9744 78.1294 40.0493H78.1774L78.0814 35.1113C78.0719 34.4403 77.9856 34.2315 77.7556 34.1214C77.6118 34.0554 77.3818 34.0554 77.2476 34.0554C77.1326 34.0554 77.0943 34.0224 77.0943 33.9564C77.0943 33.8685 77.1997 33.8574 77.3435 33.8574C77.6483 33.8574 77.9387 33.8698 78.1644 33.8794C78.3077 33.8855 78.425 33.8904 78.5031 33.8904C78.537 33.8904 78.5977 33.887 78.6801 33.8824L78.6802 33.8824L78.6803 33.8824C78.854 33.8726 79.1239 33.8574 79.4424 33.8574C79.5669 33.8574 79.6629 33.8685 79.6629 33.9564C79.6629 34.0224 79.6054 34.0554 79.4903 34.0554C79.3945 34.0554 79.3178 34.0554 79.2027 34.0884C78.9345 34.1763 78.8578 34.4073 78.8482 35.0232L78.7427 41.9629C78.7427 42.2049 78.7044 42.3037 78.6181 42.3037C78.5128 42.3037 78.3978 42.1828 78.2922 42.0617C77.9343 41.6705 77.3574 41.0048 76.7392 40.2916L76.7389 40.2912L76.7347 40.2864C76.3116 39.7982 75.8693 39.288 75.465 38.8285C74.6358 37.8857 73.7945 36.8251 73.3965 36.3232L73.3956 36.3221C73.2926 36.1923 73.2194 36.1 73.184 36.0571ZM64.9702 36.0568H64.9416L65.0469 40.6758C65.0662 41.5339 65.1907 41.8196 65.3824 41.8966C65.5452 41.9626 65.7273 41.9735 65.8808 41.9735C65.9862 41.9735 66.0437 41.9954 66.0437 42.0614C66.0437 42.1497 65.9574 42.1715 65.8233 42.1715C65.419 42.1715 65.1156 42.1576 64.9026 42.1478H64.9025H64.9025C64.7873 42.1425 64.6987 42.1385 64.6348 42.1385C64.6095 42.1385 64.5528 42.1413 64.4727 42.1453C64.28 42.155 63.9518 42.1715 63.5997 42.1715C63.4751 42.1715 63.3888 42.1604 63.3888 42.0614C63.3888 41.9954 63.4463 41.9735 63.5422 41.9735C63.6667 41.9735 63.8393 41.9626 63.9736 41.9186C64.2227 41.8308 64.261 41.5116 64.2706 40.5549L64.3568 34.0441C64.3568 33.8242 64.3856 33.6703 64.4814 33.6703C64.5658 33.6703 64.6378 33.7616 64.7466 33.8994C64.7739 33.934 64.8034 33.9714 64.8361 34.0111C64.9511 34.1542 66.4079 35.9468 67.8072 37.5414C68.1806 37.9699 68.7648 38.6728 69.2263 39.2281L69.227 39.229L69.228 39.2301C69.5712 39.643 69.8463 39.974 69.9158 40.0491H69.9636L69.8678 35.111C69.8583 34.4401 69.772 34.2312 69.5419 34.1212C69.3982 34.0552 69.1681 34.0552 69.034 34.0552C68.9188 34.0552 68.8805 34.0222 68.8805 33.9562C68.8805 33.8683 68.986 33.8572 69.1299 33.8572C69.4345 33.8572 69.7249 33.8695 69.9505 33.8791C70.094 33.8852 70.2113 33.8902 70.2895 33.8902C70.3234 33.8902 70.3839 33.8868 70.4662 33.8822C70.6398 33.8724 70.91 33.8572 71.2288 33.8572C71.3533 33.8572 71.4491 33.8683 71.4491 33.9562C71.4491 34.0222 71.3916 34.0552 71.2767 34.0552C71.1808 34.0552 71.1042 34.0552 70.9891 34.0882C70.7207 34.1761 70.6442 34.4071 70.6345 35.0229L70.5291 41.9626C70.5291 42.2046 70.4908 42.3034 70.4045 42.3034C70.299 42.3034 70.184 42.1825 70.0786 42.0614C69.7207 41.6703 69.1438 41.0047 68.5257 40.2915L68.525 40.2907L68.5243 40.2899C68.1002 39.8006 67.6568 39.289 67.2514 38.8282C66.422 37.8854 65.5807 36.8247 65.1827 36.3229L65.1825 36.3227L65.1819 36.322C65.0789 36.1921 65.0057 36.0998 64.9702 36.0568ZM58.2925 41.3245C58.3474 40.8626 58.3474 39.994 58.3474 38.9821V37.0464C58.3474 35.3749 58.3474 35.0669 58.3255 34.715C58.3035 34.341 58.2157 34.1651 57.8532 34.0881C57.7654 34.0661 57.5787 34.0551 57.425 34.0551C57.3042 34.0551 57.2383 34.0331 57.2383 33.9561C57.2383 33.879 57.3151 33.8571 57.4798 33.8571C57.631 33.8571 57.7879 33.86 57.9417 33.8628C58.0896 33.8655 58.2348 33.8682 58.3694 33.8682L58.5118 33.8737C58.7379 33.8825 58.9336 33.8901 59.0612 33.8901C59.4126 33.8901 61.5981 33.8901 61.8068 33.879C62.0154 33.8571 62.1911 33.8352 62.2789 33.813C62.3001 33.8088 62.323 33.8013 62.3463 33.7937C62.3832 33.7816 62.421 33.7692 62.4547 33.7692C62.5097 33.7692 62.5205 33.813 62.5205 33.8682C62.5205 33.8931 62.5147 33.9239 62.5058 33.9715L62.5058 33.9715L62.5058 33.9716C62.4871 34.0704 62.4549 34.2415 62.4327 34.583C62.4288 34.6224 62.4234 34.7098 62.4171 34.8119C62.4059 34.9946 62.3919 35.2242 62.3778 35.3089C62.3669 35.3638 62.3449 35.4298 62.268 35.4298C62.1911 35.4298 62.1691 35.3749 62.1691 35.2759C62.1691 35.1988 62.1582 35.0119 62.1033 34.8799C62.0263 34.682 61.9166 34.55 61.3675 34.484C61.1809 34.4621 60.0277 34.4399 59.808 34.4399C59.7532 34.4399 59.7312 34.4729 59.7312 34.55V37.3325C59.7312 37.4093 59.7421 37.4534 59.808 37.4534C60.0496 37.4534 61.3126 37.4534 61.5651 37.4313C61.8287 37.4093 61.9935 37.3763 62.0922 37.2665L62.107 37.2495C62.175 37.1714 62.2166 37.1234 62.268 37.1234C62.3119 37.1234 62.3449 37.1454 62.3449 37.2114C62.3449 37.2336 62.3399 37.2685 62.3316 37.3264V37.3264C62.3153 37.4401 62.2861 37.6428 62.2569 38.0143C62.252 38.1143 62.2425 38.2598 62.2335 38.396L62.2335 38.3961C62.2228 38.5593 62.213 38.7091 62.213 38.7511C62.213 38.8392 62.213 38.9601 62.1143 38.9601C62.0374 38.9601 62.0154 38.9163 62.0154 38.8611C62.0123 38.8295 62.01 38.7952 62.0076 38.7589C62.0017 38.6689 61.9949 38.567 61.9715 38.4652C61.9166 38.2451 61.7629 38.0803 61.3565 38.0363C61.1478 38.0143 60.0607 38.0033 59.7971 38.0033C59.7421 38.0033 59.7312 38.0473 59.7312 38.1133V38.9821C59.7312 39.0903 59.7303 39.2522 59.7292 39.4352V39.4354V39.4357C59.7267 39.8844 59.7234 40.4602 59.7312 40.6868C59.7532 41.4455 59.9288 41.6106 61.049 41.6106C61.3345 41.6106 61.7957 41.6106 62.0813 41.4786C62.3669 41.3465 62.4986 41.1155 62.5755 40.6646C62.5975 40.5437 62.6194 40.4997 62.6964 40.4997C62.7842 40.4997 62.7842 40.588 62.7842 40.6978C62.7842 40.9507 62.6964 41.6985 62.6414 41.9185C62.5645 42.2045 62.4656 42.2045 62.0483 42.2045C61.3992 42.2045 60.8866 42.1908 60.4672 42.1796L60.4657 42.1795C60.3535 42.1765 60.2481 42.1737 60.1485 42.1714C59.6762 42.1496 59.3359 42.1384 59.0064 42.1384C58.8856 42.1384 58.6439 42.1384 58.3805 42.1496C58.2498 42.1496 58.1103 42.1554 57.9756 42.161C57.85 42.1663 57.7286 42.1714 57.6226 42.1714C57.4798 42.1714 57.4031 42.1384 57.4031 42.0613C57.4031 42.0064 57.447 41.9734 57.5787 41.9734C57.7434 41.9734 57.8752 41.9514 57.974 41.9295C58.1938 41.8855 58.2486 41.6434 58.2925 41.3245ZM52.653 41.3246C52.7059 40.8627 52.7059 39.9941 52.7059 38.9821V34.473L51.129 34.5171C50.5153 34.539 50.2614 34.5939 50.1026 34.836C49.9967 35.0009 49.9438 35.1329 49.9227 35.2208C49.9014 35.309 49.8698 35.3528 49.8063 35.3528C49.7321 35.3528 49.711 35.2979 49.711 35.177C49.711 35.0009 49.912 34.0002 49.9333 33.9121C49.9649 33.7692 49.9967 33.7032 50.0602 33.7032C50.0928 33.7032 50.1285 33.7195 50.1752 33.7408C50.2498 33.7748 50.3525 33.8216 50.5153 33.8352C50.8221 33.8682 51.2243 33.8902 51.5735 33.8902H55.7641C56.097 33.8902 56.3276 33.8583 56.4862 33.8364L56.4944 33.8352C56.5403 33.8257 56.5799 33.8171 56.6142 33.8096L56.6143 33.8096L56.6144 33.8096C56.6986 33.7913 56.75 33.7801 56.7802 33.7801C56.8542 33.7801 56.8647 33.8461 56.8647 34.0111C56.8647 34.1204 56.8576 34.348 56.8502 34.5878C56.8419 34.8545 56.8331 35.1363 56.8331 35.2868C56.8225 35.3969 56.8013 35.4629 56.7378 35.4629C56.6532 35.4629 56.6319 35.4079 56.6214 35.243L56.6108 35.1219C56.5897 34.836 56.304 34.5279 55.362 34.506L54.0286 34.473V38.9821C54.0286 39.9941 54.0286 40.8627 54.0815 41.3357C54.1133 41.6435 54.1768 41.8855 54.4942 41.9296C54.6425 41.9515 54.8753 41.9735 55.034 41.9735C55.1505 41.9735 55.2034 42.0065 55.2034 42.0614C55.2034 42.1384 55.1186 42.1714 55.0022 42.1714C54.5794 42.1714 54.1682 42.1593 53.8437 42.1498H53.8436H53.8435H53.8434H53.8433C53.6321 42.1436 53.4577 42.1384 53.3409 42.1384C53.2358 42.1384 53.0521 42.1446 52.8431 42.1516C52.5675 42.1608 52.2482 42.1714 52.0075 42.1714C51.8698 42.1714 51.7958 42.1384 51.7958 42.0614C51.7958 42.0065 51.8381 41.9735 51.9651 41.9735C52.1239 41.9735 52.2508 41.9515 52.346 41.9296C52.5577 41.8855 52.6212 41.6435 52.653 41.3246ZM43.0887 36.0568H43.0591L43.1678 40.6758C43.1876 41.5339 43.3161 41.8196 43.5137 41.8966C43.6818 41.9626 43.8695 41.9735 44.0276 41.9735C44.1364 41.9735 44.1958 41.9954 44.1958 42.0614C44.1958 42.1497 44.1068 42.1715 43.9684 42.1715C43.5514 42.1715 43.2385 42.1576 43.0189 42.1478L43.0186 42.1478C42.9001 42.1425 42.8087 42.1385 42.7429 42.1385C42.7167 42.1385 42.6581 42.1413 42.5754 42.1453C42.3766 42.155 42.0382 42.1715 41.6753 42.1715C41.5468 42.1715 41.458 42.1604 41.458 42.0614C41.458 41.9954 41.5172 41.9735 41.6161 41.9735C41.7446 41.9735 41.9224 41.9626 42.0608 41.9186C42.3178 41.8308 42.3574 41.5116 42.3673 40.5549L42.4561 34.0441C42.4561 33.8242 42.4859 33.6703 42.5846 33.6703C42.6716 33.6703 42.7459 33.7616 42.858 33.8994L42.8581 33.8995L42.8591 33.9007C42.8869 33.9349 42.9171 33.9719 42.9503 34.0111C43.069 34.1542 44.5714 35.9468 46.0144 37.5414C46.4003 37.9709 47.0047 38.6761 47.4811 39.232L47.4813 39.2323L47.4814 39.2323L47.4815 39.2324C47.8345 39.6443 48.1172 39.9742 48.1887 40.0491H48.2382L48.1393 35.111C48.1294 34.4401 48.0404 34.2312 47.8032 34.1212C47.6549 34.0552 47.4177 34.0552 47.2794 34.0552C47.1609 34.0552 47.1213 34.0222 47.1213 33.9562C47.1213 33.8683 47.23 33.8572 47.3782 33.8572C47.6925 33.8572 47.992 33.8695 48.2248 33.8791C48.3726 33.8852 48.4935 33.8902 48.5741 33.8902C48.6091 33.8902 48.6716 33.8868 48.7564 33.8822H48.7564H48.7565C48.9356 33.8724 49.2142 33.8572 49.5428 33.8572C49.6713 33.8572 49.7702 33.8683 49.7702 33.9562C49.7702 34.0222 49.7108 34.0552 49.5922 34.0552C49.4933 34.0552 49.4143 34.0552 49.2957 34.0882C49.019 34.1761 48.9398 34.4071 48.93 35.0229L48.8212 41.9626C48.8212 42.2046 48.7817 42.3034 48.6927 42.3034C48.584 42.3034 48.4655 42.1825 48.3568 42.0614C47.9871 41.6697 47.3909 41.0027 46.7523 40.2883C46.3154 39.7995 45.8586 39.2884 45.441 38.8282C44.5865 37.886 43.7196 36.8262 43.3087 36.324C43.2016 36.1931 43.1255 36.1 43.0887 36.0568ZM37.1164 41.3245C37.1697 40.8626 37.1697 39.994 37.1697 38.9821V37.0464C37.1697 35.3749 37.1697 35.0669 37.1484 34.715C37.127 34.341 37.0415 34.1651 36.6891 34.0881C36.6036 34.0661 36.4221 34.0551 36.2725 34.0551C36.1549 34.0551 36.0909 34.0331 36.0909 33.9561C36.0909 33.879 36.1656 33.8571 36.3259 33.8571C36.4728 33.8571 36.6253 33.86 36.7749 33.8628C36.9189 33.8655 37.0602 33.8682 37.1911 33.8682L37.3294 33.8736L37.3296 33.8737C37.5496 33.8825 37.74 33.8901 37.864 33.8901C38.2059 33.8901 40.3317 33.8901 40.5348 33.879C40.7376 33.8571 40.9087 33.8352 40.9941 33.813C41.0147 33.8088 41.0369 33.8013 41.0595 33.7937L41.0596 33.7937C41.0954 33.7816 41.1322 33.7692 41.165 33.7692C41.2184 33.7692 41.2291 33.813 41.2291 33.8682C41.2291 33.8931 41.2235 33.9239 41.2147 33.9715L41.2147 33.9716L41.2147 33.9717C41.1966 34.0705 41.1653 34.2416 41.1437 34.583C41.1398 34.6223 41.1346 34.7096 41.1285 34.8115V34.8116L41.1285 34.8123C41.1176 34.995 41.1039 35.2243 41.0902 35.3089C41.0795 35.3638 41.0581 35.4298 40.9834 35.4298C40.9087 35.4298 40.8872 35.3749 40.8872 35.2759C40.8872 35.1988 40.8765 35.0119 40.8231 34.8799C40.7483 34.682 40.6415 34.55 40.1074 34.484C39.9258 34.4621 38.8041 34.4399 38.5906 34.4399C38.5371 34.4399 38.5157 34.4729 38.5157 34.55V37.3325C38.5157 37.4093 38.5264 37.4534 38.5906 37.4534C38.8256 37.4534 40.054 37.4534 40.2997 37.4313C40.556 37.4093 40.7163 37.3763 40.8125 37.2665L40.8266 37.2498C40.8928 37.1715 40.9334 37.1234 40.9834 37.1234C41.0261 37.1234 41.0581 37.1454 41.0581 37.2114C41.0581 37.2336 41.0532 37.2683 41.0452 37.326L41.0451 37.3262V37.3262C41.0293 37.4398 41.001 37.6425 40.9726 38.0143C40.9678 38.1132 40.9587 38.2566 40.9501 38.3914C40.9396 38.5564 40.9299 38.7087 40.9299 38.7511C40.9299 38.8392 40.9299 38.9601 40.8338 38.9601C40.7591 38.9601 40.7376 38.9163 40.7376 38.8611C40.7346 38.8302 40.7325 38.7966 40.7303 38.7611L40.7302 38.7609C40.7245 38.6704 40.718 38.5677 40.6949 38.4652C40.6415 38.2451 40.492 38.0803 40.0967 38.0363C39.8938 38.0143 38.8361 38.0033 38.5798 38.0033C38.5264 38.0033 38.5157 38.0473 38.5157 38.1133V38.9821C38.5157 39.0903 38.5148 39.2522 38.5138 39.4352V39.4353V39.4355C38.5113 39.8842 38.5082 40.4602 38.5157 40.6868C38.5371 41.4455 38.708 41.6106 39.7977 41.6106C40.0754 41.6106 40.524 41.6106 40.8018 41.4786C41.0795 41.3465 41.2077 41.1155 41.2826 40.6646C41.3038 40.5437 41.3253 40.4997 41.4 40.4997C41.4854 40.4997 41.4854 40.588 41.4854 40.6978C41.4854 40.9507 41.4 41.6985 41.3465 41.9185C41.2718 42.2045 41.1757 42.2045 40.7698 42.2045C40.1384 42.2045 39.6398 42.1908 39.232 42.1796H39.2318H39.2317C39.1221 42.1765 39.019 42.1737 38.9217 42.1714C38.4624 42.1496 38.1312 42.1384 37.8108 42.1384C37.6932 42.1384 37.4581 42.1384 37.2018 42.1496C37.0747 42.1496 36.939 42.1554 36.8081 42.161L36.8079 42.1611L36.8077 42.1611C36.6857 42.1663 36.5678 42.1714 36.4648 42.1714C36.3259 42.1714 36.251 42.1384 36.251 42.0613C36.251 42.0064 36.2937 41.9734 36.4221 41.9734C36.5822 41.9734 36.7104 41.9514 36.8065 41.9295C37.0203 41.8855 37.0737 41.6434 37.1164 41.3245ZM35.5397 42.0727C35.1325 42.2485 34.3585 42.3254 33.7068 42.3254C32.3117 42.3254 31.1406 41.9954 30.2139 41.1269C29.216 40.1809 28.9512 38.9492 28.9512 37.8825C28.9512 37.1346 29.1651 35.8368 30.1426 34.869C30.8758 34.1431 31.8433 33.7033 33.3605 33.7033C33.9919 33.7033 34.3687 33.7472 34.837 33.8132C35.0227 33.8396 35.1943 33.8762 35.3564 33.9107L35.3564 33.9107L35.3565 33.9107C35.5321 33.9481 35.6965 33.9831 35.8554 34.0003C35.9674 34.0111 36.0083 34.0663 36.0083 34.1322C36.0083 34.1669 36.0035 34.2085 35.9965 34.2697C35.9857 34.3637 35.9696 34.504 35.9572 34.737C35.9473 34.9137 35.9447 35.1475 35.9422 35.3665V35.3669C35.9396 35.5978 35.9372 35.8119 35.9267 35.9249C35.9165 36.0898 35.8961 36.1778 35.8045 36.1778C35.723 36.1778 35.7026 36.0898 35.7026 35.9357C35.6926 35.5949 35.5602 35.21 35.3056 34.9239C34.9694 34.5391 34.1752 34.2421 33.2383 34.2421C32.3523 34.2421 31.772 34.4841 31.3239 34.9239C30.5805 35.6609 30.387 36.7057 30.387 37.7724C30.387 40.3899 32.2301 41.6876 33.5947 41.6876C34.5011 41.6876 35.051 41.5776 35.4582 41.072C35.6315 40.8627 35.7637 40.5438 35.8045 40.3461C35.835 40.1698 35.8554 40.126 35.9369 40.126C36.0083 40.126 36.0285 40.2028 36.0285 40.2911C36.0285 40.4229 35.9063 41.3796 35.8045 41.7536C35.7537 41.9405 35.7128 41.9954 35.5397 42.0727ZM69.2957 50.059C69.2957 48.9965 69.2957 48.7989 69.3036 48.5765C69.3191 48.3293 69.3736 48.2304 69.5612 48.1975L69.5739 48.1951C69.6511 48.1803 69.6897 48.1729 69.7564 48.1729C69.8109 48.1729 69.85 48.1483 69.85 48.0987C69.85 48.0495 69.8032 48.0328 69.7015 48.0328C69.5793 48.0328 69.3799 48.0376 69.1964 48.0421L69.196 48.0421C69.0396 48.0459 68.8949 48.0495 68.8193 48.0495C68.7534 48.0495 68.643 48.0468 68.5111 48.0435H68.511C68.3158 48.0387 68.0736 48.0328 67.8593 48.0328C67.7579 48.0328 67.703 48.0495 67.703 48.0987C67.703 48.1483 67.7502 48.1729 67.8201 48.1729C67.9217 48.1729 68.0388 48.1811 68.0936 48.1975C68.3122 48.2634 68.3744 48.3376 68.39 48.5765C68.398 48.7989 68.398 48.9965 68.398 50.059V51.2944C68.398 51.9367 68.398 52.4885 68.3667 52.785C68.3432 52.9908 68.3043 53.1226 68.1636 53.1556C68.1013 53.1721 68.0232 53.1803 67.9217 53.1803C67.836 53.1803 67.8124 53.2215 67.8124 53.2544C67.8124 53.3039 67.8593 53.3287 67.9452 53.3287C68.1007 53.3287 68.3094 53.3206 68.4891 53.3137L68.4894 53.3137L68.4897 53.3137C68.6254 53.3085 68.7445 53.3039 68.8116 53.3039C68.8806 53.3039 69.001 53.3079 69.1452 53.3127H69.1453H69.1454C69.3606 53.3198 69.6287 53.3287 69.8577 53.3287C69.9358 53.3287 69.9905 53.3039 69.9905 53.2544C69.9905 53.2215 69.9514 53.1803 69.8969 53.1803C69.8109 53.1803 69.6549 53.1721 69.5612 53.1556C69.3892 53.1226 69.327 52.9908 69.3114 52.7933C69.2957 52.4885 69.2957 51.9367 69.2957 51.2944V50.6601H69.327L69.3971 50.7589C69.5456 50.9731 70.8648 52.5873 71.1615 52.8591C71.4582 53.1308 71.6846 53.2792 72.0516 53.3121C72.1997 53.3287 72.3246 53.3287 72.5276 53.3287H73.1287C73.2538 53.3287 73.2929 53.3039 73.2929 53.2544C73.2929 53.2133 73.2538 53.1803 73.199 53.1803C73.121 53.1803 72.9804 53.1803 72.7775 53.0897C72.4769 52.9615 72.2445 52.734 72.0029 52.4974C71.9495 52.4451 71.8957 52.3924 71.8406 52.3403C71.5755 52.0767 70.2248 50.5943 69.9828 50.2649C70.1935 50.0095 71.216 48.9883 71.4347 48.7741C71.7235 48.486 71.9423 48.3376 72.161 48.2553C72.2857 48.2058 72.4573 48.1729 72.5588 48.1729C72.6215 48.1729 72.6604 48.1483 72.6604 48.0987C72.6604 48.0495 72.6136 48.0328 72.5432 48.0328C72.4379 48.0328 72.2896 48.0369 72.1413 48.0411C71.993 48.0453 71.8446 48.0495 71.7391 48.0495C71.64 48.0495 71.4884 48.0448 71.3456 48.0404L71.3452 48.0404C71.2184 48.0365 71.0986 48.0328 71.0289 48.0328C70.9584 48.0328 70.9197 48.0495 70.9197 48.0987C70.9197 48.14 70.9507 48.1565 71.0133 48.1729C71.0757 48.1895 71.107 48.2388 71.107 48.3129C71.107 48.4269 70.9805 48.576 70.8076 48.7796L70.7634 48.8318C70.6515 48.9634 70.2975 49.3379 69.9632 49.6916L69.9625 49.6923C69.6907 49.9799 69.432 50.2536 69.327 50.3717H69.2957V50.059ZM62.1957 49.5153H62.2216C62.2742 49.5599 62.4114 49.6986 62.6041 49.8933C62.9459 50.2387 63.462 50.7603 63.9886 51.2447C64.7778 51.9779 65.7213 52.8427 66.1931 53.2628C66.2702 53.3369 66.3731 53.4109 66.502 53.4109C66.5618 53.4109 66.6219 53.3451 66.6219 53.1885L66.7076 48.7741C66.7162 48.3788 66.7763 48.2554 66.9824 48.1975C67.0767 48.1729 67.1368 48.1729 67.2137 48.1729C67.2996 48.1729 67.3423 48.14 67.3423 48.0987C67.3423 48.0411 67.274 48.0328 67.1708 48.0328C66.922 48.0328 66.7121 48.0404 66.5756 48.0453L66.575 48.0454C66.5095 48.0477 66.461 48.0495 66.4332 48.0495C66.3695 48.0495 66.2692 48.0469 66.1471 48.0438L66.1465 48.0438C65.9561 48.039 65.7128 48.0328 65.4726 48.0328C65.3612 48.0328 65.2837 48.0411 65.2837 48.0987C65.2837 48.14 65.3096 48.1729 65.4038 48.1729C65.507 48.1729 65.687 48.1729 65.7986 48.2141C65.9786 48.2799 66.0473 48.4035 66.0559 48.8318L66.133 51.9449H66.0988C66.0489 51.9008 65.8207 51.6787 65.5375 51.4033C65.1875 51.0627 64.7535 50.6404 64.4688 50.3718C63.5448 49.5054 62.5964 48.5806 62.263 48.2554C62.2002 48.1942 62.1593 48.1543 62.1443 48.14L62.1129 48.1098C61.9986 47.9995 61.9049 47.9092 61.8184 47.9092C61.7413 47.9092 61.6897 48.0082 61.6897 48.1483L61.6212 52.2992C61.6126 52.9086 61.5867 53.0979 61.3895 53.1474C61.3436 53.1584 61.291 53.1661 61.2376 53.1713C61.1998 53.1674 61.1595 53.1621 61.115 53.1555C60.9778 53.1308 60.7633 53.0403 60.4717 52.4061C60.2238 51.8577 59.7679 50.8289 59.36 49.9085L59.3593 49.9069L59.3588 49.9058C58.9769 49.0439 58.6373 48.2776 58.5504 48.0906C58.4732 47.9341 58.4386 47.8682 58.3273 47.8682C58.2501 47.8682 58.19 47.9506 58.1043 48.1483L56.1313 52.5543C55.9769 52.9085 55.8483 53.1226 55.5052 53.1721C55.4708 53.1721 55.4321 53.1741 55.3935 53.1762H55.3934C55.3721 53.1773 55.3508 53.1785 55.3302 53.1792C55.3136 53.1799 55.2975 53.1803 55.2822 53.1803C55.222 53.1803 55.1962 53.2132 55.1962 53.2544C55.1962 53.3121 55.2393 53.3286 55.3338 53.3286C55.6072 53.3286 55.8847 53.3167 56.055 53.3094L56.0552 53.3094C56.1305 53.3062 56.1848 53.3039 56.2084 53.3039C56.3275 53.3039 56.4738 53.3099 56.6215 53.3161H56.6216C56.7719 53.3223 56.9236 53.3286 57.0493 53.3286C57.1264 53.3286 57.1693 53.3121 57.1693 53.2544C57.1693 53.2132 57.1521 53.1803 57.0577 53.1803H56.946C56.7145 53.1803 56.6458 53.1062 56.6458 52.9826C56.6458 52.9002 56.6804 52.7274 56.7577 52.5543L57.1605 51.6154C57.1779 51.5741 57.1863 51.5661 57.2292 51.5661H59.0049C59.0392 51.5661 59.065 51.5741 59.0821 51.6154L59.6654 53.0238C59.6997 53.1062 59.6484 53.1721 59.5967 53.1803C59.5194 53.1885 59.5026 53.2132 59.5026 53.2544C59.5026 53.2995 59.5736 53.3035 59.6902 53.31L59.7255 53.3121C60.2943 53.3269 60.7943 53.3284 61.0833 53.3286L61.0979 53.3287L61.1278 53.3286L61.1751 53.3286C61.2367 53.3286 61.2868 53.3278 61.3277 53.326C61.51 53.322 61.6723 53.3143 61.7815 53.3092C61.8462 53.3061 61.8923 53.3039 61.9126 53.3039C61.9602 53.3039 62.0334 53.3069 62.1292 53.3108C62.3099 53.3181 62.5709 53.3287 62.8905 53.3287C62.9934 53.3287 63.0623 53.3121 63.0623 53.2544C63.0623 53.2133 63.0193 53.1803 62.9335 53.1803C62.8134 53.1803 62.6676 53.1721 62.5388 53.1308C62.393 53.0815 62.2987 52.9168 62.2817 52.3732L62.1957 49.5153ZM61.3277 53.326C61.2631 53.3274 61.1959 53.3284 61.1278 53.3286L61.0833 53.3286C60.9884 53.3277 60.9263 53.317 60.9263 53.2544C60.9263 53.2133 60.9779 53.1803 61.0462 53.1803C61.1035 53.1803 61.1711 53.1778 61.2376 53.1713C61.2948 53.1773 61.3464 53.1803 61.3982 53.1803C61.4667 53.1803 61.5009 53.205 61.5009 53.2544C61.5009 53.2995 61.4746 53.3195 61.3277 53.326ZM57.3838 51.1788C57.358 51.1788 57.341 51.1626 57.358 51.1296L58.0872 49.3589L58.0907 49.3481C58.0983 49.3237 58.1079 49.293 58.1301 49.293C58.1471 49.293 58.1559 49.334 58.1643 49.3589L58.8762 51.1378C58.8848 51.1626 58.8762 51.1788 58.8422 51.1788H57.3838ZM52.8632 50.6437C52.8632 50.6026 52.8806 50.5944 52.9063 50.5944H53.2321C53.5237 50.5944 53.7298 50.6684 53.8842 50.7755C54.4504 51.1461 54.5962 51.6978 54.5962 52.0191C54.5962 52.7934 54.0728 53.0074 53.6695 53.0074C53.498 53.0074 53.3266 52.9991 53.1292 52.925C52.889 52.8343 52.8632 52.6945 52.8632 52.2333V50.6437ZM52.8632 48.486C52.8632 48.4117 52.8806 48.3788 52.9319 48.3706C53.0092 48.3542 53.155 48.3542 53.2579 48.3542C53.91 48.3542 54.2016 48.9389 54.2016 49.4083C54.2016 49.746 54.0558 50.0013 53.8584 50.1495C53.7298 50.2483 53.5153 50.2729 53.2666 50.2729C53.0951 50.2729 52.9834 50.2649 52.9147 50.2483L52.9143 50.2482C52.8887 50.2399 52.8632 50.2316 52.8632 50.1741V48.486ZM51.8855 51.2944C51.8855 51.9367 51.8855 52.4885 51.8511 52.785C51.8255 52.9908 51.7824 53.1226 51.6282 53.1556C51.5595 53.1721 51.4738 53.1803 51.3622 53.1803C51.2677 53.1803 51.2421 53.2215 51.2421 53.2544C51.2421 53.3039 51.2935 53.3287 51.3879 53.3287C51.5403 53.3287 51.7259 53.3204 51.9039 53.3124L51.9111 53.3121C52.0177 53.3121 52.1182 53.3092 52.2004 53.3069C52.2571 53.3053 52.3051 53.3039 52.3402 53.3039C52.4603 53.3039 52.7261 53.3121 52.9834 53.3201C53.2408 53.3368 53.4979 53.345 53.584 53.345C54.9733 53.345 55.5909 52.5709 55.5909 51.8214C55.5909 50.9979 54.8191 50.4955 54.2015 50.3059C54.6302 50.0424 55.0506 49.6224 55.0506 49.0788C55.0506 48.7082 54.8105 48.0328 53.4466 48.0328C53.3302 48.0328 53.1647 48.0362 52.9834 48.0399H52.9831H52.9831C52.7636 48.0445 52.521 48.0495 52.3145 48.0495C52.2594 48.0495 52.1564 48.0471 52.0283 48.0441C51.8176 48.0392 51.5389 48.0328 51.2935 48.0328C51.1822 48.0328 51.1219 48.0495 51.1219 48.0987C51.1219 48.1483 51.1734 48.1729 51.2505 48.1729C51.3622 48.1729 51.4908 48.1811 51.5511 48.1975C51.791 48.2634 51.8597 48.3376 51.8769 48.5765C51.8855 48.7989 51.8855 48.9965 51.8855 50.059V51.2944ZM63.4512 23.1924L62.2068 19.3624L60.9624 23.1924H56.9353L60.1933 25.5594L58.9489 29.3893L62.2068 27.0223L65.4647 29.3893L64.2203 25.5594L67.4783 23.1924H63.4512Z" fill="white"/>
</svg>
