<svg width="172" height="56" viewBox="0 0 172 56" fill="none" xmlns="http://www.w3.org/2000/svg">
<path fill-rule="evenodd" clip-rule="evenodd" d="M135.637 55.3844L171.35 0.500092L84.1047 17.2543C84.0263 17.3841 83.9361 17.5314 83.8368 17.6937C83.4943 18.2533 83.0434 18.9901 82.5925 19.7963L166.58 3.61983L149.829 29.3866L150.068 29.5559C149.657 29.7512 149.336 29.8489 149.015 29.8489C148.666 29.8489 148.433 29.7333 148.317 29.6178C148.201 29.3867 148.084 29.1556 148.084 28.809C148.084 27.6535 149.247 26.0359 150.411 25.6892C150.411 25.1115 149.829 24.6493 149.015 24.6493C147.852 24.6493 146.223 25.5737 142.849 29.8489C143.896 28.0002 144.362 27.0758 144.362 26.0359C144.362 25.227 143.78 24.6493 142.617 24.6493C140.666 24.6493 139.44 26.1797 137.179 29.0021C136.879 29.3772 136.56 29.7752 136.219 30.1955C134.358 32.3909 132.031 34.8174 129.705 34.8174C129.007 34.8174 128.541 34.3552 128.541 33.6619C128.541 32.8531 128.89 31.8132 129.239 31.2354C132.147 30.8888 136.452 28.4623 136.452 25.9203C136.452 24.8804 135.754 24.4182 134.474 24.4182C132.962 24.4182 130.984 25.1115 129.007 26.9602C128.265 27.6102 127.344 28.4551 126.395 29.3244C124.815 30.7732 123.161 32.2898 122.143 33.0842C122.841 31.9287 123.074 30.7733 123.074 29.5022C123.074 28.7939 123.044 28.2062 123.014 27.6312C122.986 27.081 122.958 26.5418 122.958 25.9203V25.3426C123.539 25.227 124.121 24.7649 124.121 24.0716C124.121 23.4939 123.888 23.1472 123.19 23.1472C122.376 23.1472 121.678 23.725 121.329 24.996C120.282 26.1514 118.77 27.7691 117.374 29.1556C114.117 32.5064 111.79 34.5863 110.511 34.5863C110.162 34.5863 109.929 34.3552 109.929 34.0085C109.929 33.4726 110.83 31.9421 111.611 30.6165L111.79 30.3111C111.79 30.3111 112.605 28.9245 115.28 24.7649L112.139 24.996C112.041 25.1427 111.817 25.4345 111.583 25.7396L111.582 25.7413C111.264 26.1563 110.927 26.5961 110.86 26.7291C108.649 29.6178 104.578 34.7018 101.205 34.7018C100.158 34.7018 99.8087 34.1241 99.8087 33.4308C99.8087 32.622 100.158 31.8132 100.507 31.1199C104.694 30.5422 107.719 27.7691 107.719 25.8048C107.719 24.7649 107.137 24.3027 105.741 24.3027C101.903 24.3027 98.9944 28.1157 97.7148 30.4266C96.9005 30.1955 96.2026 29.7333 95.8536 28.9245C97.0168 26.9602 97.7148 25.3426 97.7148 24.7649C97.7148 24.4182 97.3658 24.1871 96.9005 24.1871C96.2026 24.1871 95.8536 24.5338 95.6209 24.8804C95.0393 25.5737 94.8066 26.8447 94.8066 28.3468C93.9923 30.5422 90.8515 34.7018 88.525 34.7018C88.0597 34.7018 87.9434 34.4707 87.9434 34.1241C87.9434 33.4308 88.7577 31.9287 90.2699 29.5022C90.3474 29.3867 90.593 28.9888 90.9204 28.4582C91.5753 27.3968 92.5577 25.8048 93.1781 24.8804L90.0373 24.996C89.6303 25.5735 89.2814 26.0933 88.9325 26.613C88.5837 27.1328 88.234 27.6537 87.827 28.2312C84.5699 32.8531 82.2434 34.7018 81.0801 34.7018C80.8475 34.7018 80.6148 34.5863 80.6148 34.2396C80.6148 34.0085 80.8475 33.5464 81.3128 32.8531C82.0925 31.4762 83.6465 29.1379 85.1099 26.9361C85.6113 26.1817 86.1021 25.4431 86.5474 24.7649L83.4066 24.8804C83.1135 25.2444 82.5894 25.9754 82.1545 26.582C81.8991 26.9382 81.6745 27.2514 81.5454 27.4224C77.125 32.9686 74.9148 34.5863 73.8679 34.5863C73.5189 34.5863 73.4025 34.3552 73.4025 34.0085C73.4025 33.0842 74.3332 31.4665 76.3107 28.1157C76.4062 27.9576 76.8241 27.2803 77.4308 26.2968L77.435 26.29L77.4363 26.2878C79.0477 23.6759 81.9833 18.9174 83.7556 15.9834L80.3821 16.2145C80.3821 16.2145 79.9168 16.9077 79.3352 17.9477C79.277 18.0054 79.248 18.0632 79.2189 18.121C79.1898 18.1787 79.1607 18.2365 79.1025 18.2943L34.2005 1.19348L25.3597 14.5968H24.7781C19.427 14.7124 16.2862 16.9077 16.4026 19.7964C16.4026 22.3384 18.4964 24.0716 22.8005 24.0716C25.825 24.0716 28.1515 23.2628 29.7801 22.2229C27.2209 25.9203 23.7311 31.0043 22.4515 33.0842L22.4044 33.1685C21.8449 34.1681 21.4046 34.9549 21.4046 35.7417C21.4046 37.1283 22.6842 37.8216 24.1964 37.8216C26.0577 37.8216 27.4536 36.5506 29.3148 34.2396L30.0128 33.4308C30.0128 33.4308 29.8964 33.893 29.8964 34.3552C29.8964 36.3195 31.0597 37.9371 34.7821 37.9371C39.7842 37.9371 44.4372 35.2795 49.0903 30.8888L50.0209 29.9644C48.5087 32.0443 47.927 33.4308 47.927 34.2396C47.927 35.3951 48.7413 35.9728 49.9046 35.9728C51.7658 35.9728 53.7434 34.5863 55.3719 32.9686L56.0699 32.2754C55.6046 33.1997 55.3719 33.893 55.3719 34.4707C55.3719 35.3951 55.9536 36.0884 57.2332 36.0884C59.5597 36.0884 61.6536 34.1241 63.5148 32.1598C63.2821 32.7375 63.0495 33.5464 63.0495 34.1241C63.0495 35.3951 63.8638 36.0884 65.1434 36.0884C66.8883 36.0884 68.5168 35.164 70.4944 32.9686C70.6203 32.781 70.7804 32.5933 70.9561 32.3873C71.1049 32.2128 71.265 32.0251 71.425 31.8132C71.076 32.5064 70.6107 33.4308 70.6107 34.3552C70.6107 35.3951 71.3087 36.0884 72.5883 36.0884C75.1059 36.0884 77.3397 33.6453 78.8632 31.9792C79.0292 31.7977 79.1867 31.6254 79.3352 31.4665L79.2441 31.6323C78.5971 32.809 78.1719 33.5821 78.1719 34.3552C78.1719 35.6262 79.1026 36.0884 80.1495 36.0884C82.5924 36.0884 84.8026 33.893 86.5474 31.8132C86.5 31.9232 86.4504 32.0353 86.4001 32.149C86.0805 32.8713 85.7332 33.6564 85.7332 34.3552C85.7332 35.5106 86.5475 36.0884 87.827 36.0884C89.1066 36.0884 90.6189 35.6262 92.2475 34.1241C93.876 32.7375 95.0393 31.2354 95.9699 29.7333C96.4352 30.4266 97.1332 30.8888 97.9475 31.1199C97.5985 31.9287 97.3658 32.7375 97.3658 33.4308C97.3658 34.9329 98.2964 35.9728 100.39 35.9728C103.996 35.9728 106.905 32.9686 108.766 31.0043C107.952 32.622 107.603 33.5464 107.603 34.2396C107.603 35.2795 108.417 35.9728 109.696 35.9728C112.023 35.9728 114.466 33.6619 116.56 31.5821C116.991 31.0822 117.822 30.2294 118.971 29.0508C119.681 28.3222 120.512 27.4691 121.445 26.4981C121.254 27.1651 121.062 28.1465 120.935 28.7941C120.908 28.9318 120.884 29.0543 120.864 29.1556C120.049 33.7775 118.77 35.2795 117.141 35.2795C116.393 35.2795 116.146 34.8482 115.917 34.4478C115.719 34.101 115.533 33.7775 115.047 33.7775C114.698 33.7775 114.349 34.1241 114.349 34.5863C114.349 35.3951 115.28 36.0884 116.909 36.0884C120.049 36.0884 122.376 34.2396 124.121 32.622L126.913 30.1955C126.215 31.2354 125.749 32.3909 125.749 33.6619C125.749 35.0485 126.68 36.0884 128.658 36.0884C132.496 36.0884 135.405 32.622 137.033 30.5422L137.208 30.3231C139.329 27.6603 140.9 25.6892 141.919 25.6892C142.152 25.6892 142.268 25.8048 142.268 26.0359C142.268 26.3922 142.06 26.7485 141.699 27.3696L141.698 27.3714C141.591 27.5555 141.47 27.7628 141.337 28.0002C139.618 30.9891 137.203 34.5698 136.479 35.6444L136.335 35.8573L139.476 35.7417C140.872 33.4308 144.943 28.2312 146.921 26.4981C146.456 27.1913 146.107 28.0002 146.107 28.6934C146.107 29.8489 146.921 30.5422 148.433 30.5422C149.247 30.5422 149.829 30.4266 150.411 30.08L150.252 29.6868L150.643 29.9643L151.109 30.8887C150.643 31.2353 149.713 31.6975 148.55 31.6975H148.433L134.59 52.958L68.6333 40.0168L4.88634 50.0693L20.8231 25.458C20.0088 25.3425 19.3108 25.1114 18.7292 24.7647L0.349609 52.958L68.517 42.2122L135.637 55.3844ZM150.252 29.6868L150.068 29.5559L150.131 29.5255L150.178 29.5022L150.252 29.6868ZM118.537 19.7962C118.537 20.8361 117.723 21.8761 116.676 21.8761C115.746 21.8761 115.28 21.2983 115.28 20.605C115.28 19.6807 116.095 18.5252 117.258 18.5252C117.956 18.5252 118.537 18.8719 118.537 19.7962ZM134.939 25.6891C134.939 27.5379 131.915 30.0799 129.472 30.4265C131.333 27.0757 133.078 25.227 134.474 25.1114C134.823 25.1114 134.939 25.3425 134.939 25.6891ZM100.972 30.4265C103.415 30.0799 106.439 27.6534 106.439 25.6891C106.439 25.3425 106.207 25.1114 105.858 25.1114C104.346 25.227 102.484 27.769 100.972 30.4265ZM36.1175 22.4756C34.9257 24.2608 33.5744 26.285 32.2231 28.2312C29.6639 32.0442 27.8027 34.7018 26.4068 35.8572C25.8252 36.3194 25.3599 36.5505 25.0109 36.5505C24.6619 36.5505 24.5456 36.3194 24.5456 36.0883C24.5456 35.8572 24.6619 35.395 25.2435 34.4707C25.9415 33.3152 35.5966 19.1031 36.4109 18.0631C36.9925 18.4098 37.6905 18.7564 38.3884 19.1031C37.7548 20.023 36.9781 21.1864 36.1184 22.4742L36.1175 22.4756ZM36.876 25.1113L37.574 23.9558C39.7842 23.9558 41.5291 23.9558 42.6924 23.3781C45.4842 22.1071 46.8801 18.9874 46.8801 17.4853C46.8801 16.4453 46.4148 15.521 45.0189 15.521C42.925 15.521 40.9475 17.6008 39.7842 19.1029C40.8311 19.6806 41.6454 20.2584 42.1107 20.7205L41.7617 21.2983C41.3261 20.9377 40.8452 20.6221 40.3472 20.2954C40.0473 20.0986 39.7413 19.8978 39.4352 19.6806C38.563 20.7635 37.0551 23.0193 35.5356 25.2922C34.6231 26.6571 33.7065 28.0283 32.9209 29.1554C34.3168 28.231 36.0617 27.9999 37.225 27.9999V28.8088C33.1536 28.9243 30.7107 31.5819 30.7107 34.355C30.7107 35.8571 31.525 36.897 33.7352 36.897C38.8536 36.897 42.2271 31.4663 42.2271 27.9999C42.2271 26.3823 41.6454 24.9957 39.0862 24.9957H37.923C37.6504 24.9957 37.4177 25.0354 37.225 25.0682C37.0887 25.0915 36.9724 25.1113 36.876 25.1113ZM72.7046 25.3424C73.4026 25.3424 73.8679 25.8046 73.8679 26.3823C73.8679 26.4978 73.8679 26.7289 73.6352 26.8445C72.472 28.9243 70.8434 31.0041 69.4475 32.5062C67.9352 34.1239 66.8883 34.586 66.3067 34.586C65.725 34.586 65.6087 34.2394 65.6087 33.8928C65.6087 32.7373 67.1209 30.0798 68.5169 28.231C70.2618 26.1512 71.425 25.3424 72.7046 25.3424ZM27.9189 14.8278C28.3842 14.8278 28.9658 14.9434 29.4311 15.0589C31.2923 15.4056 32.8046 15.8677 34.2005 16.3299L34.8985 15.29L38.6209 15.1745C38.523 15.3042 38.4067 15.4703 38.2721 15.6627C37.9271 16.1555 37.4617 16.8206 36.876 17.4854L38.9699 18.5253C41.2964 15.6366 43.5066 14.2501 46.2985 14.2501C49.323 14.2501 50.4862 15.9833 50.4862 17.7165C50.4862 19.3341 49.5556 21.1829 48.3923 22.2228C46.8801 23.7249 44.7862 24.4181 43.1576 24.7648C44.0883 25.227 45.7168 26.0358 45.7168 28.6933C45.7168 30.8887 44.4372 32.9685 43.0413 34.5862C45.8332 32.9685 49.7883 29.2711 51.5332 27.0757C51.5941 26.995 51.6693 26.8966 51.7537 26.7861L51.7547 26.7848C52.1535 26.2629 52.7577 25.4721 53.0454 24.9959L56.3025 24.7648C56.3025 24.7648 52.1148 31.0043 51.1842 32.6219C51.0479 32.8926 50.9316 33.1138 50.8352 33.297C50.6026 33.7394 50.4862 33.9606 50.4862 34.124C50.4862 34.3551 50.6025 34.5862 50.9515 34.5862C52.2311 34.5862 54.674 32.5064 56.3025 30.1954C57.1168 29.1555 59.9087 24.9959 59.9087 24.9959L63.2821 24.7648C60.6066 28.9244 59.676 30.311 59.676 30.311C58.7454 31.6975 58.0474 32.9685 57.9311 33.6618C57.8148 33.8929 57.8148 34.0085 57.8148 34.124C57.8148 34.4706 57.9311 34.5862 58.2801 34.5862C60.2576 34.5862 63.7474 30.0799 64.7944 28.6933C66.7719 26.1513 69.3311 24.4181 72.0066 24.4181C73.1699 24.4181 73.9842 24.8803 74.3332 25.6891C74.5575 25.3178 74.8418 24.8629 75.1593 24.3552C75.8296 23.2831 76.6472 21.9752 77.3577 20.7207C77.474 20.4896 77.5903 20.374 77.7066 20.2585L35.0148 3.85096L27.9189 14.8278ZM18.4965 22.2228C17.9149 21.6451 17.6822 20.9518 17.6822 20.143C17.6822 17.4854 20.5904 15.5211 25.7087 15.29C29.0822 15.29 31.874 16.0988 33.8516 16.7921C33.7353 16.9077 31.7577 19.6808 31.7577 19.6808C30.8271 20.8362 28.2679 23.0316 24.0802 23.3782H22.3353L26.7557 16.561H25.7087C25.4017 16.561 25.0947 16.5932 24.8048 16.6236C24.5455 16.6508 24.2998 16.6766 24.0802 16.6766L19.8924 23.0316C19.3108 22.9161 18.8455 22.5694 18.4965 22.2228ZM141.803 54.2291C141.803 54.5757 141.686 54.9224 141.454 55.1535C141.221 55.3845 140.872 55.5001 140.523 55.5001C140.174 55.5001 139.825 55.3845 139.592 55.1535C139.36 54.9229 139.244 54.5774 139.243 54.2316C139.244 54.5768 139.36 54.8073 139.592 55.0378C139.825 55.2689 140.058 55.3845 140.407 55.3845C140.756 55.3845 140.988 55.2689 141.221 55.0378C141.454 54.8067 141.57 54.4601 141.57 54.229C141.57 53.8824 141.454 53.6513 141.221 53.4202C140.988 53.1891 140.756 53.0736 140.407 53.0736C140.058 53.0736 139.825 53.1891 139.592 53.4202C139.363 53.648 139.247 53.8756 139.243 54.2141C139.247 53.8725 139.363 53.5325 139.592 53.3047C139.825 53.0736 140.174 52.9581 140.523 52.9581C140.872 52.9581 141.221 53.0736 141.454 53.3047C141.686 53.5358 141.803 53.7669 141.803 54.2291ZM141.105 54.9223H140.756L140.523 54.3446H140.174V54.9223H139.825V53.3047H140.523C140.756 53.3047 140.872 53.3047 140.988 53.4202C141.105 53.5358 141.105 53.6513 141.105 53.7669C141.105 53.9979 140.988 54.1135 140.756 54.229L141.105 54.9223ZM140.523 54.1135H140.291V53.6513H140.639C140.756 53.6513 140.872 53.7669 140.872 53.8824C140.872 53.9979 140.756 54.1135 140.523 54.1135Z" fill="white"/>
</svg>
