<svg width="120" height="78" viewBox="0 0 120 78" fill="none" xmlns="http://www.w3.org/2000/svg">
<path fill-rule="evenodd" clip-rule="evenodd" d="M60.4783 0C64.1686 0 67.1595 2.35024 67.1595 5.25029C67.1595 8.14979 64.1686 10.5 60.4783 10.5C56.7879 10.5 53.7975 8.14979 53.7975 5.25029C53.7975 2.35024 56.7879 0 60.4783 0ZM37.521 5.94394C37.2099 5.62557 38.2613 4.04846 39.8711 2.42399C41.4808 0.798461 43.0382 -0.261894 43.3508 0.0564753C43.6614 0.374845 42.6089 1.95196 40.9992 3.57696C39.39 5.19985 37.8331 6.26126 37.521 5.94394ZM80.3007 3.7275C78.2738 2.12643 76.3925 1.17594 76.1045 1.60162C75.8171 2.02853 77.229 3.67112 79.2554 5.27157C81.2841 6.87265 83.1641 7.82375 83.4533 7.3987C83.7419 6.97055 82.3294 5.32796 80.3007 3.7275ZM4.06152 3C6.11139 3 7.77292 4.67922 7.77292 6.75027C7.77292 8.82132 6.11139 10.5 4.06152 10.5C2.01114 10.5 0.349609 8.82132 0.349609 6.75027C0.349609 4.67922 2.01114 3 4.06152 3ZM10.0001 22.5C12.05 22.5 13.7115 24.1787 13.7115 26.2497C13.7115 28.3208 12.05 30 10.0001 30C7.94971 30 6.28819 28.3208 6.28819 26.2497C6.28819 24.1787 7.94971 22.5 10.0001 22.5ZM34.1386 19.2837C34.8077 16.3985 34.513 13.8225 33.481 13.5278C32.448 13.2321 31.0694 15.331 30.4013 18.2144C29.7327 21.099 30.027 23.6762 31.0595 23.9726C32.0925 24.2666 33.4705 22.1665 34.1386 19.2837ZM15.9386 40.5001C17.989 40.5001 19.6505 42.179 19.6505 44.2501C19.6505 46.3212 17.989 48.0001 15.9386 48.0001C13.8888 48.0001 12.2272 46.3212 12.2272 44.2501C12.2272 42.179 13.8888 40.5001 15.9386 40.5001ZM33.6056 8.66826C34.1199 7.95805 34.6282 7.44315 35.0419 7.02411C35.7347 6.32246 36.162 5.88958 35.9076 5.25858C35.495 4.23567 32.9275 4.01579 31.0778 6.07485C29.2949 8.05921 30.1439 11.8376 31.1814 11.9846C31.9893 12.0996 32.2042 11.5619 32.5484 10.7006C32.7754 10.1324 33.0587 9.42346 33.6056 8.66826ZM27.2567 31.5446C27.2889 32.0931 27.3293 32.7818 27.5523 33.6099C27.7402 34.3081 27.9776 34.8657 28.1745 35.3283C28.5769 36.2735 28.8104 36.8222 28.1087 37.3637C27.3025 37.9875 24.2455 36.4091 24.1096 33.8751C23.9963 31.759 25.6354 29.7022 26.6076 30.0357C27.1797 30.2311 27.2092 30.7351 27.2567 31.5446ZM93.3129 18.8697C93.5087 19.701 93.5225 20.3874 93.5335 20.9339C93.5498 21.7397 93.5599 22.2415 94.1379 22.4558C95.1232 22.8233 96.8856 20.8385 96.8525 18.7314C96.8145 16.2076 93.7433 14.5286 92.8913 15.1183C92.1511 15.631 92.3689 16.1855 92.7438 17.1402C92.9271 17.6071 93.148 18.1696 93.3129 18.8697ZM88.3664 22.6141C90.3117 23.2124 91.3674 25.9959 90.7267 28.8327C90.0839 31.6706 87.9851 33.4842 86.0388 32.8859C85.6443 32.7646 85.2864 32.5536 84.9718 32.2706C85.0214 33.6676 84.5837 35.1305 83.6317 36.3845C81.5546 39.1213 77.814 39.8229 75.2754 37.9528C72.7373 36.0827 72.3644 32.3507 74.4415 29.6144C76.5186 26.8787 80.2608 26.1777 82.7994 28.0472C83.0543 28.2351 83.2874 28.4418 83.4983 28.6644C83.4687 28.0214 83.5251 27.3462 83.6785 26.6679C84.3208 23.8306 86.4191 22.0157 88.3664 22.6141ZM87.1154 12.3502C85.9801 9.94832 84.0995 8.51518 82.9169 9.15067C81.7352 9.78459 81.6983 12.2484 82.8341 14.6503C83.9705 17.0532 85.8506 18.4847 87.0332 17.8492C88.2148 17.2148 88.2528 14.7531 87.1154 12.3502ZM76.567 53.6993C78.7685 51.7105 79.6652 48.8914 78.5687 47.4003C77.4754 45.9091 74.802 46.3119 72.5984 48.3006C70.3974 50.2899 69.5003 53.1102 70.5957 54.5996C71.6921 56.0907 74.3634 55.6885 76.567 53.6993ZM67.6217 4.16824C68.89 2.49792 72.3685 2.63491 75.3911 4.47572C78.4136 6.31703 79.8422 9.16247 78.5745 10.8328C77.3068 12.5026 73.8277 12.3646 70.8035 10.5233C67.7826 8.68299 66.3552 5.83806 67.6217 4.16824ZM46.7035 55.4702C48.7385 56.6477 50.5771 57.2779 50.8046 56.8815C51.0332 56.4834 49.5655 55.2079 47.5316 54.0298C45.495 52.8523 43.6564 52.2221 43.4284 52.6185C43.1992 53.0166 44.6669 54.2932 46.7035 55.4702ZM49.3438 19.4992C49.3438 16.1854 46.6856 13.5 43.4049 13.5C40.1257 13.5 37.4665 16.1854 37.4665 19.4992C37.4665 22.8142 40.1257 25.5001 43.4049 25.5001C46.6856 25.5001 49.3438 22.8142 49.3438 19.4992ZM34.9736 41.0348C36.0799 39.8603 38.757 40.6852 40.9536 42.8762C43.1514 45.0671 44.034 47.7946 42.9283 48.9674C41.8219 50.1385 39.1443 49.3147 36.9476 47.1232C34.751 44.9323 33.8683 42.2065 34.9736 41.0348ZM54.5134 29.9243C50.5066 26.2569 44.9454 26.0049 42.0905 29.3616C39.2345 32.7183 40.1681 38.4102 44.1749 42.0771C48.1818 45.7434 53.7414 45.9949 56.5969 42.6382C59.4518 39.2826 58.5203 33.5917 54.5134 29.9243ZM106.503 30C108.552 30 110.214 31.6789 110.214 33.75C110.214 35.8212 108.552 37.5 106.503 37.5C104.453 37.5 102.791 35.8212 102.791 33.75C102.791 31.6789 104.453 30 106.503 30ZM119.123 6.74978C119.123 4.6785 117.46 3.00004 115.411 3.00004C113.361 3.00004 111.699 4.6785 111.699 6.74978C111.699 8.82159 113.361 10.5001 115.411 10.5001C117.46 10.5001 119.123 8.82159 119.123 6.74978ZM116.154 19.5001C117.791 19.5001 119.123 20.843 119.123 22.5004C119.123 24.1578 117.791 25.5001 116.154 25.5001C114.515 25.5001 113.184 24.1578 113.184 22.5004C113.184 20.843 114.515 19.5001 116.154 19.5001ZM119.123 44.9998C119.123 43.3421 117.792 42.0001 116.154 42.0001C114.515 42.0001 113.184 43.3421 113.184 44.9998C113.184 46.6581 114.515 48.0001 116.154 48.0001C117.792 48.0001 119.123 46.6581 119.123 44.9998ZM96.8526 4.5C98.4905 4.5 99.822 5.84246 99.822 7.50001C99.822 9.15756 98.4905 10.5 96.8526 10.5C95.2142 10.5 93.8833 9.15756 93.8833 7.50001C93.8833 5.84246 95.2142 4.5 96.8526 4.5ZM6.28826 45C6.28826 43.3437 4.95858 42 3.31893 42C1.67929 42 0.349609 43.3437 0.349609 45C0.349609 46.6563 1.67929 48 3.31893 48C4.95858 48 6.28826 46.6563 6.28826 45ZM97.5955 40.5C99.6452 40.5 101.307 42.1799 101.307 44.25C101.307 46.3206 99.6452 48 97.5955 48C95.5462 48 93.8833 46.3206 93.8833 44.25C93.8833 42.1799 95.5462 40.5 97.5955 40.5ZM19.6502 16.5C19.6502 14.844 18.3201 13.5 16.6806 13.5C15.0411 13.5 13.7115 14.844 13.7115 16.5C13.7115 18.156 15.0411 19.5 16.6806 19.5C18.3201 19.5 19.6502 18.156 19.6502 16.5ZM18.1657 64.5001H10.7424V78.0002H18.1657V75.8836H12.7408V72.104H18.1614V70.0139H12.7408V66.4802H18.1657V64.5001ZM119.123 67.5001V69.0396H114.782V71.7889H119.119V73.4143H114.782V76.3542H119.123V78.0002H113.184V67.5001H119.123ZM30.0428 64.5H21.1349V66.4801H24.6248V78H26.5245V66.4801H30.0428V64.5ZM70.1286 67.5H77.5519V69.0404H74.6206V78H73.0377V69.0404H70.1286V67.5ZM90.914 67.5H83.4907V69.0404H86.3999V78H87.9822V69.0404H90.914V67.5ZM104.276 67.5H111.699V69.0404H108.768V78H107.185V69.0404H104.276V67.5ZM34.4969 64.5H33.0122V78H34.4969V64.5ZM44.8893 64.5H46.374V78H44.8893V64.5ZM82.0063 67.5001H80.5216V78.0002H82.0063V67.5001ZM50.8281 67.5H52.4315L56.7847 74.6801V67.5H58.2514V78H56.7794L52.3086 70.5456V78H50.8281V67.5ZM95.3639 67.5H93.8833V74.1363C93.8833 74.9127 93.9803 75.5312 94.1758 75.9911C94.3718 76.4511 94.6151 76.8285 94.9081 77.1255C95.1202 77.3361 95.385 77.5068 95.7027 77.637C96.3003 77.8781 96.9456 78 97.6372 78C98.8374 78 99.7491 77.6614 100.371 76.9831C100.994 76.3065 101.307 75.3389 101.307 74.0831V67.5H99.8089L99.9285 73.786C99.9285 74.3286 99.7657 74.9343 99.5561 75.2624C99.3031 75.6573 98.9482 75.8574 98.6726 76.0128L98.6424 76.0299C98.3609 76.1862 97.9216 76.2649 97.5583 76.2649C97.312 76.2649 96.1887 76.0715 95.8585 75.6797C95.5288 75.2901 95.3639 74.5702 95.3639 73.786V67.5ZM0.351512 75.8169C1.76675 75.8561 2.23076 75.8558 2.99935 75.8553L3.29357 75.8551C3.98876 75.8551 4.61848 75.7026 5.11352 75.2552C5.60857 74.8072 5.64317 74.453 5.64317 73.8416C5.64317 73.4542 5.5564 73.3313 5.2796 72.9428C5.0028 72.5605 4.49338 72.3291 3.49744 71.9743C2.75008 71.716 2.172 71.4497 1.75999 71.1777C1.34799 70.9046 1.01051 70.5446 0.747015 70.0961C0.484056 69.6475 0.361625 69.1304 0.351512 68.5419C0.328622 67.2203 0.505348 66.3558 1.26175 65.6644C2.01816 64.9713 2.57389 64.6244 3.98876 64.5273C4.59265 64.4863 5.11434 64.4993 5.78991 64.516H5.79007C6.14167 64.5247 6.53496 64.5344 7.00321 64.5382V66.5055C5.82841 66.4317 5.33869 66.4317 4.53757 66.4317C3.93659 66.4317 3.16156 66.6346 2.76765 66.986C2.37374 67.3351 2.30348 67.7722 2.30348 68.2911C2.30348 68.6887 2.44454 68.9264 2.72773 69.2601C2.99448 69.5828 3.58009 69.7882 4.48599 70.106L4.58973 70.1424C5.69586 70.5321 6.50337 71.1286 7.01066 71.6731C7.51954 72.2182 7.77292 73.221 7.77292 74.1547C7.77292 75.2763 7.34335 76.23 6.48314 77.0237C5.62347 77.815 5.0012 77.9282 3.58421 77.983C2.98456 78.0061 2.58801 78.0013 1.97173 77.9939C1.56663 77.989 1.06659 77.983 0.351512 77.983V75.8169ZM63.3604 76.3322C62.7343 76.3325 62.3693 76.3327 61.2225 76.3023V77.9869C61.7954 77.9869 62.1956 77.9916 62.5194 77.9954C63.0115 78.0012 63.3273 78.0049 63.8056 77.9869C64.9404 77.9444 65.4378 77.8566 66.127 77.2407C66.8152 76.6232 67.1596 75.8814 67.1596 75.0098C67.1596 74.2835 66.9556 73.5036 66.5482 73.0799C66.1429 72.6557 65.4961 72.1918 64.6109 71.8891L64.5209 71.8583C63.8003 71.6115 63.3339 71.4519 63.1227 71.2025C62.8965 70.944 62.7842 70.7584 62.7842 70.4491C62.7842 70.0448 62.8398 69.7051 63.1535 69.4334C63.4671 69.16 64.0869 69.0031 64.5695 69.0031C65.2105 69.0031 65.6026 69.0031 66.5434 69.06V67.5289C66.1638 67.5264 65.8457 67.5189 65.5613 67.5121C65.0256 67.4995 64.6098 67.4896 64.1288 67.5217C62.9993 67.5974 62.5575 67.8664 61.9509 68.406C61.3459 68.944 61.2039 69.6162 61.2225 70.6436C61.2309 71.102 61.3279 71.5041 61.5393 71.8526C61.7501 72.2017 62.0203 72.4812 62.3503 72.6938C62.6793 72.9048 63.1397 73.112 63.7362 73.313C64.534 73.5881 64.942 73.7687 65.1639 74.0658L65.1655 74.068C65.3841 74.369 65.4537 74.4648 65.4537 74.7668C65.4537 75.2412 65.4262 75.5168 65.031 75.8648C64.6326 76.2139 64.1288 76.3321 63.573 76.3321C63.4983 76.3321 63.4278 76.3321 63.3604 76.3322Z" fill="white"/>
</svg>
