<svg width="234" height="58" viewBox="0 0 234 58" fill="none" xmlns="http://www.w3.org/2000/svg">
<path d="M135.598 30.8009C135.598 25.2701 133.23 20.3833 125.223 20.3833C121.115 20.3833 117.851 21.5542 116.082 22.5791L117.379 27.0164C119.008 25.9943 121.607 25.1527 124.061 25.1527C128.114 25.147 128.779 27.44 128.779 28.9144V29.2694C119.93 29.255 114.336 32.3125 114.336 38.539C114.336 42.3436 117.176 45.9106 122.14 45.9106C125.169 45.9106 127.728 44.6882 129.257 42.7587H129.405C129.405 42.7587 130.413 46.9755 135.987 45.3638C135.704 43.5975 135.598 41.7367 135.598 39.4751V30.8009ZM128.996 36.641C128.996 37.0876 128.959 37.5513 128.827 37.9492C128.318 39.6526 126.56 41.0782 124.373 41.0782C122.526 41.0782 121.078 40.0333 121.078 37.8433C121.078 34.4939 124.776 33.5721 128.996 33.595" fill="white"/>
<path d="M0.123047 12.858C0.123047 12.858 5.90291 36.5044 6.8219 40.3348C7.904 44.8121 9.8421 46.4668 15.436 45.3646L19.0488 30.7016C19.962 27.0687 20.5831 24.4636 21.1729 20.7621H21.2731C21.6824 24.5008 22.2722 27.0687 23.0194 30.713C23.0194 30.713 24.4937 37.3747 25.2581 40.8644C26.0024 44.3541 28.0979 46.5556 33.5859 45.3646L42.1856 12.858H35.2434L32.2919 26.9199C31.5104 30.9936 30.8003 34.2027 30.2478 37.9358H30.1476C29.6496 34.2428 29.0169 31.1653 28.2039 27.1747L25.1465 12.858H17.9037L14.6401 26.8082C13.7096 31.068 12.8394 34.4833 12.2926 38.099H12.1981C11.6342 34.7066 10.8699 30.3867 10.0596 26.2872C10.0596 26.2872 8.12154 16.299 7.43739 12.858" fill="white"/>
<path d="M61.5331 30.8009C61.5331 25.2701 59.1597 20.3833 51.1526 20.3833C47.056 20.3833 43.7868 21.5542 42.0176 22.5791L43.3144 27.0164C44.9376 25.9943 47.5342 25.1527 49.9961 25.1527C54.0498 25.147 54.7139 27.44 54.7139 28.9144V29.2694C45.8652 29.255 40.2656 32.3125 40.2656 38.539C40.2656 42.3436 43.1169 45.9106 48.058 45.9106C51.1153 45.9106 53.6519 44.6882 55.1806 42.7587H55.3351C55.3351 42.7587 56.3485 46.9755 61.9166 45.3638C61.6304 43.5975 61.5331 41.7367 61.5331 39.4751V30.8009ZM54.9258 36.641C54.9258 37.0876 54.8886 37.5513 54.7626 37.9492C54.2472 39.6526 52.4896 41.0782 50.2967 41.0782C48.4616 41.0782 47.0074 40.0333 47.0074 37.8433C47.0074 34.4939 50.706 33.5721 54.9258 33.595" fill="white"/>
<path d="M65.1348 12.8581V45.3533H71.742V38.4627V12.8581H65.1348Z" fill="white"/>
<path d="M155.877 12.8581V36.8337C155.877 40.1431 156.498 42.4505 157.835 43.8647C159.009 45.1043 160.93 45.9116 163.217 45.9116C165.181 45.9116 167.102 45.5337 168.009 45.2045L167.929 40.0429C167.251 40.2003 166.475 40.3349 165.41 40.3349C163.154 40.3349 162.41 38.9064 162.41 35.9348V26.7568H168.164V20.5475H162.41V12.8581" fill="white"/>
<path d="M138.799 20.9473V45.3638H145.629V32.8592C145.629 32.1865 145.672 31.6053 145.778 31.0671C146.288 28.4305 148.289 26.7615 151.172 26.7615C151.976 26.7615 152.523 26.8503 153.13 26.9448V20.5436C152.62 20.452 152.274 20.4034 151.647 20.4034C149.09 20.4034 146.193 22.0265 144.971 25.5621H144.802V20.9473" fill="white"/>
<path d="M75.5781 20.9473V45.3638H82.2339V31.0328C82.2339 30.36 82.3083 29.673 82.546 29.0518C83.0871 27.6003 84.4297 25.9199 86.5854 25.9199C89.2648 25.9199 90.5302 28.1815 90.5302 31.445V45.3638H97.1691V30.861C97.1691 30.2284 97.2578 29.4525 97.4437 28.8914C97.9763 27.2454 99.4306 25.9199 101.44 25.9199C104.148 25.9199 105.46 28.1328 105.46 31.9804V45.3638H112.093V30.9669C112.093 23.4035 108.245 20.4034 103.876 20.4034C101.956 20.4034 100.427 20.8757 99.0526 21.7231C97.8903 22.4359 96.8713 23.4407 95.958 24.7548H95.8579C94.8073 22.1267 92.3395 20.4034 89.116 20.4034C84.9822 20.4034 83.1042 22.4903 81.9992 24.2538H81.899V20.9473" fill="white"/>
<path d="M203.91 19.8514C205.216 19.8514 206.315 19.1701 206.458 18.2941L207.752 3.63672C207.752 2.1853 206.043 0.997253 203.91 0.997253C201.766 0.997253 200.068 2.1853 200.068 3.63672L201.374 18.2941C201.511 19.1701 202.605 19.8514 203.91 19.8514Z" fill="white"/>
<path d="M195.971 24.4378C196.618 23.2927 196.581 22.0217 195.882 21.4549L183.801 13.0068C182.545 12.274 180.664 13.1471 179.587 14.9965C178.514 16.8429 178.731 18.9156 179.962 19.6341L193.337 25.8349C194.193 26.1555 195.313 25.5601 195.971 24.4264" fill="white"/>
<path d="M211.847 24.4258C212.531 25.5594 213.651 26.1549 214.484 25.8514L227.858 19.6335C229.101 18.9006 229.287 16.848 228.236 15.0015C227.163 13.1522 225.271 12.2848 224.017 13.0033L211.933 21.4428C211.263 22.0182 211.214 23.295 211.861 24.4372" fill="white"/>
<path d="M203.91 38.1602C205.216 38.1602 206.315 38.8416 206.458 39.7176L207.752 54.3749C207.752 55.8263 206.043 57.0029 203.91 57.0029C201.766 57.0029 200.068 55.8263 200.068 54.3749L201.374 39.7176C201.511 38.8416 202.605 38.1602 203.91 38.1602Z" fill="white"/>
<path d="M211.847 33.5866C212.531 32.4501 213.651 31.8432 214.484 32.1724L227.858 38.3788C229.101 39.0974 229.287 41.1672 228.236 43.0165C227.163 44.8516 225.271 45.7247 224.017 45.0061L211.933 36.5553C211.263 35.9856 211.214 34.7145 211.861 33.5866" fill="white"/>
<path d="M195.971 33.5741C196.618 34.7163 196.581 35.9845 195.882 36.5571L183.801 44.9936C182.545 45.7265 180.664 44.8505 179.587 43.0155C178.514 41.169 178.731 39.0963 179.962 38.3778L193.337 32.1713C194.193 31.845 195.313 32.4461 195.971 33.5741Z" fill="white"/>
<path d="M231.772 43.72H231.938C232.164 43.72 232.256 43.7915 232.282 43.9719C232.33 44.1723 232.356 44.3068 232.405 44.3641H232.834C232.797 44.3212 232.748 44.2124 232.723 43.9604C232.674 43.7429 232.562 43.6198 232.405 43.5768V43.5368C232.622 43.4881 232.748 43.3421 232.748 43.1617C232.748 42.9986 232.674 42.8812 232.6 42.8068C232.456 42.738 232.319 42.6837 232.016 42.6837C231.746 42.6837 231.549 42.7066 231.391 42.7438V44.3641H231.772V43.72ZM231.784 42.9814L231.978 42.9556C232.207 42.9556 232.33 43.0615 232.33 43.2104C232.33 43.3764 232.164 43.4537 231.953 43.4537H231.784V42.9814ZM232.027 41.8821C231.088 41.8821 230.344 42.6149 230.344 43.5139C230.344 44.4357 231.088 45.1685 232.027 45.1685C232.977 45.1685 233.699 44.4357 233.699 43.5139C233.699 42.6149 232.977 41.8821 232.027 41.8821ZM232.027 42.2113C232.748 42.2113 233.284 42.7953 233.284 43.5139C233.284 44.2381 232.748 44.8393 232.027 44.8279C231.306 44.8279 230.759 44.2381 230.759 43.5139C230.759 42.7953 231.306 42.2113 232.016 42.2113" fill="white"/>
</svg>
