<svg width="300" height="40" viewBox="0 0 300 40" fill="none" xmlns="http://www.w3.org/2000/svg">
<g clip-path="url(#clip0_4047_13271)">
<path d="M40.8792 38.8993L34.842 24.2864L30.8628 14.7502L24.8256 0.205816C24.6884 -0.0686054 24.2081 -0.0686054 24.1395 0.205816L18.1022 14.8188L14.1231 24.3549L8.08586 38.9679C7.94863 39.2423 8.36025 39.4481 8.63465 39.311L15.6324 35.3318C21.5325 31.6958 23.179 29.2945 23.5221 23.6003C20.8465 23.7375 19.2685 24.6294 19.2685 24.6294C19.2685 24.6294 19.4743 23.0514 19.7487 22.7084C20.2976 22.0223 22.2186 19.827 22.2186 19.827C22.2186 19.827 23.7965 14.6816 24.2081 12.8978C24.2767 12.692 24.5512 12.692 24.6197 12.8978C25.0314 14.6129 26.6779 19.827 26.6779 19.827C26.6779 19.827 28.4617 22.0909 29.0105 22.7084C29.3535 23.0514 29.4907 24.6294 29.4907 24.6294C29.4907 24.6294 27.9814 23.8061 25.3058 23.6003C25.7175 29.2259 27.364 31.6271 33.1954 35.3318L40.1932 39.311C40.5362 39.4481 40.9479 39.1737 40.8792 38.8993Z" fill="white"/>
<path d="M15.4249 13.3779H0.400235C-0.0113981 13.3779 -0.148609 13.8581 0.194418 14.064L10.5539 21.2676C12.2689 22.228 15.0132 15.7791 15.7678 13.8581C15.8365 13.6523 15.6993 13.3779 15.4249 13.3779Z" fill="white"/>
<path d="M33.5371 13.3779H48.5617C48.9734 13.3779 49.1105 13.8581 48.7675 14.064L38.4081 21.3362C36.693 22.2967 33.9487 15.8477 33.1941 13.9268C33.0568 13.6523 33.2627 13.3779 33.5371 13.3779Z" fill="white"/>
<path d="M54.875 37.3213L56.0413 34.9201C57.7564 35.4003 60.0205 35.8806 62.4902 35.8806C67.087 35.8806 69.1451 34.8515 69.1451 32.1073C69.1451 30.7352 68.5961 29.9119 67.6354 29.3631C66.6063 28.7456 65.0973 28.334 62.8333 27.7166C60.3634 27.0305 58.3739 26.2759 57.0018 25.0409C55.6983 23.8746 54.9436 22.2281 54.9436 19.8269C54.9436 13.4466 60.2263 12.0059 65.9889 12.0059C68.3219 12.0059 71.34 12.2803 73.8104 12.7605L72.5749 15.0931C70.6542 14.6815 69.2135 14.4071 67.3612 14.4071C63.5193 14.4071 61.3926 15.2303 61.3926 17.9059C61.3926 19.278 61.8728 20.0328 62.7647 20.5816C63.7252 21.1991 65.2347 21.6106 67.2238 22.0909C69.9684 22.8456 72.0265 23.5316 73.3988 24.6979C74.8395 25.9328 75.5253 27.5107 75.5253 29.9119C75.5253 36.4294 69.5568 38.2818 63.8623 38.2818C61.0495 38.2818 57.825 38.0073 54.875 37.3213Z" fill="white"/>
<path d="M85.8153 38.0073H79.0234V20.7874H83.6204C84.7862 20.7874 85.8153 21.7479 85.8153 22.9827V38.0073ZM85.5411 22.7083C86.5701 21.2676 88.4915 20.4443 90.8922 20.4443C93.8426 20.4443 95.6259 21.542 96.3808 23.0513C97.9589 21.2676 100.085 20.4443 102.418 20.4443C106.123 20.4443 108.799 22.2281 108.799 26.6188V38.0073H104.202C103.036 38.0073 102.007 37.0469 102.007 35.8119V26.4816C102.007 24.3548 101.595 23.3258 99.3996 23.3258C98.5763 23.3258 97.9589 23.5316 97.2724 23.806V37.9387H92.6761C91.5096 37.9387 90.4806 36.9782 90.4806 35.7433V26.413C90.4806 24.2863 90.2064 23.2571 87.805 23.2571C87.0501 23.2571 86.4327 23.3944 85.7469 23.6002" fill="white"/>
<path d="M256.021 38.0073H249.229V20.7874H253.825C254.991 20.7874 256.021 21.7479 256.021 22.9827V38.0073ZM255.746 22.7083C256.775 21.2676 258.697 20.4443 261.097 20.4443C264.048 20.4443 265.831 21.542 266.586 23.0513C268.164 21.2676 270.29 20.4443 272.623 20.4443C276.328 20.4443 279.004 22.2281 279.004 26.6188V38.0073H274.407C273.241 38.0073 272.212 37.0469 272.212 35.8119V26.4816C272.212 24.3548 271.8 23.3258 269.605 23.3258C268.781 23.3258 268.164 23.5316 267.477 23.806V37.9387H262.881C261.715 37.9387 260.686 36.9782 260.686 35.7433V26.413C260.686 24.2863 260.411 23.2571 258.01 23.2571C257.256 23.2571 256.638 23.3944 255.952 23.6002" fill="white"/>
<path d="M123.548 37.1152C122.451 37.8699 120.187 38.3502 118.265 38.3502C114.081 38.3502 112.229 35.1943 112.229 32.0384C112.229 28.2651 114.63 26.1384 119.158 26.1384L121.765 27.579C119.981 27.579 117.923 29.0198 117.923 31.9698C117.923 34.5082 119.295 36.1547 120.942 36.1547C121.765 36.1547 122.382 35.9489 122.862 35.8803L123.548 37.1152ZM122.862 25.7267C122.862 23.2569 121.559 22.7767 118.815 22.7767C117.236 22.7767 115.316 22.9139 114.218 23.0511V21.0616C116.002 20.7185 118.335 20.5127 120.255 20.5127C126.635 20.5127 129.243 22.1593 129.243 26.2756V37.9385H125.058C123.891 37.9385 122.862 36.978 122.862 35.7431V25.7267Z" fill="white"/>
<path d="M139.805 35.8803C139.805 37.0466 138.845 38.0757 137.61 38.0757H133.014V20.7871H137.61C138.776 20.7871 139.805 21.7476 139.805 22.9825V35.8803ZM139.256 22.2278C140.697 21.2674 141.658 20.7185 143.579 20.7185C144.196 20.7185 145.088 20.8557 145.774 21.0615L144.333 23.8743C144.333 23.8743 143.579 23.3941 142.549 23.3941C141.795 23.3941 140.629 23.5999 139.805 24.2174" fill="white"/>
<path d="M174.042 25.7953C177.061 25.7953 178.364 24.4232 178.364 20.1697C178.364 15.7103 177.061 14.4754 173.973 14.4754H170.268V25.7953V28.1965V38.0757H163.477V12.2114H177.061C181.52 12.2114 185.293 15.7103 185.293 20.1697C185.293 23.5999 183.235 26.0011 180.079 27.236L185.773 38.0071H180.011C178.913 38.0071 177.953 37.3896 177.472 36.4291L171.846 25.7267H174.042V25.7953Z" fill="white"/>
<path d="M187.488 29.3631C187.488 23.12 191.536 20.4443 196.544 20.4443C202.169 20.4443 205.257 23.12 205.257 29.02C205.257 29.5689 205.188 30.0491 205.12 30.6665H194.005C194.143 35.2631 195.378 36.0178 199.7 36.0178C201.278 36.0178 202.856 35.8806 204.433 35.6748L203.404 37.5957C202.65 37.8015 200.523 38.1445 198.396 38.1445C191.879 38.2132 187.488 36.498 187.488 29.3631ZM194.005 28.6084H199.082C199.014 23.8746 198.671 22.6397 196.612 22.6397C194.623 22.6397 194.074 23.806 194.005 28.6084Z" fill="white"/>
<path d="M282.23 29.3631C282.23 23.12 286.278 20.4443 291.286 20.4443C296.912 20.4443 299.999 23.12 299.999 29.02C299.999 29.5689 299.931 30.0491 299.862 30.6665H288.816C288.954 35.2631 290.189 36.0178 294.511 36.0178C296.089 36.0178 297.667 35.8806 299.245 35.6748L298.215 37.5957C297.461 37.8015 295.334 38.1445 293.208 38.1445C286.622 38.2132 282.23 36.498 282.23 29.3631ZM288.816 28.6084H293.893C293.825 23.8746 293.482 22.6397 291.424 22.6397C289.366 22.6397 288.886 23.806 288.816 28.6084Z" fill="white"/>
<path d="M207.932 37.6641L209.098 35.6746C209.99 35.8804 211.087 36.0175 213.557 36.0175C216.919 36.0175 217.674 35.4001 217.674 34.1652C217.674 33.4791 217.399 33.0675 216.851 32.7931C216.096 32.3815 215.067 32.1757 213.9 31.9012C212.116 31.421 210.333 30.9407 209.372 29.7744C208.617 28.8826 208.206 27.8535 208.206 26.4128C208.206 21.7476 212.391 20.5813 216.439 20.5813C218.497 20.5813 220.555 20.7871 222.133 21.1302L220.898 22.9825C220.349 22.9139 219.046 22.7081 217.536 22.7081C214.861 22.7081 214.106 23.3255 214.106 24.3546C214.106 25.1779 214.449 25.5209 215.067 25.8639C215.821 26.207 216.851 26.4814 217.88 26.7558C219.457 27.1674 220.898 27.5791 221.927 28.2652C223.093 29.157 223.642 30.3233 223.642 32.2442C223.573 36.7722 219.389 38.0757 213.969 38.0757C211.842 38.213 209.852 37.9385 207.932 37.6641Z" fill="white"/>
<path d="M238.526 20.7871H245.319V38.0757H240.722C239.555 38.0757 238.526 37.1152 238.526 35.8803V20.7871ZM238.801 36.2919C237.703 37.5269 235.577 38.3501 233.244 38.3501C229.471 38.3501 226.727 36.7036 226.727 32.1756V20.7871H231.323C232.489 20.7871 233.518 21.7476 233.518 22.9825V32.3128C233.518 34.371 234.067 35.4687 236.331 35.4687C237.155 35.4687 237.772 35.3314 238.526 35.1256" fill="white"/>
<path d="M160.044 22.8454V20.7873H156.339V15.9163H154.418C154.418 18.5919 152.222 20.7873 149.546 20.7873H148.175L147.352 22.8454H149.616V32.999C149.616 37.184 152.154 38.1445 155.652 38.1445C157.231 38.1445 158.603 38.0072 160.044 37.8014V35.8804C159.632 35.9491 159.083 36.0177 158.534 36.0177C156.956 36.0177 156.339 35.606 156.339 33.8909V22.8454H160.044Z" fill="white"/>
</g>
<defs>
<clipPath id="clip0_4047_13271">
<rect width="300" height="40" fill="white"/>
</clipPath>
</defs>
</svg>
