<svg width="175" height="61" viewBox="0 0 175 61" fill="none" xmlns="http://www.w3.org/2000/svg">
<g clip-path="url(#clip0_4048_13683)">
<path fill-rule="evenodd" clip-rule="evenodd" d="M97.9033 60.499L102.937 48.9522L93.8667 29.5587H100.333L106.017 42.548L111.268 29.5587H117.431L104.022 60.499H97.9033ZM88.6614 42.7735V41.7821L83.8449 42.548C82.369 42.7735 81.1981 43.6288 81.1981 45.3438C81.1981 46.6523 82.109 47.9161 83.9738 47.9161C86.4056 47.9161 88.6614 46.699 88.6614 42.7735ZM81.8061 38.9863L87.0566 38.1735C88.2704 37.9926 88.6614 37.3607 88.6614 36.5948C88.6614 35.0161 87.4905 33.7076 85.0607 33.7076C82.543 33.7076 81.1531 35.3756 80.9791 37.316L75.8576 36.1884C76.2056 32.7139 79.2863 28.8821 85.0157 28.8821C91.787 28.8821 94.3028 32.8501 94.3028 37.316V48.2309C94.3028 49.4034 94.4338 50.9842 94.5627 51.7501H89.2693C89.1404 51.1629 89.0523 49.9459 89.0523 49.0884C87.9674 50.848 85.9267 52.382 82.7599 52.382C78.2035 52.382 75.4258 49.18 75.4258 45.7054C75.4258 41.7374 78.2464 39.5267 81.8061 38.9863ZM61.6722 29.5587L66.2718 43.8565L70.2224 29.5587H75.9478L69.2664 51.7501H63.4941L58.5036 36.5948L53.599 51.7501H47.7406L40.9284 29.5587H47.0038L50.9523 43.8119L55.5969 29.5587H61.6722ZM27.3919 40.6076L19.7957 29.5587H26.6529C27.3919 30.7757 30.1675 34.9246 30.9065 36.1437L35.1151 29.5587H41.6673L34.2041 40.4289L41.9272 51.7501H35.158L30.6875 44.9395C29.9076 46.1565 27.0439 50.5331 26.3049 51.7501H19.7957L27.3919 40.6076ZM13.2884 42.7735V41.7821L8.47391 42.548C6.99805 42.7735 5.82514 43.6288 5.82514 45.3438C5.82514 46.6523 6.73605 47.9161 8.60082 47.9161C11.0326 47.9161 13.2884 46.699 13.2884 42.7735ZM6.43105 38.9863L11.6835 38.1735C12.8994 37.9926 13.2884 37.3607 13.2884 36.5948C13.2884 35.0161 12.1175 33.7076 9.68571 33.7076C7.17 33.7076 5.78216 35.3756 5.60817 37.316L0.486689 36.1884C0.834671 32.7139 3.91534 28.8821 9.64477 28.8821C16.4121 28.8821 18.9298 32.8501 18.9298 37.316V48.2309C18.9298 49.4034 19.0587 50.9842 19.1917 51.7501H13.8963C13.7653 51.1629 13.6794 49.9459 13.6794 49.0884C12.5944 50.848 10.5536 52.382 7.38698 52.382C2.83045 52.382 0.0527344 49.18 0.0527344 45.7054C0.0527344 41.7374 2.87344 39.5267 6.43105 38.9863Z" fill="white"/>
<path fill-rule="evenodd" clip-rule="evenodd" d="M169.467 34.1916L126.494 14.1848V21.4277L160.704 37.3535L169.467 34.1916ZM131.593 27.4185V34.6593L139.407 38.2788L126.836 51.3041H135.172L150.089 36.0238L131.593 27.4185ZM169.455 19.716L169.47 30.5845L120.666 7.8508V0.60791L163.368 20.5106V9.63599L174.567 14.8507V22.0976L169.455 19.716Z" fill="white"/>
</g>
<defs>
<clipPath id="clip0_4048_13683">
<rect width="174.894" height="60" fill="white" transform="translate(0.0527344 0.5)"/>
</clipPath>
</defs>
</svg>
