<svg width="321" height="52" viewBox="0 0 321 52" fill="none" xmlns="http://www.w3.org/2000/svg">
<g clip-path="url(#clip0_4047_13341)">
<path d="M109.033 0.838623H118.384V42.9043H139.227V51.1612H109.033V0.838623Z" fill="white"/>
<path d="M162.145 28.7915C162.145 26.8762 161.593 25.1864 160.598 23.8343C159.604 22.3697 157.946 21.6938 155.736 21.6938C153.526 21.6938 151.758 22.3697 150.432 23.6091C149.106 24.961 148.222 26.651 147.78 28.7915H162.145ZM147.117 49.1833C144.244 47.4935 142.033 45.1275 140.597 42.311C139.16 39.3818 138.387 36.2271 138.387 32.7347C138.387 29.3548 139.05 26.2003 140.486 23.4963C141.812 20.6799 143.802 18.4266 146.454 16.7366C149.106 15.0467 152.2 14.2581 155.736 14.2581C159.051 14.2581 161.925 14.934 164.135 16.3986C166.455 17.7506 168.113 19.6659 169.328 22.0317C170.544 24.3977 171.096 27.1015 171.096 30.0307C171.096 31.4953 170.875 33.0726 170.544 34.9879H147.559C148.001 38.1424 149.216 40.5084 151.205 42.0857C153.195 43.6629 155.626 44.4515 158.388 44.4515C162.256 44.4515 165.792 43.4376 169.107 41.5223L169.549 49.1833C168.002 49.972 166.234 50.6479 164.245 51.2113C162.256 51.7745 160.046 52 157.615 52C153.526 51.7746 150.1 50.9859 147.117 49.1833Z" fill="white"/>
<path d="M182.945 33.1289L171.098 15.0967H181.616L188.148 25.5128L194.127 15.0967H204.646L192.909 33.1289L204.646 51.1612H194.127L187.705 40.6331L181.616 51.1612H171.098L182.945 33.1289Z" fill="white"/>
<path d="M206.322 15.2324H215.548V51.1612H206.322V15.2324ZM206.322 0.838623H215.548V9.76503H206.322V0.838623Z" fill="white"/>
<path d="M227.413 49.4087C224.54 47.7189 222.44 45.4656 221.002 42.6489C219.566 39.8324 218.902 36.678 218.902 33.1853C218.902 29.6929 219.566 26.4255 221.002 23.609C222.44 20.6798 224.54 18.4266 227.413 16.7366C230.287 15.0467 233.712 14.2581 237.802 14.2581C241.449 14.2581 244.655 15.0467 247.307 16.624L246.645 23.8343C244.103 22.4824 241.449 21.8064 238.686 21.8064C235.37 21.8064 232.718 22.8204 230.839 24.9609C228.961 26.9889 227.965 29.8054 227.965 33.1853C227.965 36.4525 228.961 39.1565 230.839 41.297C232.828 43.4376 235.37 44.5642 238.576 44.5642C241.229 44.5642 243.991 43.7756 246.645 42.1984L247.418 49.8594C246.091 50.5354 244.655 51.0986 242.887 51.4366C241.117 51.7747 239.35 52 237.47 52C233.602 51.8873 230.177 51.0986 227.413 49.4087Z" fill="white"/>
<path d="M273.644 41.4413C275.321 39.4193 276.104 36.6112 276.104 33.2413C276.104 29.7593 275.321 26.951 273.644 24.9292C271.966 22.795 269.728 21.7839 266.709 21.7839C263.802 21.7839 261.453 22.795 259.775 24.9292C258.098 27.0634 257.315 29.7593 257.315 33.2413C257.315 36.6112 258.098 39.4193 259.775 41.4413C261.453 43.4631 263.69 44.5864 266.709 44.5864C269.617 44.474 271.966 43.4631 273.644 41.4413ZM256.868 49.4165C254.073 47.7316 251.947 45.4851 250.494 42.5646C249.039 39.7563 248.258 36.6112 248.258 33.1289C248.258 29.7593 249.039 26.5016 250.494 23.6935C251.947 20.773 254.073 18.5265 256.868 16.8416C259.664 15.1567 262.907 14.2581 266.709 14.2581C270.511 14.2581 273.755 15.1567 276.551 16.8416C279.346 18.5265 281.472 20.773 282.925 23.6935C284.38 26.614 285.161 29.7593 285.161 33.1289C285.161 36.4988 284.38 39.6441 282.925 42.5646C281.472 45.3727 279.346 47.7316 276.551 49.4165C273.755 51.1013 270.511 52 266.709 52C262.907 51.8876 259.664 51.1013 256.868 49.4165Z" fill="white"/>
<path d="M316.92 18.6594C319.27 21.7064 320.387 25.6563 320.387 30.8476V51.1613H311.441V31.5246C311.441 28.1392 310.883 25.6563 309.764 23.9635C308.645 22.3835 306.856 21.4808 304.284 21.4808C301.599 21.4808 299.252 22.4964 297.461 24.6406V51.0484H288.516V14.8223H296.903L297.014 17.418C300.033 15.3866 303.277 14.2581 306.631 14.2581C311.216 14.2581 314.571 15.7252 316.92 18.6594Z" fill="white"/>
<path d="M67.9362 31.8709H19.291V19.2903H67.9362V31.8709Z" fill="white"/>
<path d="M87.2258 0H0V0.111437V31.871H13.1175V13.0382H87.2258V0Z" fill="white"/>
<path d="M87.2258 19.2903H74.1082V38.1232H0V51.1612H87.2258V51.0498V19.2903Z" fill="white"/>
</g>
<defs>
<clipPath id="clip0_4047_13341">
<rect width="320.387" height="52" fill="white"/>
</clipPath>
</defs>
</svg>
