<svg width="120" height="30" viewBox="0 0 120 30" fill="none" xmlns="http://www.w3.org/2000/svg">
<path fill-rule="evenodd" clip-rule="evenodd" d="M114.652 0.158813V28.519V28.54H119.064V0.158813H114.652ZM5.01329 24.3701V0.158835H0.349609V28.5401H13.7734V24.3701H5.01329ZM30.2224 9.64379V12.1962L30.2014 12.1752C29.6132 11.2299 28.7729 10.4946 27.6805 9.9484C26.5881 9.41271 25.4852 9.13961 24.3823 9.13961C22.9643 9.13961 21.6408 9.4022 20.4434 9.92739C19.289 10.4392 18.2522 11.1828 17.3973 12.1122C16.5367 13.0412 15.8595 14.1246 15.4016 15.3053C14.9289 16.4923 14.6873 17.7632 14.6873 19.0867C14.6749 20.3945 14.9138 21.6925 15.3911 22.9101C15.8546 24.0754 16.5314 25.1441 17.3868 26.0612C18.2496 26.9856 19.2937 27.7221 20.4539 28.225C21.6408 28.7502 22.9538 29.0128 24.3928 29.0128C25.4957 29.0128 26.6091 28.7502 27.7015 28.1935C28.7939 27.6683 29.6342 26.933 30.2434 25.9877V28.5506H34.655V9.64379H30.2224ZM29.8232 21.408C30.0999 20.6689 30.2422 19.8863 30.2434 19.0971C30.2434 18.2778 30.0963 17.5216 29.8232 16.7863C29.5717 16.0788 29.1866 15.4262 28.6888 14.8641C28.1921 14.3233 27.5921 13.8876 26.9242 13.5826C26.206 13.2531 25.4245 13.0846 24.6343 13.089C23.794 13.089 23.0378 13.2675 22.3655 13.5931C21.707 13.899 21.1147 14.3308 20.6219 14.8641C20.1254 15.4235 19.7467 16.0773 19.5085 16.7863C19.248 17.5287 19.1165 18.3103 19.1199 19.0971C19.1199 19.9059 19.2459 20.6727 19.5085 21.408C19.7606 22.1432 20.1387 22.7734 20.6219 23.2986C21.1104 23.8475 21.7031 24.2938 22.3655 24.6116C23.0378 24.9267 23.794 25.0948 24.6343 25.0948C25.4746 25.0948 26.2414 24.9372 26.9242 24.6116C27.5941 24.3007 28.1943 23.8577 28.6888 23.3091C29.1831 22.7564 29.5681 22.1148 29.8232 21.4185V21.408ZM38.1422 9.64372V28.54H42.5538V13.9923H50.1376V9.64372H38.1422ZM66.1557 12.1962V9.64379H70.5673V28.5506H66.1557V25.9877C65.5675 26.933 64.7167 27.6683 63.6348 28.1935C62.5319 28.7502 61.429 29.0128 60.3156 29.0128C58.8766 29.0128 57.5636 28.7502 56.3767 28.225C55.2165 27.7221 54.1724 26.9856 53.3096 26.0612C52.4542 25.1441 51.7774 24.0754 51.3139 22.9101C50.8402 21.6917 50.6048 20.3938 50.6206 19.0867C50.6206 17.7632 50.8517 16.4923 51.3244 15.3053C51.7823 14.1246 52.4594 13.0412 53.3201 12.1122C54.175 11.1828 55.2118 10.4392 56.3662 9.92739C57.5636 9.4022 58.8871 9.13961 60.3051 9.13961C61.408 9.13961 62.5109 9.41271 63.6033 9.9484C64.6957 10.4946 65.5465 11.2299 66.1242 12.1752L66.1557 12.1962ZM66.1558 19.0972C66.1614 19.8851 66.0262 20.6676 65.7566 21.408L65.7671 21.4185C65.5152 22.114 65.1338 22.7555 64.6432 23.3092C64.1426 23.86 63.535 24.3032 62.8576 24.6116C62.1643 24.9373 61.4081 25.0948 60.5678 25.0948C59.7275 25.0948 58.9712 24.9268 58.2884 24.6116C57.626 24.2938 57.0333 23.8475 56.5448 23.2987C56.0616 22.7735 55.694 22.1433 55.4314 21.408C55.1793 20.6727 55.0533 19.906 55.0533 19.0972C55.0466 18.3109 55.1744 17.5294 55.4314 16.7863C55.6696 16.0773 56.0483 15.4236 56.5448 14.8641C57.0376 14.3308 57.6299 13.8991 58.2884 13.5932C58.9712 13.2676 59.7275 13.089 60.5678 13.089C61.3976 13.089 62.1643 13.2676 62.8471 13.5827C63.5225 13.8852 64.1299 14.3211 64.6327 14.8641C65.1267 15.4272 65.5083 16.0797 65.7566 16.7863C66.0192 17.5216 66.1558 18.2779 66.1558 19.0972ZM88.2979 9.64372H92.783L85.5354 28.5505H79.9684L72.7208 9.64372H77.1849L82.7519 24.1179L88.2979 9.65422V9.64372ZM111.763 20.7358C112.541 14.4965 108.434 9.16062 102.415 9.16062L102.404 9.13961C96.9949 9.13961 92.7094 13.5827 92.7094 19.0762C92.7094 25.1369 96.8479 29.0233 102.961 29.0233C106.396 29.0233 108.581 27.7103 111.259 24.8743L108.276 22.5634C108.276 22.5634 106.018 25.5045 102.656 25.5045C98.7491 25.5045 97.0895 22.3534 97.0895 20.7358H111.763ZM97.1105 17.4586H107.719C107.677 17.091 107.089 12.6689 102.383 12.6689C97.6732 12.6689 97.1561 17.0705 97.1109 17.4547L97.1105 17.4586Z" fill="white"/>
</svg>
