<svg width="111" height="61" viewBox="0 0 111 61" fill="none" xmlns="http://www.w3.org/2000/svg">
<path d="M70.9515 17.0686H80.4206V26.868H70.951L70.9565 44.0333H60.5924V16.0292C60.5924 15.0498 60.6174 13.5056 61.0022 11.7116C61.3869 9.92267 62.1615 7.79388 63.7756 5.84498C64.845 4.55072 66.2841 3.39138 67.9932 2.55685C70.2819 1.43749 72.9753 0.893828 76.0436 0.897788H82.4999V11.2569H76.0436C73.9348 11.2619 72.8754 11.6667 72.3557 11.9665C71.841 12.2813 71.6711 12.5112 71.4362 12.9659C71.2913 13.2658 71.1664 13.6605 71.0914 14.1153C70.9767 14.7249 70.9515 15.4045 70.9515 16.0292V17.0686Z" fill="white"/>
<path d="M110.244 47.3515C110.229 53.6129 105.417 60.277 96.3022 60.2841L96.3032 60.2843C89.0123 60.2943 84.0352 54.7924 82.8758 49.3255L82.6759 47.7364L92.6703 47.7764L92.6726 47.7885C92.6991 47.9241 92.8339 48.6153 93.3749 49.3205C93.9296 50.0551 94.969 50.7719 96.588 50.7647C98.387 50.7797 99.4564 49.9302 99.9411 49.0657C100.434 48.2062 100.441 47.5615 100.441 47.0968V44.8781L100.445 44.1035L99.7252 44.3881C98.2311 44.9826 96.6969 45.2976 95.1528 45.2976C87.2273 45.2826 82.5096 38.7364 82.5 32.36V17.0687H92.3844V32.1451C92.3844 32.8297 92.4993 33.7642 93.084 34.5787C93.6687 35.4032 94.823 36.0049 96.4471 35.9929C98.0012 36.0029 98.9507 35.3883 99.6802 34.5887C100.42 33.7742 100.51 32.8347 100.51 32.1451V17.0687H110.244V47.3515Z" fill="white"/>
<path d="M44.5468 60.2841C53.6616 60.277 58.4739 53.6129 58.4888 47.3515V17.0687H48.7544V32.1451C48.7544 32.8347 48.7094 33.7492 47.9248 34.5887C47.1803 35.3833 46.2458 36.0029 44.6917 35.9929C43.0676 36.0049 41.9133 35.4032 41.3286 34.5787C40.7389 33.7642 40.629 32.8297 40.624 32.1451V17.0687H30.7446V32.36C30.7542 38.7364 35.4719 45.2826 43.3924 45.2976C44.9415 45.2976 46.4757 44.9826 47.9698 44.3881L48.6894 44.1035V44.8781L48.6839 47.0968C48.6839 47.5565 48.6743 48.2062 48.1791 49.0657C47.6994 49.9302 46.63 50.7797 44.8311 50.7647C43.212 50.7719 42.1676 50.0551 41.6179 49.3205C41.0582 48.591 40.9283 47.8764 40.9133 47.7764L30.919 47.7364L31.1188 49.3255C32.2782 54.7924 37.2559 60.2941 44.5468 60.2841Z" fill="white"/>
<path d="M0.116917 30.0063C0.0819368 30.5111 0.0769396 31.3606 0.0769396 31.3606C0.101925 37.9418 4.9042 45.2677 14.9935 45.3027C20.0956 45.3027 23.9934 42.7191 26.2421 39.7608C28.4808 36.8025 29.0705 33.4144 29.0655 31.4555C29.0655 31.3106 29.0605 31.1807 29.0555 31.0558C28.6157 25.259 24.7679 21.4212 18.6864 19.0526C18.0867 18.8227 13.8191 16.9338 12.4099 16.2042C10.9658 15.4696 10.4461 14.5951 10.456 13.4757C10.451 12.4413 11.0757 11.6518 11.8303 11.177C12.5998 10.6923 13.5093 10.4624 14.2839 10.4575C15.6331 10.4525 16.7075 10.9772 17.4071 11.7867C18.0018 12.4663 18.4915 13.7156 18.5964 14.76H28.7507L28.7307 14.3303C28.6207 12.1015 28.121 9.06824 25.5175 5.87006C22.9489 2.81179 19.0662 0.937858 14.4188 0.937858C10.7609 0.937858 7.30783 1.9173 4.50942 4.3759C1.71101 6.83451 0.211863 9.80282 0.0769396 13.2459C-0.0779724 17.2936 1.2063 20.2019 4.05468 22.4606C6.02856 24.0197 8.53214 25.409 10.8508 26.5583C12.4272 27.3414 13.9201 28.0108 15.1066 28.5428C15.6615 28.7917 16.1495 29.0105 16.5476 29.1968C17.9368 29.8464 18.9112 30.686 18.9762 32.2201L18.9812 32.4C18.9562 34.3689 17.0423 35.6481 14.9485 35.6531C14.134 35.6531 12.7997 35.4283 11.8652 34.7337C10.9308 34.0491 9.86638 32.38 9.87638 30.631L9.90136 30.0363L0.116917 30.0063Z" fill="white"/>
</svg>
