<svg width="111" height="45" viewBox="0 0 111 45" fill="none" xmlns="http://www.w3.org/2000/svg">
<path fill-rule="evenodd" clip-rule="evenodd" d="M61.7356 0.277444L78.8202 0.275085L79.9393 3.45567C79.9438 3.45315 74.7183 3.45434 69.8664 3.45546H69.8657H69.8647C65.6627 3.45642 61.7415 3.45732 61.7415 3.45567L61.7414 3.42818C61.7404 3.11743 61.7311 0.277444 61.7356 0.277444ZM110.789 3.45111H92.388L93.5224 0.277598H110.789V3.45111ZM55.5158 3.45581C53.4308 1.55123 50.9825 0.548821 48.1675 0.277581L24.5484 0.276401V3.45581C24.5484 3.45817 55.5158 3.45581 55.5158 3.45581ZM0.314721 3.44993H21.7604V0.277598H0.314721V3.44993ZM90.2794 9.40294H110.789V6.24593H91.3915C91.3974 6.24711 90.2794 9.40294 90.2794 9.40294ZM82.0526 9.40658H61.7344V6.24486H80.9405L82.0526 9.40658ZM89.3078 12.1992L88.1816 15.3704L104.707 15.3633V12.2039L89.3078 12.1992ZM57.9273 6.24486C58.0017 6.4349 58.0786 6.61989 58.1546 6.80276C58.4956 7.62308 58.8189 8.40089 58.8189 9.40186H24.5541V6.24486H57.9273ZM21.7604 9.40186H0.314721V6.24486H21.7604V9.40186ZM83.041 12.198L84.1625 15.3703H67.7925V12.198H83.041ZM58.6374 15.3703C58.9534 14.4186 59.0902 13.2853 59.0902 12.1968H49.256V15.3703H58.6374ZM6.24322 15.3691H15.4902V12.2121H6.24322V15.3691ZM40.009 15.3691H30.7786V12.1968H40.009V15.3691ZM76.885 18.7963C76.885 18.7963 76.8885 21.1973 76.8862 21.2021H67.7925V18.045H85.1224L86.198 20.9886C86.2004 20.9892 86.467 20.231 86.7297 19.4841L86.7298 19.4836L86.7305 19.4816L86.7347 19.4697C86.9885 18.748 87.237 18.0416 87.2381 18.045H104.701V21.2021H95.6525L95.6477 18.7963L94.8116 21.2021L77.7211 21.1973L76.885 18.7963ZM57.2751 18.0449H30.7786L30.7774 21.2019C30.7774 21.2066 54.6489 21.2019 54.6489 21.2019C55.6459 20.3864 56.697 19.1023 57.2751 18.0449ZM57.2751 18.0449H57.2764V18.0425L57.2751 18.0449ZM6.24322 21.202H15.4902V18.0438H6.24322V21.202ZM104.701 27.1552H95.6523V23.9982H104.701V27.1552ZM76.885 23.9982H67.7925V27.154C67.7906 27.1535 69.3501 27.1538 71.1782 27.1542C73.7646 27.1547 76.8885 27.1554 76.8885 27.154L76.8885 27.1515C76.8888 27.0525 76.8978 23.9982 76.885 23.9982ZM93.8252 23.9982H78.6985C78.699 23.9959 78.8731 24.4838 79.0848 25.077L79.0867 25.0821L79.0882 25.0863C79.4142 25.9997 79.8273 27.1571 79.833 27.1599L92.7228 27.154C92.7437 27.1534 93.0017 26.385 93.263 25.6066L93.2632 25.6061C93.5308 24.8087 93.8019 24.0012 93.8252 23.9982ZM30.7762 23.997H54.6029C55.6902 24.9039 56.6738 26.0207 57.4427 27.154C57.4611 27.1535 52.9456 27.1538 47.6259 27.1542H47.5925H47.5696H47.5539H47.5431C39.956 27.1547 30.7774 27.1554 30.7774 27.154L30.7762 23.997ZM15.489 23.997V27.154L6.25853 27.1528C6.26089 27.1528 6.25853 23.997 6.25853 23.997H15.489ZM95.6523 33.1081H104.7V29.9499H95.6523V33.1081ZM76.885 33.1069H67.7925V29.9499H76.885V33.1069ZM90.6061 33.1234C90.6084 33.1081 91.7192 29.9534 91.7393 29.9499H80.7824C80.7624 29.9475 81.9051 33.1081 81.9051 33.1081C81.9051 33.1081 90.6037 33.1364 90.6061 33.1234ZM30.7774 29.9488C30.7763 29.95 30.7774 33.12 30.7774 33.107C30.7774 33.1035 40.1376 33.1082 40.1458 33.1082C40.1541 33.1082 40.1458 29.9488 40.1458 29.9488H30.7774ZM58.7577 29.9488C59.1658 30.8066 59.2444 31.812 59.3216 32.7991C59.33 32.9071 59.3385 33.0149 59.3473 33.1223H49.4211V29.9488H58.7577ZM15.489 33.1058H6.25853V29.9488H15.489V33.1058ZM95.6523 38.9399H110.788V35.7805H95.6523V38.9399ZM76.8849 38.9399H61.7344V35.7805H76.8849V38.9399ZM88.5695 38.9387H83.949L82.8393 35.7805H89.6392L88.5695 38.9387ZM0.245119 38.9387V35.7805L21.7439 35.7829C21.7392 35.7829 21.7415 36.5731 21.7439 37.3627C21.7462 38.1519 21.7486 38.9405 21.7439 38.9387H0.245119ZM58.9535 35.7805C58.9318 35.8803 58.9103 35.9822 58.8885 36.0857C58.6824 37.0614 58.4477 38.1731 57.7589 38.9387H57.4747H24.5532V35.7805H58.9535ZM86.0503 44.8989H86.4749L87.5846 41.7349H84.9701L86.0503 44.8989ZM95.6523 44.906H110.788V41.7349H95.6523V44.906ZM24.5484 41.7383V44.8989H24.5531L47.6699 44.906C50.7514 44.8623 53.6124 43.7373 55.6974 41.7419L24.5484 41.7383ZM61.7344 44.906H76.8849V41.7349H61.7344V44.906ZM21.7441 44.8989C21.7347 44.8989 21.7441 41.7478 21.7441 41.7478C21.7347 41.7572 0.24067 41.7383 0.245388 41.7383C0.248499 41.7383 0.247014 42.6181 0.245609 43.4502C0.244352 44.1952 0.243159 44.902 0.245388 44.9048C0.251284 44.9119 21.7536 44.8989 21.7441 44.8989Z" fill="white"/>
</svg>
