<svg width="80" height="80" viewBox="0 0 80 80" fill="none" xmlns="http://www.w3.org/2000/svg">
<path d="M68.3594 56.4633C68.3594 56.3791 68.2553 56.3791 68.1766 56.3791H68.0009V56.5868H68.2177C68.3084 56.5868 68.3594 56.5661 68.3594 56.4633Z" fill="white"/>
<path fill-rule="evenodd" clip-rule="evenodd" d="M68.7281 56.6564C68.7281 57.0065 68.4662 57.2574 68.1304 57.2574C67.7889 57.2574 67.5341 57.0065 67.5341 56.6564C67.5341 56.3018 67.7889 56.0509 68.1304 56.0509C68.4662 56.0509 68.7281 56.3018 68.7281 56.6564ZM68.2137 56.2356H67.8185V57.0565H68.0009V56.71H68.1265L68.3085 57.0565H68.5065L68.3085 56.71C68.4524 56.6996 68.5302 56.6384 68.5302 56.4865C68.5302 56.2703 68.4023 56.2356 68.2137 56.2356Z" fill="white"/>
<path d="M59.9842 60.5135C60.5256 60.4212 61.1782 60.3923 61.1795 60.9614C61.1818 61.5399 60.5765 61.73 60.0173 61.8246L59.8425 61.8548L59.8385 60.5383L59.9842 60.5135Z" fill="white"/>
<path d="M43.7075 63.9028C43.7007 63.3307 43.0521 63.3604 42.5143 63.4541L42.3695 63.4798L42.3843 64.8039L42.5582 64.7737C43.1129 64.6769 43.7137 64.4845 43.7075 63.9028Z" fill="white"/>
<path d="M45.7918 64.8542L47.3577 64.5879L46.6027 63.2502L45.7918 64.8542Z" fill="white"/>
<path fill-rule="evenodd" clip-rule="evenodd" d="M66.6724 57.513L66.6639 51.6073L59.933 52.7936L67.6209 15.7031C73.3089 22.3477 76.421 30.726 76.421 39.5909C76.421 59.7932 60.1128 76.2295 40.0687 76.2295C30.7818 76.2295 22.0318 72.7369 15.2795 66.3784L18.389 65.8814V43.8337L30.5896 68.837L36.2082 68.0621L33.7035 62.9853L38.1277 62.3451V17.8319L32.4076 18.7722L32.4277 60.3992L24.8319 45.0051C27.5069 42.6604 31.6942 37.7027 31.3321 29.2505C31.3191 28.9513 31.2968 28.6589 31.2699 28.3701C31.2624 28.2927 31.2538 28.2163 31.2451 28.14L31.2386 28.0827C31.2167 27.8853 31.1917 27.6912 31.1631 27.4988L31.1611 27.4858C31.147 27.3923 31.1329 27.2985 31.1175 27.2059C31.0808 26.9888 31.0397 26.7752 30.9946 26.5648L30.9873 26.5295L30.9793 26.4884C30.973 26.4561 30.9667 26.4239 30.9597 26.3922C30.9007 26.1323 30.8345 25.8786 30.763 25.629C30.7597 25.6178 30.7569 25.606 30.7541 25.5943L30.7493 25.5747L30.7473 25.5671L30.7451 25.5596C30.7393 25.54 30.7326 25.5213 30.7259 25.5026C30.7192 25.4839 30.7125 25.4653 30.7067 25.4457C30.6222 25.1659 30.5301 24.8924 30.43 24.6266C30.4215 24.6043 30.4134 24.5815 30.4054 24.5588L30.3897 24.5149L30.3808 24.491C30.2695 24.2062 30.1475 23.9314 30.0187 23.6629C30.0111 23.6468 30.0042 23.6302 29.9974 23.6136C29.9902 23.5961 29.9829 23.5785 29.9749 23.5619C29.9676 23.5471 29.9595 23.5332 29.9515 23.5194C29.9439 23.5063 29.9363 23.4933 29.9293 23.4795C29.7881 23.197 29.6379 22.9235 29.4778 22.6604C29.4586 22.6288 29.4386 22.5975 29.4185 22.5663L29.388 22.5185C29.2199 22.2518 29.0447 21.9922 28.8578 21.7467C28.8558 21.744 28.854 21.7411 28.8522 21.7383C28.8494 21.734 28.8467 21.7298 28.8435 21.726C28.7487 21.6021 28.6499 21.4827 28.5507 21.3646C28.5409 21.3529 28.5314 21.3409 28.5219 21.3288C28.5124 21.3168 28.5029 21.3047 28.493 21.293C28.3857 21.1673 28.2749 21.0466 28.1627 20.9272C28.1528 20.9168 28.1434 20.9062 28.134 20.8956L28.1196 20.8795C28.1137 20.8729 28.1076 20.8664 28.1014 20.86C27.9758 20.7289 27.8471 20.6023 27.7152 20.4793L27.706 20.4703L27.7027 20.4669C27.6986 20.4628 27.6944 20.4586 27.6902 20.4545C27.5489 20.3234 27.4045 20.1964 27.2566 20.0747C27.1596 19.9941 27.0617 19.9157 26.9615 19.8396L26.9456 19.8278L26.9295 19.8163L26.8985 19.7944C26.8892 19.7878 26.88 19.7811 26.8708 19.7742C26.8216 19.7377 26.7716 19.7022 26.7216 19.6668L26.6795 19.6368C26.5901 19.5733 26.5002 19.5107 26.409 19.4507C26.3535 19.4141 26.2974 19.3787 26.2411 19.3432L26.2087 19.3228C26.1167 19.2651 26.0237 19.2088 25.9298 19.1543C25.861 19.1142 25.7917 19.0754 25.7224 19.0376C25.6267 18.9849 25.5302 18.934 25.4327 18.8844C25.3621 18.8484 25.291 18.8137 25.219 18.7794C25.1202 18.7321 25.0206 18.6866 24.92 18.6429C24.8471 18.6109 24.7738 18.5794 24.7 18.5492C24.5981 18.5077 24.4953 18.4676 24.3916 18.4289L24.3651 18.4191C24.2993 18.3949 24.2327 18.3703 24.1658 18.3474C24.0608 18.3109 23.9549 18.2771 23.848 18.2437C23.7716 18.2198 23.6951 18.196 23.6178 18.1739C23.5096 18.1433 23.4001 18.1149 23.2906 18.0869L23.2247 18.0705C23.1685 18.0563 23.1123 18.0422 23.0554 18.0293C22.9441 18.004 22.8315 17.9815 22.7188 17.9594C22.6397 17.9437 22.5606 17.9279 22.4806 17.9139C22.3657 17.8941 22.2499 17.8774 22.1337 17.8608L22.0727 17.8521C22.0131 17.8435 21.9536 17.8349 21.8936 17.8279C21.7862 17.8148 21.6777 17.805 21.5688 17.7952L21.5365 17.7923L21.4683 17.786C21.4106 17.7807 21.3526 17.7753 21.2946 17.7711C21.1726 17.763 21.0492 17.7585 20.9258 17.754L20.8825 17.7522L20.8452 17.7505C20.7921 17.7481 20.7387 17.7457 20.6853 17.7445C20.5792 17.7426 20.4724 17.7439 20.3656 17.7452L20.3013 17.7459L20.2529 17.7463L20.2228 17.7464C20.1704 17.7466 20.1181 17.7468 20.0653 17.7486C19.952 17.752 19.8375 17.759 19.723 17.766L19.6612 17.7698C19.629 17.7719 19.5969 17.7735 19.5648 17.7751C19.5221 17.7773 19.4795 17.7795 19.4363 17.7828C19.2985 17.7937 19.1595 17.8092 19.0207 17.8248L18.9889 17.8283C18.9617 17.8314 18.9347 17.834 18.9076 17.8366C18.8714 17.84 18.8352 17.8435 18.7989 17.8482C18.5848 17.8752 18.3697 17.9072 18.1534 17.9446L12.6693 19.0173V63.6575C6.88304 56.9855 3.71499 48.536 3.71499 39.5909C3.71499 29.8047 7.49681 20.6041 14.3626 13.6824C21.2289 6.76254 30.3585 2.9514 40.0687 2.9514C49.5693 2.9514 58.507 6.60801 65.3197 13.2472L54.6041 15.0773V21.507L60.6179 20.3626L52.8611 59.8545L66.6724 57.513ZM68.9123 56.6566C68.9123 56.2159 68.5649 55.8641 68.1304 55.8641C67.6937 55.8641 67.3486 56.2159 67.3486 56.6566C67.3486 57.0923 67.6937 57.4446 68.1304 57.4446C68.5649 57.4446 68.9123 57.0923 68.9123 56.6566ZM62.1582 62.4375C62.2409 63.0052 62.7876 63.3449 63.5011 63.2233C64.2896 63.0899 64.9177 62.5114 64.9306 61.8513C64.9414 61.2436 64.48 61.0386 63.8578 60.9431L63.5435 60.8948C63.2708 60.8552 62.9356 60.7628 62.9396 60.4781C62.9463 60.1605 63.3352 59.8964 63.6866 59.8374C64.0196 59.7802 64.2275 59.8609 64.3871 60.0595L64.8292 59.7676C64.5963 59.4563 64.1966 59.3274 63.7058 59.4112C63.0388 59.5238 62.4018 59.9834 62.3911 60.5718C62.3817 61.0782 62.8332 61.2364 63.333 61.3296L63.6343 61.3846C64.0111 61.4508 64.3884 61.554 64.3808 61.9446C64.3745 62.3258 64.0285 62.711 63.5556 62.7921C63.0826 62.8723 62.7013 62.6479 62.7152 62.2474L62.1582 62.4375ZM60.0702 62.192L61.3675 63.5098L62.0322 63.3972L60.6411 62.0518C61.275 61.8802 61.6938 61.3747 61.6916 60.8539C61.6907 60.5074 61.4806 60.2006 61.1131 60.0852C60.7627 59.9803 60.3443 60.0478 59.9531 60.1141L59.2893 60.2271L59.3009 63.8621L59.8476 63.7689L59.8436 62.2312L60.0702 62.192ZM56.1335 60.7926L56.1764 64.4001L58.5497 63.9964L58.5443 63.5841L56.7218 63.8946L56.7057 62.5312L58.4759 62.2294L58.4706 61.818L56.7012 62.1194L56.6896 61.1098L58.5121 60.8002L58.5068 60.3893L56.1335 60.7926ZM53.3831 63.1845L55.0438 64.5942L55.7827 64.4685L53.7653 62.8101L55.7326 60.839L55.0161 60.9615L53.1596 62.856L53.1529 61.2791L52.6057 61.3724L52.6218 65.0074L53.1676 64.9141L53.1627 63.3962L53.3831 63.1845ZM50.7904 62.037C51.2057 61.9671 51.6362 62.019 51.9469 62.1969L51.9567 61.6711C51.6268 61.5594 51.2366 61.5486 50.8512 61.6139C49.554 61.8342 48.4918 62.8511 48.4726 63.9266C48.4525 64.9772 49.478 65.626 50.7337 65.4124C51.1194 65.3458 51.5544 65.1818 51.8959 64.9605L51.9058 64.4249C51.5745 64.7209 51.157 64.9259 50.7243 64.9997C49.7422 65.1665 49.0073 64.6145 49.0211 63.818C49.0372 63.0129 49.803 62.2055 50.7904 62.037ZM47.5783 64.9637L48.0638 65.7904L48.6539 65.689L46.6203 62.2573L44.5077 66.2878L43.1801 64.9997C43.8095 64.8272 44.2207 64.3185 44.2154 63.7945C44.2109 63.4453 43.999 63.1385 43.6338 63.0214C43.2856 62.9173 42.8689 62.984 42.4814 63.0525L41.822 63.1665L41.8622 66.8231L42.4058 66.7298L42.3884 65.1817L42.6146 65.143L43.9141 66.4662L44.4644 66.3707L44.4465 66.4045L45.0365 66.3045L45.5564 65.307L47.5783 64.9637ZM39.7119 63.9351C40.1258 63.8644 40.5563 63.9157 40.8674 64.0928L40.8768 63.5679C40.5469 63.4553 40.1567 63.4454 39.7713 63.5107C38.4727 63.7315 37.4119 64.7479 37.3927 65.8233C37.3726 66.8745 38.3972 67.5232 39.6538 67.3097C40.0395 67.2439 40.4745 67.0785 40.816 66.8564L40.8259 66.3216C40.4946 66.6181 40.0771 66.824 39.6448 66.897C38.6636 67.0637 37.9274 66.5118 37.9421 65.7161C37.9573 64.911 38.7231 64.1027 39.7119 63.9351ZM53.6091 15.2373L39.1175 17.6558V24.0418L43.8796 23.2516V61.4351L49.5358 60.4506L49.5988 22.3122L53.6175 21.6368L53.6091 15.2373Z" fill="white"/>
<path d="M25.9645 30.5732C25.9645 24.8103 23.0186 22.2521 18.3892 22.6049V43.6759L18.3906 43.6763L18.3901 43.6754C21.1885 42.0251 25.9645 36.9493 25.9645 30.5732Z" fill="white"/>
<path fill-rule="evenodd" clip-rule="evenodd" d="M0.787109 39.591C0.787109 17.7604 18.4079 0 40.0688 0C50.5604 0 60.4249 4.11796 67.845 11.5965C75.2634 19.0728 79.3505 29.0159 79.3505 39.591C79.3505 50.1661 75.2634 60.1074 67.845 67.5855C60.4249 75.064 50.5604 79.182 40.0688 79.182C29.9607 79.182 20.4356 75.3605 13.1178 68.3947L12.9408 68.2257C12.7231 68.0148 12.5063 67.8017 12.2917 67.5855C4.8729 60.1074 0.787109 50.1661 0.787109 39.591ZM66.123 65.85C73.0818 58.8355 76.9155 49.5111 76.9155 39.591C76.9155 30.4765 73.671 21.8689 67.7479 15.0905L68.2334 12.7499L65.9267 13.1437C58.9894 6.25083 49.8191 2.45411 40.0687 2.45411C19.7506 2.45411 3.22237 19.1138 3.22237 39.591C3.22237 48.8515 6.56431 57.5915 12.6693 64.4195V66.7952L14.6519 66.4785L14.7882 66.6092C21.6527 73.1429 30.5873 76.7279 40.0687 76.7279C49.9099 76.7279 59.1633 72.8649 66.123 65.85Z" fill="white"/>
</svg>
