<svg width="76" height="80" viewBox="0 0 76 80" fill="none" xmlns="http://www.w3.org/2000/svg">
<path d="M54.6442 14.6213H17.9602L18.0017 29.3744H37.2899C40.0361 24.0251 51.0323 16.0692 54.6442 14.6213Z" fill="white"/>
<path d="M45.8947 73.6339H30.2859C30.2859 67.1597 30.5419 60.9932 31.055 55.9301H46.4268C45.9137 60.9932 45.8947 67.1597 45.8947 73.6339Z" fill="white"/>
<path d="M16.4926 54.4548H22.362V52.2363H19.793V50.3H22.362V48.3635H19.793V46.4269H22.362V44.1276H16.4926V54.4548Z" fill="white"/>
<path d="M32.9999 52.2363H35.5684V54.4548H29.699V44.1276H35.5684V46.4269H32.9999V48.3635H35.5684V50.3H32.9999V52.2363Z" fill="white"/>
<path d="M50.2419 52.2363H47.6725V50.3H50.2419V48.3635H47.6725V46.4269H50.2419V44.1276H44.3725V54.4548H50.2419V52.2363Z" fill="white"/>
<path d="M23.096 44.1276H26.3972V52.2363H28.9655V54.4548H23.096V44.1276Z" fill="white"/>
<path d="M38.9903 44.1276H36.3022L37.8285 54.4548H41.7859L43.639 44.1276H41.3496L40.1513 51.106L38.9903 44.1276Z" fill="white"/>
<path d="M51.7092 54.4548V44.1276H54.644V54.4548H51.7092Z" fill="white"/>
<path d="M54.6622 45.0037L54.6442 47.3968C54.7898 46.2981 56.2322 46.5918 56.2322 47.2192V54.4548H59.0463V45.9448C59.0463 44.141 56.7023 43.4155 54.6622 45.0037Z" fill="white"/>
<path d="M59.0462 14.6213V30.2497C53.6838 31.9856 48.1553 38.6007 47.8265 42.6523L32.6337 42.6121C34.7069 31.2415 44.2996 21.236 59.0462 14.6213Z" fill="white"/>
<path fill-rule="evenodd" clip-rule="evenodd" d="M0.351562 79.182H75.1346V0H0.351562V79.182ZM62.5904 68.2278C62.5904 69.9703 61.5119 71.3848 60.1841 71.3848L47.0405 71.3883V74.3583H29.1029V71.3848H15.5283C14.1997 71.3848 13.1219 69.9703 13.1219 68.2278L7.44634 9.62964C7.44634 7.88591 8.76881 6.47187 10.4015 6.47187H65.2479C66.8803 6.47187 68.2046 7.88591 68.2046 9.62964L62.5904 68.2278Z" fill="white"/>
</svg>
