<svg width="32" height="32" viewBox="0 0 32 32" fill="none" xmlns="http://www.w3.org/2000/svg">
<path d="M0.93934 28.9398C0.353553 29.5256 0.353553 30.4754 0.93934 31.0611C1.52513 31.6469 2.47487 31.6469 3.06066 31.0611L0.93934 28.9398ZM31.7843 1.71622C31.7843 0.88779 31.1127 0.216218 30.2843 0.216218H16.7843C15.9558 0.216218 15.2843 0.88779 15.2843 1.71622C15.2843 2.54464 15.9558 3.21622 16.7843 3.21622H28.7843V15.2162C28.7843 16.0446 29.4558 16.7162 30.2843 16.7162C31.1127 16.7162 31.7843 16.0446 31.7843 15.2162V1.71622ZM3.06066 31.0611L31.3449 2.77688L29.2236 0.655557L0.93934 28.9398L3.06066 31.0611Z" fill="#4C4064"/>
</svg>
