<svg xmlns="http://www.w3.org/2000/svg" width="36" height="48" viewBox="0 0 36 48">
    <path data-name="Rectangle 504" style="fill:none" d="M0 0h36v48H0z"/>
    <g data-name="Group 192">
        <g data-name="Path 49903" style="fill:#fff">
            <path d="M31.5 39.5H.5V.5h23.51l7.527 7.771L31.5 39.5z" style="stroke:none" transform="translate(2 3.479)"/>
            <path d="M1 1v38h30.001l.036-30.527L23.798 1H1M0 0h24.222l7.815 8.069L32 40H0V0z" style="fill:#dcdcdc;stroke:none" transform="translate(2 3.479)"/>
        </g>
        <path data-name="Path 49904" d="M865.062 1652.414v8.216h7.494z" transform="translate(-839 -1648.521)" style="fill:#dcdcdc"/>
        <g data-name="Group 193">
            <path data-name="Path 49905" d="M857.019 1664.393v8.784" transform="translate(-839 -1647.678)" style="stroke:#bec2c4;stroke-width:2px;fill:none"/>
            <path data-name="Path 49906" d="m861.461 1669.5-4.4 4.4-4.4-4.4z" transform="translate(-839.046 -1646.199)" style="fill:#bec2c4"/>
            <path data-name="Path 49907" d="M851.235 1679.026h11.622" transform="translate(-839 -1648.782)" style="stroke:#bec2c4;stroke-width:2px;fill:none"/>
        </g>
    </g>
</svg>
