<svg xmlns="http://www.w3.org/2000/svg" width="259" height="44" viewBox="0 0 259 44">
    <path data-name="Rectangle 53" style="fill:none" d="M0 0h259v44H0z"/>
    <g data-name="Group 45">
        <path data-name="Path 32" d="M105.332 46.313a9.582 9.582 0 0 0-5.069-1.9l-3.02-.42A6.311 6.311 0 0 1 95 43.318a1.1 1.1 0 0 1-.57-1.018 1.535 1.535 0 0 1 .731-1.383 5.7 5.7 0 0 1 2.96-.551 10.675 10.675 0 0 1 2.521.267 9.805 9.805 0 0 1 1.773.6 5.242 5.242 0 0 1 1.042.622c.346.289.426.36.442.374l.4.39 2.409-3.091-.357-.308a11.922 11.922 0 0 0-2.161-1.413 12.756 12.756 0 0 0-2.242-.775 16.078 16.078 0 0 0-4-.4 12.743 12.743 0 0 0-3.756.48 7.326 7.326 0 0 0-2.532 1.309 4.9 4.9 0 0 0-1.427 1.94 6.172 6.172 0 0 0-.42 2.259 4.673 4.673 0 0 0 1.817 3.969 10.474 10.474 0 0 0 4.8 1.732l2.433.352a6.5 6.5 0 0 1 2.654.745 1.29 1.29 0 0 1 .576 1.157 1.39 1.39 0 0 1-.816 1.369 6.654 6.654 0 0 1-2.878.491 12.836 12.836 0 0 1-4.572-.794 10.751 10.751 0 0 1-1.364-.606 6.583 6.583 0 0 1-.625-.363l-.453-.344-1.94 3.407.355.265c.071.055.229.161.8.5a9.812 9.812 0 0 0 1.765.783 20.241 20.241 0 0 0 2.619.687 18.009 18.009 0 0 0 3.459.306c2.8 0 4.932-.576 6.332-1.71a5.586 5.586 0 0 0 2.155-4.52 4.81 4.81 0 0 0-1.59-3.732" transform="translate(39.984 -26.729)" style="fill:#fff"/>
        <path data-name="Path 33" d="M120.481 46.313a9.582 9.582 0 0 0-5.069-1.9l-3.02-.42a6.275 6.275 0 0 1-2.245-.674 1.1 1.1 0 0 1-.573-1.018 1.535 1.535 0 0 1 .731-1.383 5.717 5.717 0 0 1 2.963-.551 10.651 10.651 0 0 1 2.518.267 9.731 9.731 0 0 1 1.773.6 5.162 5.162 0 0 1 1.042.622c.349.289.426.36.442.374l.4.39 2.406-3.091-.355-.308a11.9 11.9 0 0 0-2.163-1.413 12.712 12.712 0 0 0-2.24-.775 16.093 16.093 0 0 0-4-.4 12.743 12.743 0 0 0-3.756.48 7.277 7.277 0 0 0-2.532 1.309 4.85 4.85 0 0 0-1.427 1.94 6.119 6.119 0 0 0-.423 2.259 4.668 4.668 0 0 0 1.82 3.969 10.45 10.45 0 0 0 4.8 1.732l2.433.352a6.482 6.482 0 0 1 2.654.745 1.292 1.292 0 0 1 .578 1.157 1.393 1.393 0 0 1-.818 1.369 6.64 6.64 0 0 1-2.875.491 12.837 12.837 0 0 1-4.575-.794 10.929 10.929 0 0 1-1.364-.606 5.841 5.841 0 0 1-.625-.366l-.453-.338-1.94 3.4.352.262c.074.055.229.161.8.5a9.864 9.864 0 0 0 1.762.783 20.241 20.241 0 0 0 2.619.687 18.029 18.029 0 0 0 3.459.306c2.8 0 4.935-.576 6.332-1.71a5.586 5.586 0 0 0 2.155-4.52 4.81 4.81 0 0 0-1.59-3.732" transform="translate(66.161 -26.729)" style="fill:#fff"/>
        <path data-name="Path 34" d="M101.082 62.314a7.351 7.351 0 0 0 2.436-.382 7.124 7.124 0 0 0 1.986-1.078 8.567 8.567 0 0 0 1.661-1.735 26.3 26.3 0 0 0 1.492-2.3c.917-1.577 1.792-3.178 2.6-4.758s1.6-3.23 2.346-4.891a111.57 111.57 0 0 0 2.193-4.948c.292-.709 1.271-3.2 1.83-4.621l.267-.679H113l-.125.311c-.112.273-.325.813-.562 1.416-.314.791-.668 1.689-.881 2.21q-.565 1.371-1.195 2.864c-.409.968-.854 1.97-1.312 2.976-.3.644-.589 1.269-.873 1.866a229.653 229.653 0 0 1-3.427-6.34q-.949-1.829-1.67-3.235a60.625 60.625 0 0 1-.889-1.773l-.131-.292h-5.652l9.376 16.352-.783 1.506a25.798 25.798 0 0 1-1.034 1.727 5.517 5.517 0 0 1-.933 1.1 3.14 3.14 0 0 1-.941.578 3.087 3.087 0 0 1-1.094.18h-2.55v3.95z" transform="translate(51.793 -26.219)" style="fill:#fff"/>
        <path data-name="Path 35" d="M124.364 53.562c-.068.046-.177.117-.344.224a4.6 4.6 0 0 1-.57.3 4.938 4.938 0 0 1-.8.27 3.883 3.883 0 0 1-.936.106 2.7 2.7 0 0 1-1.792-.535 2.623 2.623 0 0 1-.6-2.03v-8.584h4.878l-.025-4.021h-4.848v-3.92h-4.654v3.92h-2.886v4.021h2.886v9.043a7.615 7.615 0 0 0 .36 2.371 5.093 5.093 0 0 0 3.126 3.265 7.719 7.719 0 0 0 2.785.456 8.763 8.763 0 0 0 2.144-.243 9.911 9.911 0 0 0 1.612-.54 5.516 5.516 0 0 0 1.121-.638c.256-.2.428-.333.524-.4l.363-.276-1.921-3.072z" transform="translate(78.594 -28.901)" style="fill:#fff"/>
        <path data-name="Path 36" d="M133.312 38.653a7.267 7.267 0 0 0-2.6-1.511 10.712 10.712 0 0 0-3.525-.54 10.181 10.181 0 0 0-3.923.742 9.107 9.107 0 0 0-3.088 2.1 9.676 9.676 0 0 0-2.024 3.227 11.359 11.359 0 0 0-.717 4.1 10.869 10.869 0 0 0 .758 4.207 8.3 8.3 0 0 0 2.117 3.031 8.912 8.912 0 0 0 3.151 1.79 12.222 12.222 0 0 0 3.833.589 15.468 15.468 0 0 0 2.564-.2 20.209 20.209 0 0 0 2.06-.45 9.594 9.594 0 0 0 1.482-.538c.376-.183.625-.308.761-.39l.374-.221-1.525-3.571-.491.3a8.141 8.141 0 0 1-1.631.636 10.746 10.746 0 0 1-3.143.379 6.092 6.092 0 0 1-3.827-1.088 4.334 4.334 0 0 1-1.558-2.526h13.1v-4.861a7.516 7.516 0 0 0-.551-2.9 6.494 6.494 0 0 0-1.6-2.3m-2.33 5.268v1.236h-8.773a5.046 5.046 0 0 1 .213-.715l.093-.273a5.561 5.561 0 0 1 .955-1.73 5 5 0 0 1 1.555-1.266 4.483 4.483 0 0 1 2.125-.488 4.823 4.823 0 0 1 1.8.3 3.492 3.492 0 0 1 1.189.753 2.6 2.6 0 0 1 .638 1 3.666 3.666 0 0 1 .2 1.178" transform="translate(88.347 -26.776)" style="fill:#fff"/>
        <path data-name="Path 37" d="M153.714 40.643a6.283 6.283 0 0 0-1.683-2.253 7.283 7.283 0 0 0-2.491-1.342 10.007 10.007 0 0 0-3-.445 8.286 8.286 0 0 0-4.078.96 7.4 7.4 0 0 0-2.294 1.94 6.756 6.756 0 0 0-2.633-2.065 10.347 10.347 0 0 0-4.235-.838 19.765 19.765 0 0 0-3.069.218 19.5 19.5 0 0 0-2.368.5 15.015 15.015 0 0 0-1.6.548c-.4.169-.644.276-.75.33l-.273.136V55.83h4.619V41.672c.166-.065.431-.166.857-.306a8.4 8.4 0 0 1 2.518-.292 4.158 4.158 0 0 1 3.1 1.086 4.981 4.981 0 0 1 1.086 3.593V55.83h4.618v-9.938a5.22 5.22 0 0 1 1.094-3.686 3.724 3.724 0 0 1 2.845-1.132 3.542 3.542 0 0 1 2.736 1 4.853 4.853 0 0 1 .957 3.355v10.4h4.654V43.786a7.669 7.669 0 0 0-.608-3.143" transform="translate(101.838 -26.774)" style="fill:#fff"/>
        <path data-name="Path 38" d="M72.36 62.759a6.274 6.274 0 0 0 4.274-5.859 5.649 5.649 0 0 0-1.563-3.814 6.33 6.33 0 0 0-1.173-.952 8.907 8.907 0 0 0 1.83-2.458 8.313 8.313 0 0 0 .835-3.789 9.815 9.815 0 0 0-.466-2.864 5.882 5.882 0 0 0-1.042-1.967h1.416l1.367-4.365h-10.58a10.179 10.179 0 0 0-3.68.655 8.677 8.677 0 0 0-2.952 1.863 8.848 8.848 0 0 0-1.959 2.859 9.155 9.155 0 0 0-.715 3.639 9.281 9.281 0 0 0 .7 3.636 8.534 8.534 0 0 0 1.94 2.862 8.922 8.922 0 0 0 2.949 1.882 9.955 9.955 0 0 0 5.328.524 9.12 9.12 0 0 0 1.342-.319 2.813 2.813 0 0 1 1.664 2.428 2.488 2.488 0 0 1-.338 1.389c-.832 1.263-2.232 1.683-4.348 1.683a12.867 12.867 0 0 1-4.722-.938 8.008 8.008 0 0 1-2.038-1.247L58.5 61.062a7.72 7.72 0 0 0 3.394 1.76 17.211 17.211 0 0 0 5.388.8 14.086 14.086 0 0 0 5.077-.865m1.7-.914a6.1 6.1 0 0 0 1.9-2.114m-3.943-14.02A5.637 5.637 0 0 1 70.7 49.6a4.362 4.362 0 0 1-3.445 1.443 4.406 4.406 0 0 1-3.478-1.443 5.637 5.637 0 0 1-1.312-3.89 5.574 5.574 0 0 1 1.312-3.852 4.9 4.9 0 0 1 6.929-.016 5.572 5.572 0 0 1 1.309 3.868" transform="translate(-14.433 -26.618)" style="fill:#fff"/>
        <path data-name="Path 39" d="M89.3 38.8a8.305 8.305 0 0 0-2.886-1.569 12.127 12.127 0 0 0-3.71-.537 21.669 21.669 0 0 0-3.219.218 23.1 23.1 0 0 0-2.553.513 17.008 17.008 0 0 0-1.765.551c-.45.175-.726.289-.824.338l-.226.112v17.663h4.509V41.314c.2-.074.529-.191 1.078-.366a9.675 9.675 0 0 1 2.785-.322 4.762 4.762 0 0 1 3.641 1.234 5.309 5.309 0 0 1 1.148 3.7v10.529h4.512V44.525a7.926 7.926 0 0 0-.647-3.252A6.987 6.987 0 0 0 89.3 38.8" transform="translate(13.492 -26.618)" style="fill:#fff"/>
        <path data-name="Path 40" d="M82.024 38.755a7.454 7.454 0 0 0-2.616-1.522 10.925 10.925 0 0 0-3.563-.54 10.242 10.242 0 0 0-3.958.747 9.126 9.126 0 0 0-3.113 2.122 9.674 9.674 0 0 0-2.043 3.255A11.471 11.471 0 0 0 66 46.964a10.948 10.948 0 0 0 .767 4.248 8.313 8.313 0 0 0 2.133 3.055 9.007 9.007 0 0 0 3.175 1.8 12.421 12.421 0 0 0 3.876.595 15.523 15.523 0 0 0 2.6-.2 19.086 19.086 0 0 0 2.09-.462 9.409 9.409 0 0 0 1.5-.546c.387-.188.641-.319.767-.393l.306-.183-1.474-3.451-.4.248a8.115 8.115 0 0 1-1.686.657 11.005 11.005 0 0 1-3.23.393 6.294 6.294 0 0 1-3.964-1.132 4.538 4.538 0 0 1-1.65-2.75h13.372v-4.855a7.6 7.6 0 0 0-.551-2.919 6.581 6.581 0 0 0-1.607-2.313m-2.21 5.3v1.356h-9.158a4.739 4.739 0 0 1 .243-.862l.1-.273a5.8 5.8 0 0 1 .988-1.8 5.258 5.258 0 0 1 1.613-1.313 4.658 4.658 0 0 1 2.21-.507 5.063 5.063 0 0 1 1.874.311 3.721 3.721 0 0 1 1.247.791 2.725 2.725 0 0 1 .669 1.061 3.852 3.852 0 0 1 .21 1.233" transform="translate(-.519 -26.618)" style="fill:#fff"/>
        <path data-name="Path 41" d="M99.894 43.988a7.6 7.6 0 0 0-.551-2.919 6.557 6.557 0 0 0-1.607-2.313 7.462 7.462 0 0 0-2.616-1.522 10.925 10.925 0 0 0-3.563-.54 10.242 10.242 0 0 0-3.958.747 9.163 9.163 0 0 0-3.115 2.122 9.7 9.7 0 0 0-2.041 3.255 11.472 11.472 0 0 0-.726 4.147 11.019 11.019 0 0 0 .764 4.248 8.318 8.318 0 0 0 2.133 3.053 8.972 8.972 0 0 0 3.176 1.804 12.421 12.421 0 0 0 3.876.595 15.547 15.547 0 0 0 2.6-.2A19.383 19.383 0 0 0 96.35 56a9.354 9.354 0 0 0 1.5-.546c.385-.188.641-.319.764-.393l.308-.183-1.473-3.454-.4.248a8.291 8.291 0 0 1-1.686.657 11.013 11.013 0 0 1-3.233.393 6.291 6.291 0 0 1-3.961-1.132 4.538 4.538 0 0 1-1.65-2.75h13.375zm-4.368.065v1.356h-9.155a4.207 4.207 0 0 1 .24-.857l.1-.278a5.743 5.743 0 0 1 .988-1.8 5.28 5.28 0 0 1 1.615-1.315 4.669 4.669 0 0 1 2.212-.507 5.063 5.063 0 0 1 1.874.311 3.749 3.749 0 0 1 1.247.791 2.757 2.757 0 0 1 .674 1.061 3.853 3.853 0 0 1 .21 1.233" transform="translate(26.631 -26.618)" style="fill:#fff"/>
        <path data-name="Path 42" d="M54.233 43.856a3.092 3.092 0 0 0-3.1 3.072v5.391a3.1 3.1 0 0 0 6.206 0v-5.391a3.09 3.09 0 0 0-3.1-3.072" transform="translate(-26.225 -14.241)" style="fill:#00a976"/>
        <path data-name="Path 43" d="M52.461 43.982a3.1 3.1 0 0 1-6.206 0v-7.093a3.1 3.1 0 0 1 6.206 0z" transform="translate(-34.647 -31.64)" style="fill:#2980c2"/>
        <path data-name="Path 44" d="M48.56 56.331a3.1 3.1 0 0 1-6.2 0v-16.84a3.1 3.1 0 1 1 6.2 0z" transform="translate(-41.383 -27.147)" style="fill:#2980c2"/>
        <path data-name="Path 45" d="M62.2 33.787a3.55 3.55 0 0 0-3.538 3.555v8.353a3.09 3.09 0 0 1-1.959 3.156C54.443 49.825 49.7 52 49.7 52a5.9 5.9 0 0 0-3.437 5.478l-.005 3.039v8.724a3.545 3.545 0 1 0 7.09 0v-8.777a3.717 3.717 0 0 1 .221-1.484 3.066 3.066 0 0 1 1.62-1.683c4.673-2.111 10.555-4.545 10.555-8.506V37.342a3.55 3.55 0 0 0-3.544-3.555" transform="translate(-34.645 -31.64)" style="fill:#009589"/>
    </g>
</svg>
