<svg xmlns="http://www.w3.org/2000/svg" width="190" height="32" viewBox="0 0 190 32">
    <path data-name="Rectangle 53" style="fill:none" d="M0 0h190v32H0z"/>
    <g data-name="Group 45">
        <path data-name="Path 32" d="M101.117 43.744a7.04 7.04 0 0 0-3.724-1.4l-2.219-.309a4.637 4.637 0 0 1-1.652-.5.809.809 0 0 1-.422-.735 1.128 1.128 0 0 1 .537-1.016 4.187 4.187 0 0 1 2.175-.4 7.843 7.843 0 0 1 1.852.2 7.2 7.2 0 0 1 1.3.441 3.852 3.852 0 0 1 .766.457c.255.212.313.265.325.275l.293.287 1.77-2.271-.263-.226a8.759 8.759 0 0 0-1.587-1.038 9.372 9.372 0 0 0-1.647-.569 11.812 11.812 0 0 0-2.938-.3 9.362 9.362 0 0 0-2.76.353 5.382 5.382 0 0 0-1.86.962 3.6 3.6 0 0 0-1.048 1.425 4.535 4.535 0 0 0-.309 1.66 3.433 3.433 0 0 0 1.335 2.916 7.7 7.7 0 0 0 3.529 1.273l1.788.259a4.775 4.775 0 0 1 1.95.547.947.947 0 0 1 .423.85 1.022 1.022 0 0 1-.6 1.006 4.889 4.889 0 0 1-2.114.361 9.431 9.431 0 0 1-3.359-.583 7.9 7.9 0 0 1-1-.445 4.838 4.838 0 0 1-.459-.267l-.333-.253-1.425 2.5.259.192c.052.04.168.118.585.371a7.209 7.209 0 0 0 1.3.575 14.871 14.871 0 0 0 1.924.505 13.231 13.231 0 0 0 2.541.224 7.311 7.311 0 0 0 4.652-1.257 4.1 4.1 0 0 0 1.583-3.321 3.534 3.534 0 0 0-1.168-2.742" transform="translate(5.646 -29.356)" style="fill:#54565a"/>
        <path data-name="Path 33" d="M116.266 43.744a7.04 7.04 0 0 0-3.724-1.4l-2.219-.309a4.61 4.61 0 0 1-1.649-.5.807.807 0 0 1-.421-.748 1.128 1.128 0 0 1 .537-1.016 4.2 4.2 0 0 1 2.177-.4 7.825 7.825 0 0 1 1.85.2 7.15 7.15 0 0 1 1.3.441 3.793 3.793 0 0 1 .766.457c.257.212.313.265.325.275l.295.287 1.768-2.271-.261-.226a8.742 8.742 0 0 0-1.589-1.038 9.339 9.339 0 0 0-1.645-.569 11.823 11.823 0 0 0-2.938-.3 9.362 9.362 0 0 0-2.76.353 5.346 5.346 0 0 0-1.86.962 3.564 3.564 0 0 0-1.048 1.425 4.5 4.5 0 0 0-.311 1.66 3.429 3.429 0 0 0 1.337 2.916 7.677 7.677 0 0 0 3.527 1.273l1.788.259a4.762 4.762 0 0 1 1.95.547.949.949 0 0 1 .425.85 1.023 1.023 0 0 1-.6 1.006 4.879 4.879 0 0 1-2.112.361 9.432 9.432 0 0 1-3.361-.583 8.031 8.031 0 0 1-1-.445 4.29 4.29 0 0 1-.459-.269l-.333-.249-1.425 2.5.259.192c.054.04.168.118.587.371a7.247 7.247 0 0 0 1.295.575 14.871 14.871 0 0 0 1.924.505 13.246 13.246 0 0 0 2.541.224 7.3 7.3 0 0 0 4.652-1.257 4.1 4.1 0 0 0 1.583-3.321 3.534 3.534 0 0 0-1.168-2.742" transform="translate(20.859 -29.356)" style="fill:#54565a"/>
        <path data-name="Path 34" d="M99.807 55.577a5.4 5.4 0 0 0 1.79-.281 5.234 5.234 0 0 0 1.459-.792 6.294 6.294 0 0 0 1.221-1.275 19.322 19.322 0 0 0 1.1-1.688c.673-1.158 1.317-2.335 1.91-3.5s1.174-2.373 1.724-3.594c.283-.6.561-1.209.832-1.818a74.21 74.21 0 0 0 .78-1.818c.214-.521.934-2.351 1.345-3.4l.2-.5h-3.6l-.092.228c-.082.2-.239.6-.413 1.04-.23.581-.491 1.241-.647 1.623q-.415 1.007-.878 2.1a84.38 84.38 0 0 1-1.605 3.558c-.325-.579-.677-1.215-1.048-1.9-.519-.95-1.014-1.88-1.471-2.762s-.876-1.688-1.227-2.377-.571-1.122-.653-1.3l-.1-.214h-4.153l6.889 12.013-.575 1.106c-.269.487-.525.914-.76 1.269a4.053 4.053 0 0 1-.685.806 2.307 2.307 0 0 1-.691.425 2.268 2.268 0 0 1-.8.132h-1.87v2.9z" transform="translate(12.508 -29.06)" style="fill:#54565a"/>
        <path data-name="Path 35" d="M121.028 48.736c-.05.034-.13.086-.253.164a3.376 3.376 0 0 1-.419.22 3.627 3.627 0 0 1-.585.2 2.853 2.853 0 0 1-.687.078 1.986 1.986 0 0 1-1.317-.398 1.927 1.927 0 0 1-.439-1.491v-6.303h3.58l-.018-2.954h-3.562v-2.88h-3.419v2.88h-2.12v2.954h2.12v6.644a5.6 5.6 0 0 0 .265 1.742 3.742 3.742 0 0 0 2.3 2.4 5.671 5.671 0 0 0 2.046.335 6.438 6.438 0 0 0 1.575-.178 7.281 7.281 0 0 0 1.185-.4 4.053 4.053 0 0 0 .824-.469c.188-.146.315-.245.385-.295l.267-.2-1.411-2.257z" transform="translate(28.084 -30.618)" style="fill:#54565a"/>
        <path data-name="Path 36" d="M129.1 38.109A5.339 5.339 0 0 0 127.187 37a7.87 7.87 0 0 0-2.589-.4 7.48 7.48 0 0 0-2.882.545 6.691 6.691 0 0 0-2.269 1.545 7.109 7.109 0 0 0-1.487 2.371 8.345 8.345 0 0 0-.527 3.014 7.986 7.986 0 0 0 .557 3.091 6.1 6.1 0 0 0 1.555 2.227 6.547 6.547 0 0 0 2.315 1.315 8.979 8.979 0 0 0 2.816.433 11.364 11.364 0 0 0 1.884-.148 14.847 14.847 0 0 0 1.513-.331 7.049 7.049 0 0 0 1.092-.4c.277-.134.459-.226.559-.287l.275-.162-1.12-2.624-.361.222a5.981 5.981 0 0 1-1.2.467 7.9 7.9 0 0 1-2.309.279 4.476 4.476 0 0 1-2.812-.8 3.184 3.184 0 0 1-1.144-1.856h9.624v-3.568a5.522 5.522 0 0 0-.4-2.133 4.771 4.771 0 0 0-1.174-1.692m-1.712 3.87v.908h-6.446a3.709 3.709 0 0 1 .156-.525l.068-.2a4.086 4.086 0 0 1 .7-1.271 3.676 3.676 0 0 1 1.142-.93 3.293 3.293 0 0 1 1.561-.359 3.543 3.543 0 0 1 1.325.22 2.565 2.565 0 0 1 .874.553 1.911 1.911 0 0 1 .469.738 2.693 2.693 0 0 1 .148.866" transform="translate(33.752 -29.383)" style="fill:#54565a"/>
        <path data-name="Path 37" d="M146.159 39.571a4.617 4.617 0 0 0-1.237-1.656 5.351 5.351 0 0 0-1.83-.986 7.352 7.352 0 0 0-2.2-.327 6.088 6.088 0 0 0-3 .705 5.439 5.439 0 0 0-1.686 1.425 4.964 4.964 0 0 0-1.934-1.517 7.6 7.6 0 0 0-3.109-.613 14.521 14.521 0 0 0-2.255.16 14.328 14.328 0 0 0-1.74.371 11.031 11.031 0 0 0-1.178.4c-.293.124-.473.2-.551.243l-.2.1v12.853h3.393v-10.4c.122-.048.317-.122.629-.224a6.173 6.173 0 0 1 1.85-.214 3.055 3.055 0 0 1 2.277.8 3.659 3.659 0 0 1 .8 2.64v7.4h3.393v-7.3a3.835 3.835 0 0 1 .8-2.708 2.736 2.736 0 0 1 2.09-.832 2.6 2.6 0 0 1 2.01.738 3.565 3.565 0 0 1 .7 2.465v7.638h3.419V41.88a5.635 5.635 0 0 0-.447-2.309" transform="translate(41.592 -29.382)" style="fill:#54565a"/>
        <path data-name="Path 38" d="M68.537 55.844a4.61 4.61 0 0 0 3.141-4.3 4.15 4.15 0 0 0-1.148-2.8 4.651 4.651 0 0 0-.862-.7 6.544 6.544 0 0 0 1.345-1.806 6.107 6.107 0 0 0 .613-2.784 7.211 7.211 0 0 0-.343-2.1 4.321 4.321 0 0 0-.766-1.445h1.04l1-3.207h-7.768a7.478 7.478 0 0 0-2.7.481 6.375 6.375 0 0 0-2.169 1.369 6.5 6.5 0 0 0-1.439 2.1 6.726 6.726 0 0 0-.525 2.674 6.819 6.819 0 0 0 .513 2.672 6.27 6.27 0 0 0 1.425 2.1 6.555 6.555 0 0 0 2.167 1.383 7.314 7.314 0 0 0 3.914.385 6.7 6.7 0 0 0 .986-.234 2.066 2.066 0 0 1 1.223 1.784 1.828 1.828 0 0 1-.249 1.02c-.611.928-1.639 1.237-3.195 1.237a9.453 9.453 0 0 1-3.469-.689 5.883 5.883 0 0 1-1.5-.916L58.356 54.6a5.672 5.672 0 0 0 2.493 1.293 12.645 12.645 0 0 0 3.958.589 10.349 10.349 0 0 0 3.73-.635m1.249-.671a4.485 4.485 0 0 0 1.395-1.553m-2.9-10.3a4.141 4.141 0 0 1-.964 2.858 3.2 3.2 0 0 1-2.531 1.06 3.237 3.237 0 0 1-2.557-1.06 4.141 4.141 0 0 1-.964-2.858 4.1 4.1 0 0 1 .964-2.83 3.6 3.6 0 0 1 5.091-.012 4.094 4.094 0 0 1 .962 2.842" transform="translate(-25.979 -29.292)" style="fill:#54565a"/>
        <path data-name="Path 39" d="M85.269 38.24a6.1 6.1 0 0 0-2.12-1.152 8.909 8.909 0 0 0-2.726-.395 15.92 15.92 0 0 0-2.365.16 16.975 16.975 0 0 0-1.876.377 12.5 12.5 0 0 0-1.3.4 8.919 8.919 0 0 0-.605.249l-.166.082v12.982h3.313V40.088c.146-.054.389-.14.792-.269a7.108 7.108 0 0 1 2.046-.237 3.5 3.5 0 0 1 2.678.906 3.9 3.9 0 0 1 .844 2.722v7.732H87.1v-8.5a5.823 5.823 0 0 0-.475-2.389 5.134 5.134 0 0 0-1.357-1.818" transform="translate(-9.75 -29.292)" style="fill:#54565a"/>
        <path data-name="Path 40" d="M77.774 38.208a5.476 5.476 0 0 0-1.922-1.118 8.027 8.027 0 0 0-2.618-.4 7.525 7.525 0 0 0-2.908.549 6.7 6.7 0 0 0-2.287 1.561 7.108 7.108 0 0 0-1.5 2.391A8.428 8.428 0 0 0 66 44.239a8.044 8.044 0 0 0 .563 3.121 6.107 6.107 0 0 0 1.57 2.24 6.618 6.618 0 0 0 2.333 1.325 9.125 9.125 0 0 0 2.848.437 11.4 11.4 0 0 0 1.908-.15 14.023 14.023 0 0 0 1.535-.337 6.913 6.913 0 0 0 1.1-.4c.285-.138.471-.234.563-.289l.225-.134-1.082-2.537-.3.182a5.962 5.962 0 0 1-1.239.483 8.086 8.086 0 0 1-2.373.289 4.624 4.624 0 0 1-2.912-.832 3.334 3.334 0 0 1-1.213-2.02h9.827v-3.565a5.583 5.583 0 0 0-.4-2.145 4.835 4.835 0 0 0-1.181-1.7M76.15 42.1v1h-6.728a3.482 3.482 0 0 1 .178-.633l.07-.2a4.26 4.26 0 0 1 .726-1.319 3.863 3.863 0 0 1 1.189-.966 3.422 3.422 0 0 1 1.623-.373 3.72 3.72 0 0 1 1.377.228 2.734 2.734 0 0 1 .916.581 2 2 0 0 1 .5.78 2.83 2.83 0 0 1 .154.906" transform="translate(-17.893 -29.292)" style="fill:#54565a"/>
        <path data-name="Path 41" d="M95.071 42.052a5.583 5.583 0 0 0-.4-2.145 4.817 4.817 0 0 0-1.18-1.7 5.482 5.482 0 0 0-1.922-1.118 8.027 8.027 0 0 0-2.618-.4 7.525 7.525 0 0 0-2.908.549 6.732 6.732 0 0 0-2.294 1.562 7.123 7.123 0 0 0-1.5 2.391 8.428 8.428 0 0 0-.533 3.046 8.1 8.1 0 0 0 .561 3.121 6.111 6.111 0 0 0 1.568 2.242 6.591 6.591 0 0 0 2.333 1.327 9.125 9.125 0 0 0 2.848.437 11.422 11.422 0 0 0 1.908-.15 14.241 14.241 0 0 0 1.533-.337 6.872 6.872 0 0 0 1.1-.4 8.53 8.53 0 0 0 .561-.289l.226-.134-1.082-2.537-.3.182a6.091 6.091 0 0 1-1.239.483 8.091 8.091 0 0 1-2.375.289 4.622 4.622 0 0 1-2.91-.832 3.334 3.334 0 0 1-1.213-2.02h9.827zm-3.209.048v1h-6.726a3.091 3.091 0 0 1 .176-.629l.07-.2a4.219 4.219 0 0 1 .726-1.319 3.879 3.879 0 0 1 1.187-.966 3.431 3.431 0 0 1 1.625-.373 3.72 3.72 0 0 1 1.377.228 2.754 2.754 0 0 1 .916.581 2.026 2.026 0 0 1 .5.78 2.831 2.831 0 0 1 .154.906" transform="translate(-2.114 -29.292)" style="fill:#54565a"/>
        <path data-name="Path 42" d="M53.41 43.856a2.272 2.272 0 0 0-2.281 2.257v3.96a2.28 2.28 0 0 0 4.56 0v-3.96a2.27 2.27 0 0 0-2.279-2.257" transform="translate(-32.832 -22.098)" style="fill:#00a976"/>
        <path data-name="Path 43" d="M50.815 41.277a2.28 2.28 0 0 1-4.56 0v-5.211a2.28 2.28 0 0 1 4.56 0z" transform="translate(-37.727 -32.21)" style="fill:#2980c2"/>
        <path data-name="Path 44" d="M46.915 51.04a2.279 2.279 0 0 1-4.558 0V38.668a2.279 2.279 0 1 1 4.558 0z" transform="translate(-41.641 -29.599)" style="fill:#2980c2"/>
        <path data-name="Path 45" d="M57.973 33.787a2.608 2.608 0 0 0-2.6 2.612v6.137a2.27 2.27 0 0 1-1.439 2.319c-1.664.716-5.149 2.315-5.149 2.315a4.335 4.335 0 0 0-2.525 4.025v8.643a2.6 2.6 0 1 0 5.209 0v-6.45a2.731 2.731 0 0 1 .162-1.09 2.252 2.252 0 0 1 1.191-1.237c3.433-1.551 7.754-3.339 7.754-6.249V36.4a2.608 2.608 0 0 0-2.6-2.612" transform="translate(-37.726 -32.21)" style="fill:#009589"/>
    </g>
</svg>
