<svg xmlns="http://www.w3.org/2000/svg" width="24" height="24" viewBox="0 0 24 24">
    <path data-name="Rectangle 245" style="fill:none" d="M0 0h24v24H0z"/>
    <path d="M81.355-785.543a1.3 1.3 0 0 1-.949-.407 1.3 1.3 0 0 1-.406-.95v-11.747a1.3 1.3 0 0 1 .407-.949 1.3 1.3 0 0 1 .949-.407h15.36a1.3 1.3 0 0 1 .949.407 1.3 1.3 0 0 1 .407.949v11.747a1.3 1.3 0 0 1-.407.949 1.3 1.3 0 0 1-.949.407zm7.68-6.822 7.68-5.037v-1.242l-7.68 4.924-7.68-4.924v1.242z" transform="translate(-77.036 804.771)" style="fill:#fff"/>
</svg>
