<?xml version="1.0" encoding="utf-8"?>
<!-- Generator: Adobe Illustrator 28.1.0, SVG Export Plug-In . SVG Version: 6.00 Build 0)  -->
<svg version="1.1" id="레이어_1" xmlns="http://www.w3.org/2000/svg" xmlns:xlink="http://www.w3.org/1999/xlink" x="0px"
	 y="0px" viewBox="0 0 36 36" style="enable-background:new 0 0 36 36;" xml:space="preserve">
<style type="text/css">
	.st0{fill:none;}
</style>
<path class="st0" d="M0,0h36v36H0V0z"/>
<g transform="translate(-1808.5 -36)">
	<path d="M1813.3,42h22c1,0,1.9,0.8,1.9,1.8l0,0c0,1-0.8,1.9-1.9,1.9h-22c-1,0-1.8-0.8-1.8-1.9l0,0C1811.5,42.8,1812.3,42,1813.3,42
		z"/>
	<path d="M1818.5,52.3h22c1,0,1.9,0.8,1.9,1.8l0,0c0,1-0.8,1.9-1.9,1.9h-22c-1,0-1.8-0.8-1.8-1.9l0,0
		C1816.6,53.1,1817.5,52.3,1818.5,52.3z"/>
	<path d="M1813.3,62.6h11.7c1,0,1.8,0.8,1.8,1.9l0,0c0,1-0.8,1.8-1.8,1.8h-11.7c-1,0-1.8-0.8-1.8-1.8l0,0
		C1811.5,63.4,1812.3,62.6,1813.3,62.6z"/>
	<path d="M1831.4,62.6h4c1,0,1.8,0.8,1.8,1.9l0,0c0,1-0.8,1.8-1.8,1.8h-4c-1,0-1.8-0.8-1.8-1.8l0,0
		C1829.5,63.4,1830.3,62.6,1831.4,62.6z"/>
</g>
</svg>
