<svg xmlns="http://www.w3.org/2000/svg" width="240" height="42" viewBox="0 0 240 42">
    <defs>
        <linearGradient id="mk3rqi7y2a" x1=".09" y1=".5" x2="1" y2="1" gradientUnits="objectBoundingBox">
            <stop offset="0" stop-color="#28d1c9"/>
            <stop offset="1" stop-color="#21d2f5"/>
        </linearGradient>
    </defs>
    <path data-name="Rectangle 620" style="fill:none" d="M0 0h240v42H0z"/>
    <path data-name="Path 50299" d="M11.8.56a30.615 30.615 0 0 1-3.68-.2 19.792 19.792 0 0 1-3.04-.6 16.807 16.807 0 0 1-2.72-1.04v-6.16A13.063 13.063 0 0 0 6.52-5.2a14.144 14.144 0 0 0 4.4.76 4.812 4.812 0 0 0 2.82-.7 2.453 2.453 0 0 0 .98-2.14 2.057 2.057 0 0 0-.9-1.74 8.794 8.794 0 0 0-2.38-1.16q-1.48-.5-3.32-1.14a15.1 15.1 0 0 1-2.28-.92 7.891 7.891 0 0 1-2-1.42 6.3 6.3 0 0 1-1.4-2.1 7.868 7.868 0 0 1-.52-3.04 8.531 8.531 0 0 1 .6-3.16 7.573 7.573 0 0 1 1.86-2.72 8.968 8.968 0 0 1 3.22-1.9 13.677 13.677 0 0 1 4.6-.7 18.676 18.676 0 0 1 2.9.2 15.634 15.634 0 0 1 2.42.58 17.4 17.4 0 0 1 2.36.98v6.24a15.123 15.123 0 0 0-2.06-1.42 14.254 14.254 0 0 0-2.38-1.1 8.471 8.471 0 0 0-2.6-.48 7.239 7.239 0 0 0-2.2.24 3.207 3.207 0 0 0-1.56.9 2.267 2.267 0 0 0-.56 1.58 2.3 2.3 0 0 0 .68 1.76 5.233 5.233 0 0 0 1.88 1.06q1.2.42 2.68.9a28.374 28.374 0 0 1 3.02 1.06 9.283 9.283 0 0 1 2.42 1.46 5.869 5.869 0 0 1 1.6 2.16 7.657 7.657 0 0 1 .56 3.08 8.741 8.741 0 0 1-1.12 4.38A7.95 7.95 0 0 1 17-.58 10.862 10.862 0 0 1 11.8.56zM43.72-13.6V0h-5.96v-12.4a4.282 4.282 0 0 0-.22-1.4 2.96 2.96 0 0 0-.66-1.1 2.945 2.945 0 0 0-1.2-.72 5.719 5.719 0 0 0-1.84-.26 6.245 6.245 0 0 0-1.7.22 7.332 7.332 0 0 0-1.26.46V0h-5.96v-18.52a14.146 14.146 0 0 1 2-.82 24.9 24.9 0 0 1 2.72-.74q1.48-.32 2.98-.52a21.131 21.131 0 0 1 2.78-.2 13.079 13.079 0 0 1 4.58.7 5.344 5.344 0 0 1 2.8 2.26 8.192 8.192 0 0 1 .94 4.24zm-6.12-3.56a12.7 12.7 0 0 1 3-1.9 19.134 19.134 0 0 1 3.72-1.28 16 16 0 0 1 3.64-.46 13.079 13.079 0 0 1 4.58.7 5.344 5.344 0 0 1 2.8 2.26 8.192 8.192 0 0 1 .94 4.24V0h-5.96v-12.4a4.282 4.282 0 0 0-.22-1.4 2.96 2.96 0 0 0-.66-1.1 2.945 2.945 0 0 0-1.2-.72 5.719 5.719 0 0 0-1.84-.26 5.347 5.347 0 0 0-1.7.26 3.857 3.857 0 0 0-1.26.66zM68.56.6A16.826 16.826 0 0 1 65.1.26a8.44 8.44 0 0 1-2.84-1.12 5.319 5.319 0 0 1-1.9-2.12 7.339 7.339 0 0 1-.68-3.34 6.631 6.631 0 0 1 .78-3.28 5.163 5.163 0 0 1 2.38-2.16 9.415 9.415 0 0 1 4.04-.76 12.319 12.319 0 0 1 2.64.28 10.825 10.825 0 0 1 2.3.76 6.294 6.294 0 0 1 1.62 1.04l.24 2.88a7.037 7.037 0 0 0-1.92-.76 9.871 9.871 0 0 0-2.4-.28 5.431 5.431 0 0 0-2.86.58 2.009 2.009 0 0 0-.9 1.82 2.242 2.242 0 0 0 .44 1.36 2.812 2.812 0 0 0 1.18.92 3.841 3.841 0 0 0 1.54.32 10 10 0 0 0 2.86-.28A1.1 1.1 0 0 0 72.44-5v-7.44a3.009 3.009 0 0 0-1.18-2.66 5.8 5.8 0 0 0-3.34-.82 10.707 10.707 0 0 0-3.54.62 9.995 9.995 0 0 0-2.9 1.5v-5.28a12.257 12.257 0 0 1 3.22-1.2 19.721 19.721 0 0 1 4.9-.56 15.62 15.62 0 0 1 2.12.16 11.366 11.366 0 0 1 2.32.58 7.289 7.289 0 0 1 2.14 1.22 5.91 5.91 0 0 1 1.58 2.04 7.046 7.046 0 0 1 .6 3.08l-.04 9.56a3.588 3.588 0 0 1-1.16 2.78A7.151 7.151 0 0 1 73.82.12a24.826 24.826 0 0 1-5.26.48zM82.84 0v-18.12a8.391 8.391 0 0 1 2-1.1 24.391 24.391 0 0 1 3.3-1.12 14.35 14.35 0 0 1 3.74-.5 12.319 12.319 0 0 1 2.96.28 4.5 4.5 0 0 1 1.64.72v4.36a11.592 11.592 0 0 0-1.72-.24q-1.04-.08-2.16-.1t-2.12.02a12.852 12.852 0 0 0-1.68.16V0zm24.6.8q-3.52 0-5.24-1.66a6.228 6.228 0 0 1-1.72-4.7v-10.12h-2.96v-4.56h2.96v-5.56h6.24v5.56h4.44v4.56h-4.44v9.36a2.283 2.283 0 0 0 .44 1.54 1.888 1.888 0 0 0 1.48.5 4.2 4.2 0 0 0 1.32-.24 4.2 4.2 0 0 0 1.2-.6V0a6.382 6.382 0 0 1-1.82.62 10.512 10.512 0 0 1-1.9.18zm17.88-.8v-26.68h18.16v5H131.8v6.36h10.08v5.08H131.8V0zm21.92 0v-19.96h5.96L153.24 0zm-.12-23v-4.6h6.16v4.6zm10.64 4.48a14.146 14.146 0 0 1 2-.82 24.9 24.9 0 0 1 2.72-.74q1.48-.32 2.98-.52a21.131 21.131 0 0 1 2.78-.2 13.6 13.6 0 0 1 4.64.7 5.739 5.739 0 0 1 2.94 2.26 7.672 7.672 0 0 1 1.02 4.24V0h-5.96v-12.4a4.282 4.282 0 0 0-.22-1.4 2.96 2.96 0 0 0-.66-1.1 2.945 2.945 0 0 0-1.2-.72 5.719 5.719 0 0 0-1.84-.26 7.887 7.887 0 0 0-1.84.22 6.83 6.83 0 0 0-1.4.46V0h-5.96zM191 .6a17.061 17.061 0 0 1-4.34-.52 8.579 8.579 0 0 1-3.42-1.74A8.1 8.1 0 0 1 180.98-5a14.737 14.737 0 0 1-.82-5.28 11.58 11.58 0 0 1 2.42-7.76q2.42-2.84 7.26-2.84.64 0 1.68.1a8.987 8.987 0 0 1 2.16.5 4.963 4.963 0 0 1 2 1.36l-1.2 1.84v-11.48h5.92v23.28a4.269 4.269 0 0 1-.8 2.58 6.247 6.247 0 0 1-2.14 1.82 11.894 11.894 0 0 1-3.02 1.1A15.544 15.544 0 0 1 191 .6zm.24-5a6.085 6.085 0 0 0 2.34-.38 1.23 1.23 0 0 0 .9-1.14v-9.32a6.769 6.769 0 0 0-1.54-.62 6.091 6.091 0 0 0-1.58-.22 6.5 6.5 0 0 0-2.84.56 3.6 3.6 0 0 0-1.74 1.88 9.007 9.007 0 0 0-.58 3.56 8.492 8.492 0 0 0 .48 3.02 3.9 3.9 0 0 0 1.58 1.96 5.506 5.506 0 0 0 2.98.7zm22.8 5a11.171 11.171 0 0 1-5.38-1.26 8.929 8.929 0 0 1-3.64-3.6 11.319 11.319 0 0 1-1.3-5.58q0-5.28 2.62-8.18t7.5-2.9a9.275 9.275 0 0 1 5.42 1.44 8.237 8.237 0 0 1 3.02 4.2 19.967 19.967 0 0 1 .92 6.72h-15.4l-.64-3.8h11.12l-.88 1.88a8.848 8.848 0 0 0-.92-4.56 3.205 3.205 0 0 0-2.88-1.32 3.745 3.745 0 0 0-2.02.56 3.621 3.621 0 0 0-1.4 1.86 10.278 10.278 0 0 0-.5 3.58 6.487 6.487 0 0 0 1.38 4.44 5.62 5.62 0 0 0 4.42 1.56 9.62 9.62 0 0 0 2.22-.26 17.009 17.009 0 0 0 2.06-.62q.96-.36 1.64-.64v5.12a18.316 18.316 0 0 1-3.22.98 20 20 0 0 1-4.14.38zm12.52-.6v-18.12a8.391 8.391 0 0 1 2-1.1 24.391 24.391 0 0 1 3.3-1.12 14.35 14.35 0 0 1 3.74-.5 12.319 12.319 0 0 1 2.96.28 4.5 4.5 0 0 1 1.64.72v4.36a11.592 11.592 0 0 0-1.72-.24q-1.04-.08-2.16-.1t-2.12.02a12.851 12.851 0 0 0-1.68.16V0z" transform="translate(-1 34.56)" style="fill:url(#mk3rqi7y2a)"/>
</svg>
