<svg xmlns="http://www.w3.org/2000/svg" xmlns:xlink="http://www.w3.org/1999/xlink" width="506" height="224" viewBox="0 0 506 224">
  <defs>
    <linearGradient id="linear-gradient" x1="1" y1="0.5" x2="0" y2="0.5" gradientUnits="objectBoundingBox">
      <stop offset="0" stop-color="#21c8d6"/>
      <stop offset="1" stop-color="#2cd5c4"/>
    </linearGradient>
  </defs>
  <path id="img_bar" d="M388,260V106.107h24.228a195.617,195.617,0,0,0,69.661-16.746c14.71-6.669,23.085-14.114,50.3-27.565a267.372,267.372,0,0,1,31.946-13.542C586.513,40.455,612.408,36,640,36c32.769,0,63.147,6.285,88.084,16.991,5.545,2.277,12.031,5.165,19.394,8.8,27.212,13.451,35.588,20.9,50.3,27.565a195.609,195.609,0,0,0,69.66,16.746H894V260Z" transform="translate(-388 -36)" fill="url(#linear-gradient)"/>
</svg>
