<svg xmlns="http://www.w3.org/2000/svg" width="46" height="50" viewBox="0 0 46 50">
    <path data-name="Rectangle 788" style="fill:none" d="M0 0h46v50H0z"/>
    <path data-name="Path 50285" d="M54.571 43.856a3.429 3.429 0 0 0-3.442 3.406v5.977a3.441 3.441 0 0 0 6.881 0v-5.977a3.426 3.426 0 0 0-3.439-3.406" transform="translate(-18.01 -9.824)" style="fill:#fff"/>
    <path data-name="Path 50286" d="M53.136 45.09a3.441 3.441 0 0 1-6.881 0v-7.864a3.441 3.441 0 0 1 6.881 0z" transform="translate(-27.878 -30.21)" style="fill:#fff"/>
    <path data-name="Path 50287" d="M49.235 58.5a3.439 3.439 0 0 1-6.878 0V39.829a3.439 3.439 0 1 1 6.878 0z" transform="translate(-35.771 -24.946)" style="fill:#fff"/>
    <path data-name="Path 50288" d="M63.938 33.787a3.936 3.936 0 0 0-3.923 3.941v9.262a3.426 3.426 0 0 1-2.172 3.5c-2.51 1.08-7.77 3.493-7.77 3.493a6.542 6.542 0 0 0-3.811 6.074l-.006 3.369V73.1a3.931 3.931 0 1 0 7.861 0v-9.735a4.121 4.121 0 0 1 .245-1.645 3.4 3.4 0 0 1 1.8-1.866c5.181-2.341 11.7-5.039 11.7-9.431V37.728a3.936 3.936 0 0 0-3.923-3.941" transform="translate(-27.876 -30.21)" style="fill:#fff"/>
</svg>
