<?xml version="1.0" encoding="utf-8"?>
<!-- Generator: Adobe Illustrator 27.3.1, SVG Export Plug-In . SVG Version: 6.00 Build 0)  -->
<svg version="1.1" id="레이어_1" xmlns="http://www.w3.org/2000/svg" xmlns:xlink="http://www.w3.org/1999/xlink" x="0px"
	 y="0px" viewBox="0 0 212.9 298.8" style="enable-background:new 0 0 212.9 298.8;" xml:space="preserve">
<style type="text/css">
	.st0{fill:#3F3F3F;}
	.st1{fill:#B7B7B7;}
	.st2{fill:#999899;}
	.st3{fill:#666666;}
	.st4{clip-path:url(#SVGID_00000169557891203119925480000005325353375950466191_);}
	.st5{clip-path:url(#SVGID_00000183235954516016636030000005384728469090119871_);fill:#FFFFFF;}
	.st6{fill:#FFFFFF;stroke:#000000;stroke-miterlimit:10;}
	.st7{fill:none;}
	.st8{fill:#494949;}
	.st9{fill:none;stroke:#000000;stroke-width:0.75;stroke-miterlimit:10;}
	.st10{fill:#FFFFFF;}
	.st11{fill:#FE330A;}
	.st12{fill:url(#SVGID_00000157304050526230681430000000512691152393227166_);}
	.st13{fill:url(#SVGID_00000089572822520587838890000003110696993582239634_);}
</style>
<polygon class="st0" points="-989.7,-260.7 -241.1,-260.7 -469,-409.9 "/>
<g>
	
		<image style="overflow:visible;opacity:0.5;enable-background:new    ;" width="1077" height="1035" xlink:href="96FBFBE1CF59C10E.png"  transform="matrix(0.2398 0 0 0.2398 -481.4155 -485.3824)">
	</image>
	<g>
		<polygon class="st1" points="-469,-409.9 -241.1,-478.8 -241.1,-260.7 		"/>
	</g>
</g>
<g>
	
		<image style="overflow:visible;opacity:0.5;enable-background:new    ;" width="2606" height="879" xlink:href="96FBFBE1CF59C112.png"  transform="matrix(0.2397 0 0 0.2397 -839.3797 -571.1777)">
	</image>
	<g>
		<polygon class="st2" points="-831.7,-563.2 -236.5,-563.2 -236.5,-475.3 -564.2,-382.7 		"/>
	</g>
</g>
<g>
	
		<image style="overflow:visible;opacity:0.5;enable-background:new    ;" width="2298" height="1399" xlink:href="96FBFBE1CF59C115.png"  transform="matrix(0.2401 0 0 0.2401 -1093.8955 -574.6108)">
	</image>
	<g>
		<polygon class="st3" points="-989.7,-260.7 -564.2,-382.7 -836.2,-566.7 -1085.7,-566.7 -1085.7,-260.7 		"/>
	</g>
</g>
<g>
	<g>
		<defs>
			<polygon id="SVGID_1_" points="-749.8,-204.5 -612.4,-625.2 -917.2,-503 -1057,-296.4 -803.6,-125 			"/>
		</defs>
		<clipPath id="SVGID_00000070837224412461307700000001662215308525549501_">
			<use xlink:href="#SVGID_1_"  style="overflow:visible;"/>
		</clipPath>
		
			<rect x="-825" y="-672.4" transform="matrix(0.5603 -0.8283 0.8283 0.5603 20.7522 -878.2046)" style="clip-path:url(#SVGID_00000070837224412461307700000001662215308525549501_);" width="16.5" height="427.5"/>
	</g>
</g>
<g>
	<g>
		<defs>
			<polygon id="SVGID_00000103957555416823553760000011452879350655786135_" points="-459.4,-179.1 -629.6,-749.3 -545.5,-774.5 
				-360.9,-492.3 			"/>
		</defs>
		<clipPath id="SVGID_00000058569568442761035120000015827642827477834918_">
			<use xlink:href="#SVGID_00000103957555416823553760000011452879350655786135_"  style="overflow:visible;"/>
		</clipPath>
		
			<rect x="-717.1" y="-521.5" transform="matrix(0.9582 -0.286 0.286 0.9582 125.7617 -165.4149)" style="clip-path:url(#SVGID_00000058569568442761035120000015827642827477834918_);fill:#FFFFFF;" width="427.5" height="16.5"/>
	</g>
</g>
<rect x="835.2" y="23.7" width="406" height="248"/>
<rect x="834" y="302" class="st6" width="406" height="248"/>
<path class="st7" d="M878.7-347.1c-1.3-2.7-2.7-5.3-4.3-7.8v90.1c3.3-5.3,6-11,8.1-17.1C890-303.5,888.7-326.6,878.7-347.1z"/>
<g>
	<path d="M697.1-123.6c3.1-1.5,6.2-2.8,9.4-4.1l-82.4-33.9V54.6h32c-5.1-6.5-9.6-13.7-13.3-21.3C614.5-25,638.9-95.3,697.1-123.6z"
		/>
	<path d="M793.4-216.1c-0.7,0.4-1.4,0.7-2.2,1l80.9,33.2v-169.6h-30.7C865-301,843.7-240.5,793.4-216.1z"/>
	<path d="M717.9-210.6c-0.9-0.3-1.8-0.6-2.7-0.9c-25.8-8.9-46.6-27.4-58.5-52s-13.6-52.3-4.6-78.1c1.2-3.4,2.5-6.7,4-9.9H624v175.2
		l137.2-16.5L717.9-210.6z"/>
	<path d="M799.4-124.1l-0.2,0.4c23.1,11.1,42.7,29.7,54.7,54.5c20.2,41.7,13.5,89.6-13.3,123.8h31.4v-228.4l-149.9,18L799.4-124.1z"
		/>
</g>
<path d="M719.4-244.3c2.9,1.3,5.9,2.4,9,3.4l-8.8-3.6L719.4-244.3z"/>
<g>
	<path d="M988,381.1v-2.4v-1.3c0,0,1.3,0,2.1,0c1.5,0,2.5-0.6,2.5-2.2v-11.5h4.8v12.1c0,3.1-1.8,5.2-5.7,5.2
		C990,381.1,988,381.1,988,381.1z"/>
	<path d="M999.4,372.7v-0.6c0-6.1,4-8.6,8.4-8.6c4.6,0,8.2,2.5,8.2,8.5v0.6c0,6.1-4,8.6-8.4,8.6
		C1003.1,381.2,999.4,378.7,999.4,372.7z M1011,372.9V372c0-3.6-1-5-3.3-5c-2.1,0-3.2,1.6-3.2,4.8v0.9c0,3.7,1.1,5.1,3.3,5.1
		C1009.9,377.7,1011,376.2,1011,372.9z"/>
	<path d="M1052.4,363.8h11.9v3.5h-7.1v3.3h7.1v3.4h-7.1v3.6h7.1v3.5h-11.9V363.8z"/>
	<path d="M1082.7,363.8h11.9v3.5h-7.1v3.3h7.1v3.4h-7.1v3.6h7.1v3.5h-11.9V363.8z"/>
	<path d="M1071,374.2l-5.4-10.5h5.1l3.1,6.3h0.1l3-6.3h4.4l-5.4,10.5v6.7h-4.8L1071,374.2L1071,374.2z"/>
	<g>
		<path d="M1046,372.6L1046,372.6h-2.7v2.5h2.4c-0.4,1.8-1.4,2.6-3,2.6c-2.2,0-3.3-1.4-3.3-5.1v-0.9c0-3.2,1.1-4.8,3.2-4.8
			c1.8,0,2.8,0.9,3.1,3.1h5.1c-0.7-4.6-4-6.6-8.1-6.6c-4.4,0-8.4,2.5-8.4,8.6v0.6c0,6,3.6,8.5,8.2,8.5c4.4,0,8.4-2.5,8.4-8.6
			L1046,372.6L1046,372.6z"/>
	</g>
	<polygon points="1033,380 1033,363.8 1028.9,363.8 1028.9,373.4 1028.9,373.4 1023.3,363.8 1023.3,363.8 1018.1,354.9 
		1018.1,363.8 1018.1,381 1022.2,381 1022.2,370.2 1022.3,370.2 1022.5,370.6 1022.3,370.4 1033,388.9 1033,380 	"/>
</g>
<path class="st8" d="M1066.4,113.9c-4.6-6.5-8.4-10.4-12.7-14.9c-1.5-1.6-3.1-3.3-4.9-5.2c-4-4.9-10.6-7.4-17.1-5.9
	c-4.4,1.1-8.1,3.8-10.5,7.6c-2.4,3.9-3.1,8.4-2.1,12.8s3.8,8.1,7.6,10.5c0.1,0.1,0.2,0.1,0.3,0.2l6.4,4.5l-27.4-2.7l16.2,11.3
	c-0.6,0.1-1.1,0.2-1.7,0.3c-10.5,2.5-16.9,13-14.4,23.4c0.3,1.2,0.7,2.3,1.1,3.4l-5.1,4.4l3.5,4c0,0,2.1-1.8,4.5-3.9
	c1.3,1.6,2.9,3,4.8,4.1c3.1,1.9,6.6,2.9,10.2,2.9c0.3,0,0.5,0,0.8,0c3.4,3.7,6.7,7.6,9.6,11.6c7.1,10,8.6,17,4.4,20.8
	c-1.1,1-1.2,2.7-0.2,3.8c0.5,0.6,1.2,0.9,2,0.9c0.6,0,1.3-0.2,1.8-0.7c6.5-5.9,5.3-15.3-3.6-27.8c-2.4-3.4-5.1-6.6-7.9-9.8
	c9.1-3.4,14.4-13.1,12.2-22.7c-1.1-4.4-3.6-8.2-6.9-10.8l0-0.1l-11.4-7.9l27.4,2.7l-14.1-9.8c0.1,0,0.3-0.1,0.4-0.1
	c7.4-1.8,12.6-8.2,13-15.5c3.2,3.4,6,6.6,9.5,11.5c7.1,10,8.6,17,4.4,20.8c-1.1,1-1.2,2.7-0.2,3.8c0.5,0.6,1.2,0.9,2,0.9
	c0.6,0,1.3-0.2,1.8-0.7C1076.5,135.8,1075.3,126.4,1066.4,113.9z M1014.2,160.4c0.4-0.3,0.7-0.6,1-0.9c1.6,1.7,3.2,3.4,4.8,5.1
	c-0.8-0.3-1.5-0.7-2.3-1.1C1016.3,162.6,1015.2,161.6,1014.2,160.4z M1028.4,165.2c-0.2,0-0.3,0.1-0.5,0.1c-1.3-1.4-2.7-2.8-4-4.2
	c-2.2-2.3-4.5-4.7-6.6-7.1l-0.8-0.9h-1.2c-1,0-1,0-3.5,2.2l-0.3,0.2c-0.1-0.3-0.2-0.6-0.2-0.9c-1.8-7.6,2.9-15.2,10.5-17.1
	c1.1-0.3,2.2-0.4,3.3-0.4c6.4,0,12.2,4.4,13.8,10.9C1040.7,155.7,1036,163.4,1028.4,165.2z M1038.3,115.8c-3,0.7-5.9,0.2-8.4-1.2
	l-1.3-0.9l0,0c-2.1-1.6-3.7-3.8-4.3-6.6c-0.7-3-0.2-6.2,1.4-8.8c1.6-2.7,4.2-4.5,7.2-5.2c0.9-0.2,1.8-0.3,2.7-0.3
	c2.1,0,4.2,0.6,6.1,1.7c0.7,0.4,1.3,0.9,1.9,1.5c0,0,0,0.1,0.1,0.1c0.4,0.4,0.8,0.8,1.1,1.2c1,1.3,1.7,2.8,2.1,4.4
	C1048.4,108,1044.6,114.3,1038.3,115.8z"/>
<rect x="1002.2" y="427.6" class="st7" width="68.9" height="26.1"/>
<text transform="matrix(1 0 0 1 1002.2019 445.237)" style="font-family:'AppleSDGothicNeo-Heavy-KSCpc-EUC-H'; font-size:22px;">김 종 민 </text>
<rect x="1004.2" y="451.4" class="st7" width="66.9" height="26.1"/>
<text transform="matrix(1 0 0 1 1004.2019 459.3869)" style="font-family:'AppleSDGothicNeo-Heavy-KSCpc-EUC-H'; font-size:10px; letter-spacing:10;">디자이</text>
<text transform="matrix(1 0 0 1 1062.4819 459.3869)" style="font-family:'AppleSDGothicNeo-Heavy-KSCpc-EUC-H'; font-size:10px;">너 </text>
<rect x="984" y="473.8" class="st7" width="110.5" height="28.8"/>
<text transform="matrix(1 0 0 1 984.7282 481.8036)" style="font-family:'AppleSDGothicNeo-Regular-KSCpc-EUC-H'; font-size:10px;">jongkmin1991@naver.com</text>
<text transform="matrix(1 0 0 1 984.7282 481.8036)" style="fill:none;stroke:#000000;stroke-width:0.25;stroke-miterlimit:10; font-family:'AppleSDGothicNeo-Regular-KSCpc-EUC-H'; font-size:10px;">jongkmin1991@naver.com</text>
<text transform="matrix(1 0 0 1 1004.8882 493.8036)" style="font-family:'AppleSDGothicNeo-Regular-KSCpc-EUC-H'; font-size:10px;">010-9300-####</text>
<text transform="matrix(1 0 0 1 1004.8882 493.8036)" style="fill:none;stroke:#000000;stroke-width:0.25;stroke-miterlimit:10; font-family:'AppleSDGothicNeo-Regular-KSCpc-EUC-H'; font-size:10px;">010-9300-####</text>
<ellipse transform="matrix(0.7071 -0.7071 0.7071 0.7071 2.3749 857.8136)" class="st9" cx="1036.7" cy="426" rx="108.2" ry="108.2"/>
<g>
	<path class="st7" d="M129.2,52.6c-0.8-0.8-1.5-1.6-2.3-2.5c-0.1,0-0.1-0.1-0.1-0.2c-1.2-1.1-2.5-2.2-3.9-3
		c-3.8-2.3-8.1-3.5-12.4-3.5c-1.9,0-3.7,0.2-5.6,0.7c-6.2,1.5-11.4,5.3-14.8,10.7c-3.3,5.4-4.4,11.8-2.9,18
		c1.3,5.6,4.5,10.2,8.8,13.5l0-0.1l2.7,1.8c5,2.8,11.1,3.9,17.2,2.4c12.8-3,20.7-15.9,17.7-28.7C132.7,58.4,131.2,55.3,129.2,52.6z"
		/>
	<path class="st7" d="M60.7,169.9c0.1,0.6,0.3,1.2,0.5,1.9l0.5-0.5c5.2-4.5,5.2-4.5,7.2-4.5h2.4l1.6,1.8c4.4,4.8,9,9.7,13.5,14.4
		c2.7,2.8,5.4,5.7,8.1,8.6c0.3-0.1,0.6-0.1,1-0.2c15.5-3.7,25.2-19.3,21.5-34.9c-3.2-13.3-15.1-22.3-28.2-22.3
		c-2.2,0-4.5,0.3-6.7,0.8C66.7,138.8,57,154.4,60.7,169.9z"/>
	<path class="st7" d="M66.5,181.6c2,2.5,4.4,4.6,7.2,6.3c1.5,0.9,3.1,1.7,4.7,2.3c-3.2-3.4-6.5-6.9-9.8-10.4
		C67.9,180.4,67.2,181,66.5,181.6z"/>
	<path class="st10" d="M83.1,123.9c-1.1,0.2-2.3,0.4-3.4,0.6c-21.4,5.1-34.6,26.6-29.5,47.9c0.6,2.4,1.4,4.7,2.3,6.9L42,188.5
		l7.1,8.2c0,0,4.3-3.7,9.2-8c2.7,3.3,6,6.1,9.7,8.4c6.4,3.9,13.5,5.9,20.8,5.9c0.5,0,1,0,1.6,0c7,7.6,13.8,15.5,19.7,23.8
		c14.5,20.4,17.5,34.8,9,42.6c-2.2,2-2.4,5.5-0.4,7.7c1.1,1.2,2.5,1.8,4,1.8c1.3,0,2.6-0.5,3.7-1.4c13.3-12.1,10.8-31.2-7.4-56.9
		c-5-7-10.4-13.6-16.1-20c18.5-6.9,29.5-26.8,24.8-46.5c-2.2-9.1-7.3-16.7-14.1-22l0,0l-6.3-4.6C97.8,122.2,83.1,123.9,83.1,123.9z
		 M73.7,187.9c-2.8-1.7-5.2-3.8-7.2-6.3c0.7-0.6,1.4-1.2,2.1-1.8c3.3,3.5,6.6,7,9.8,10.4C76.8,189.6,75.2,188.8,73.7,187.9z
		 M117.1,156.6c3.7,15.5-5.9,31.2-21.5,34.9c-0.3,0.1-0.6,0.1-1,0.2c-2.7-2.9-5.4-5.8-8.1-8.6c-4.5-4.7-9.1-9.6-13.5-14.4l-1.6-1.8
		H69c-2,0-2,0-7.2,4.5l-0.5,0.5c-0.2-0.6-0.4-1.2-0.5-1.9c-3.7-15.5,6-31.2,21.5-34.9c2.2-0.5,4.5-0.8,6.7-0.8
		C102,134.3,113.9,143.3,117.1,156.6z"/>
	<path class="st10" d="M173.3,86.6c-9.5-13.4-17.1-21.3-25.9-30.5c-3.1-3.3-6.4-6.7-10-10.6c-8.1-10.1-21.6-15.2-35-12
		c-9,2.1-16.7,7.7-21.5,15.5s-6.4,17.2-4.2,26.2c2.1,9,7.7,16.6,15.6,21.5c0.2,0.1,0.4,0.2,0.7,0.4c11.7,6.3,24.8,4,24.8,4
		c0.3-0.1,0.5-0.1,0.8-0.2c15.2-3.6,25.7-16.8,26.6-31.7c6.5,6.9,12.4,13.6,19.5,23.5c14.5,20.5,17.5,34.8,9,42.6
		c-2.2,2-2.4,5.5-0.4,7.7c1.1,1.2,2.5,1.8,4,1.8c1.3,0,2.6-0.5,3.7-1.4C194,131.4,191.5,112.2,173.3,86.6z M115.8,90.4
		c-6.1,1.4-12.1,0.4-17.2-2.4L96,86.1l0,0.1c-4.3-3.2-7.5-7.9-8.8-13.5c-1.5-6.2-0.4-12.6,2.9-18c3.3-5.4,8.6-9.2,14.8-10.7
		c1.8-0.4,3.7-0.7,5.6-0.7c4.4,0,8.6,1.2,12.4,3.5c1.4,0.9,2.8,1.9,3.9,3c0,0,0.1,0.1,0.1,0.2c0.8,0.9,1.5,1.7,2.3,2.5
		c2,2.7,3.5,5.7,4.3,9.1C136.6,74.5,128.6,87.4,115.8,90.4z"/>
	<path class="st11" d="M92.8,97.1l13.2,9.2l-56.1-5.6l33.2,23.1c0,0,14.7-1.7,24.1,3.5l-16.9-11.7l56.1,5.6l-28.9-20.1
		C117.6,101.1,104.5,103.5,92.8,97.1z"/>
</g>
<linearGradient id="SVGID_00000060709385344009063790000009237370926718355357_" gradientUnits="userSpaceOnUse" x1="111.6193" y1="137.0308" x2="57.9696" y2="99.8419">
	<stop  offset="0.144" style="stop-color:#FFFFFF"/>
	<stop  offset="0.4098" style="stop-color:#FE330A"/>
</linearGradient>
<polygon style="fill:url(#SVGID_00000060709385344009063790000009237370926718355357_);" points="49.9,100.8 107.2,140.9 
	114.6,132.7 83.5,110.6 "/>
<linearGradient id="SVGID_00000170280447312616299830000003665320869056061087_" gradientUnits="userSpaceOnUse" x1="94.1914" y1="91.9596" x2="128.551" y2="113.7062">
	<stop  offset="0" style="stop-color:#FFFFFF"/>
	<stop  offset="0.4609" style="stop-color:#FE330A"/>
</linearGradient>
<polygon style="fill:url(#SVGID_00000170280447312616299830000003665320869056061087_);" points="146.5,121.2 96,86.2 90.1,95.6 
	106,106.3 131.6,117.5 "/>
</svg>
