<?xml version="1.0" encoding="utf-8"?>
<!-- Generator: Adobe Illustrator 27.9.0, SVG Export Plug-In . SVG Version: 6.00 Build 0)  -->
<svg version="1.1" id="레이어_1" xmlns="http://www.w3.org/2000/svg" xmlns:xlink="http://www.w3.org/1999/xlink" x="0px"
	 y="0px" viewBox="0 0 33.7 33.7" style="enable-background:new 0 0 33.7 33.7;" xml:space="preserve">
<style type="text/css">
	.st0{fill:#FFFFFF;}
</style>
<path class="st0" d="M24.6,30.8C24.5,30.9,24.5,30.9,24.6,30.8C24.6,30.8,24.7,30.8,24.6,30.8C24.7,30.8,24.7,30.8,24.6,30.8z
	 M24.8,30.7C24.8,30.8,24.8,30.8,24.8,30.7C24.9,30.7,24.9,30.7,24.8,30.7C24.9,30.6,24.9,30.7,24.8,30.7z M25,30.6
	C24.9,30.7,24.9,30.7,25,30.6C25,30.6,25.1,30.6,25,30.6C25.1,30.6,25,30.6,25,30.6z M25.1,30.5C25.1,30.6,25.1,30.6,25.1,30.5
	C25.2,30.5,25.2,30.5,25.1,30.5C25.2,30.5,25.2,30.5,25.1,30.5z M25.3,30.4C25.2,30.5,25.2,30.5,25.3,30.4c0,0,0.1-0.1,0.1-0.1
	C25.4,30.3,25.4,30.4,25.3,30.4L25.3,30.4z M15.8,0.8c-0.1,0-0.3,0-0.5,0C10.8,1.3,6.5,3.7,3.8,7.5C2.3,9.6,1.3,12,1,14.5
	c-0.1,0.9-0.1,1.1-0.1,2.3c0,1.2,0,1.4,0.1,2.3c0.9,6,5.1,11.1,10.9,12.9c1,0.3,2.1,0.6,3.4,0.7c0.5,0.1,2.6,0.1,3.1,0
	c2.2-0.2,4-0.8,5.8-1.7c0.3-0.1,0.3-0.2,0.3-0.2c-0.9-1.2-1.7-2.3-2.6-3.5L19.3,24l-3.2-4.7c-1.1-1.6-2.1-3.2-3.2-4.7
	c0,0,0,2.1,0,4.7c0,4.5,0,4.7-0.1,4.8c-0.1,0.1-0.2,0.2-0.3,0.3c-0.1,0-0.2,0.1-0.7,0.1h-0.5l-0.1-0.1c-0.1-0.1-0.2-0.1-0.2-0.2
	l-0.1-0.1l0-6.3l0-6.3l0.1-0.1c0.1-0.1,0.1-0.1,0.2-0.2c0.1-0.1,0.2-0.1,0.7-0.1c0.6,0,0.7,0,0.9,0.2c1.3,1.9,2.6,3.9,3.9,5.8
	c2.1,3.2,4.9,7.5,6.3,9.6l2.5,3.8l0.1-0.1c1.2-0.8,2.3-1.8,3.3-2.9c2-2.3,3.3-5.1,3.8-8.2c0.1-0.9,0.1-1.1,0.1-2.3
	c0-1.2,0-1.4-0.1-2.3c-0.9-6-5.1-11.1-10.9-12.9c-1.1-0.3-2.2-0.6-3.3-0.7C18.1,0.9,16,0.8,15.8,0.8L15.8,0.8z M22.3,10.5
	c0.2,0.1,0.3,0.2,0.3,0.4c0,0.1,0,1.8,0,5.7l0,5.6l-1-1.5l-1-1.5v-4.1c0-2.6,0-4.1,0-4.2c0-0.2,0.2-0.3,0.3-0.4
	c0.1-0.1,0.2-0.1,0.7-0.1C22.1,10.5,22.2,10.5,22.3,10.5L22.3,10.5z"/>
</svg>
