<?xml version="1.0" encoding="utf-8"?>
<!-- Generator: Adobe Illustrator 27.9.0, SVG Export Plug-In . SVG Version: 6.00 Build 0)  -->
<svg version="1.1" id="레이어_1" xmlns="http://www.w3.org/2000/svg" xmlns:xlink="http://www.w3.org/1999/xlink" x="0px"
	 y="0px" viewBox="0 0 24 24" style="enable-background:new 0 0 24 24;" xml:space="preserve">
<style type="text/css">
	.st0{fill:#FFFFFF;}
</style>
<g>
	<path class="st0" d="M10.1,17.8l2.2-0.2c2.2-2.8,3.7-4.9,4.4-6.2c0.8-1.4,1.2-2.6,1.2-3.5c0-0.6-0.2-1-0.5-1.3
		c-0.3-0.3-0.7-0.4-1.2-0.4c-0.9,0-1.6,0.4-2.2,1.1c0.6,0.4,1,0.7,1.2,1c0.2,0.2,0.3,0.6,0.3,1c0,0.7-0.2,1.4-0.6,2.3
		c-0.4,0.9-0.8,1.6-1.3,2.3c-0.3,0.4-0.7,0.9-1.1,1.6L11,7.2c-0.1-0.6-0.5-0.9-1.1-0.9C9.6,6.2,9,6.4,8.2,6.6C7.4,6.8,6.7,7,6.1,7.2
		v0.9h2.2L10.1,17.8z"/>
</g>
</svg>
