<?xml version="1.0" encoding="utf-8"?>
<!-- Generator: Adobe Illustrator 27.9.0, SVG Export Plug-In . SVG Version: 6.00 Build 0)  -->
<svg version="1.1" id="레이어_1" xmlns="http://www.w3.org/2000/svg" xmlns:xlink="http://www.w3.org/1999/xlink" x="0px"
	 y="0px" viewBox="0 0 325.21 95.18" style="enable-background:new 0 0 325.21 95.18;" xml:space="preserve">
<style type="text/css">
	.st0{fill:#221E1F;}
	.st1{fill:#E6E6E6;}
	.st2{fill:url(#SVGID_1_);}
	.st3{fill:url(#SVGID_00000106833145190073783390000016480730976609751717_);}
</style>
<g>
	<g>
		<g>
			<path class="st0" d="M127.15,68.87h-5.32l-5.8-9.7c-1.16-1.94-2.22-3.26-3.18-3.96c-0.96-0.7-2.11-1.05-3.45-1.05h-3.25v14.71
				h-4.51V33.93h10.65c3.4,0,6.06,0.82,7.99,2.46c1.92,1.64,2.89,3.93,2.89,6.88c0,4.84-2.59,7.99-7.76,9.43v0.11
				c0.96,0.41,1.79,0.99,2.49,1.74c0.7,0.75,1.61,2.04,2.72,3.86L127.15,68.87z M106.14,37.87v12.34h5.32c2.06,0,3.73-0.6,5.02-1.8
				c1.29-1.2,1.93-2.78,1.93-4.74c0-1.82-0.59-3.24-1.76-4.26c-1.17-1.02-2.88-1.53-5.12-1.53H106.14z"/>
			<path class="st0" d="M129.77,35.12c0-0.78,0.27-1.44,0.8-1.97c0.53-0.53,1.19-0.8,1.97-0.8c0.8,0,1.47,0.26,2.02,0.79
				c0.55,0.53,0.82,1.19,0.82,1.99c0,0.78-0.27,1.43-0.82,1.95c-0.55,0.52-1.22,0.78-2.02,0.78c-0.8,0-1.46-0.26-1.99-0.78
				C130.03,36.55,129.77,35.9,129.77,35.12z M130.28,68.87V43.92h4.42v24.95H130.28z"/>
			<path class="st0" d="M140.28,63.48c2.23,1.61,4.62,2.41,7.2,2.41c3.44,0,5.17-1.13,5.17-3.38c0-0.96-0.38-1.76-1.13-2.38
				c-0.75-0.62-2.28-1.37-4.58-2.22c-2.77-1.11-4.56-2.21-5.39-3.31c-0.83-1.09-1.24-2.41-1.24-3.96c0-2.21,0.94-3.98,2.81-5.31
				c1.87-1.33,4.18-2,6.91-2c2.12,0,4.09,0.37,5.91,1.11v4.26c-1.87-1.2-3.98-1.8-6.34-1.8c-1.41,0-2.56,0.31-3.45,0.92
				c-0.89,0.62-1.33,1.43-1.33,2.44c0,0.99,0.32,1.77,0.96,2.32c0.64,0.56,2.06,1.27,4.25,2.14c2.78,1.04,4.66,2.11,5.64,3.23
				c0.98,1.11,1.47,2.49,1.47,4.13c0,2.29-0.94,4.09-2.81,5.4c-1.87,1.32-4.3,1.97-7.28,1.97c-2.59,0-4.84-0.49-6.77-1.47V63.48z"/>
			<path class="st0" d="M161.6,35.12c0-0.78,0.27-1.44,0.8-1.97c0.53-0.53,1.19-0.8,1.97-0.8c0.8,0,1.47,0.26,2.02,0.79
				c0.55,0.53,0.82,1.19,0.82,1.99c0,0.78-0.27,1.43-0.82,1.95c-0.55,0.52-1.22,0.78-2.02,0.78c-0.8,0-1.46-0.26-1.99-0.78
				C161.86,36.55,161.6,35.9,161.6,35.12z M162.12,68.87V43.92h4.42v24.95H162.12z"/>
			<path class="st0" d="M194.61,68.87h-4.4V54.68c0-5.13-1.87-7.69-5.62-7.69c-1.94,0-3.53,0.72-4.78,2.17
				c-1.25,1.44-1.87,3.27-1.87,5.48v14.24h-4.42V43.92h4.42v4.13h0.09c1.88-3.14,4.61-4.72,8.19-4.72c2.74,0,4.82,0.88,6.25,2.63
				c1.43,1.75,2.14,4.31,2.14,7.66V68.87z"/>
			<path class="st0" d="M222.72,66.77c0,9.23-4.48,13.85-13.45,13.85c-3.1,0-5.79-0.58-8.08-1.74v-4.26
				c2.78,1.55,5.45,2.32,8.01,2.32c6.06,0,9.09-3.19,9.09-9.57v-2.64h-0.09c-1.9,3.14-4.72,4.72-8.48,4.72
				c-3.13,0-5.63-1.12-7.51-3.36c-1.88-2.24-2.82-5.21-2.82-8.91c0-4.26,1.04-7.63,3.11-10.12c2.08-2.49,4.84-3.73,8.3-3.73
				c3.32,0,5.79,1.32,7.4,3.97h0.09v-3.38h4.42V66.77z M218.3,54.03c0.01-1.92-0.63-3.58-1.94-4.96c-1.31-1.38-2.92-2.08-4.83-2.08
				c-2.41,0-4.28,0.88-5.62,2.65c-1.34,1.77-2.01,4.19-2.01,7.28c0,2.65,0.65,4.79,1.94,6.43c1.29,1.64,3.01,2.46,5.14,2.46
				c2.15,0,3.91-0.78,5.28-2.35c1.37-1.56,2.05-3.55,2.03-5.96V54.03z"/>
			<path class="st0" d="M251.37,37.94h-10.08v30.93h-4.53V37.94h-10.04v-4.02h24.66V37.94z"/>
			<path class="st0" d="M270.43,57.52h-17.46c0.07,2.66,0.8,4.72,2.19,6.17c1.38,1.45,3.32,2.18,5.8,2.18c2.8,0,5.36-0.89,7.69-2.68
				v3.95c-2.2,1.55-5.11,2.32-8.73,2.32c-3.61,0-6.42-1.14-8.45-3.43c-2.02-2.29-3.03-5.46-3.03-9.52c0-3.82,1.11-6.97,3.33-9.45
				c2.22-2.48,4.98-3.72,8.27-3.72c3.26,0,5.81,1.05,7.65,3.15c1.84,2.1,2.75,5.04,2.75,8.81V57.52z M266.01,53.98
				c-0.01-2.26-0.55-4-1.6-5.23c-1.05-1.23-2.54-1.85-4.45-1.85c-1.76,0-3.28,0.65-4.57,1.96c-1.28,1.31-2.09,3.02-2.42,5.12H266.01
				z"/>
			<path class="st0" d="M292.63,67.74c-1.91,1.14-4.21,1.71-6.9,1.71c-3.61,0-6.51-1.16-8.71-3.47c-2.2-2.32-3.29-5.32-3.29-9
				c0-4.09,1.18-7.39,3.55-9.89c2.37-2.51,5.54-3.76,9.51-3.76c2.29,0,4.24,0.41,5.87,1.22v4.38c-1.76-1.29-3.72-1.94-5.87-1.94
				c-2.53,0-4.58,0.88-6.17,2.63c-1.59,1.75-2.38,4.09-2.38,7c0,2.87,0.75,5.12,2.25,6.75c1.5,1.62,3.51,2.44,6.06,2.44
				c2.15,0,4.18-0.71,6.09-2.12V67.74z"/>
			<path class="st0" d="M318.71,68.87h-4.4V54.52c0-5.02-1.87-7.54-5.59-7.54c-1.91,0-3.5,0.73-4.76,2.2
				c-1.26,1.47-1.9,3.31-1.9,5.54v14.15h-4.42V31.94h4.42v16.09h0.09c1.91-3.13,4.62-4.69,8.14-4.69c5.61,0,8.41,3.39,8.41,10.17
				V68.87z"/>
		</g>
	</g>
	<g>
		<g>
			<path class="st1" d="M22.38,84.47c26.89-21.17,50.54-6.64,50.54-6.64L59.1,64.01C38.13,60.22,22.38,84.47,22.38,84.47z"/>
			<path class="st1" d="M72.92,25.28c-0.45-0.45-0.91-0.88-1.37-1.3c-14.59-13.2-37.12-12.76-51.19,1.3
				C6.09,39.55,5.86,62.55,19.66,77.11c0.08,0.08,0.65,0.62,1.24-0.01h0c2.59-3.22,7.07-8.13,12.86-11.93l0,0
				c0.96-0.68,0.13-1.45,0.13-1.45h0.01c-6.59-6.9-6.49-17.83,0.29-24.61c6.88-6.88,18.03-6.88,24.91,0
				c6.88,6.88,6.88,18.03,0,24.91l13.82,13.82C87.43,63.32,87.43,39.79,72.92,25.28z"/>
		</g>
		<g>
			<linearGradient id="SVGID_1_" gradientUnits="userSpaceOnUse" x1="30.4765" y1="81.5546" x2="65.6724" y2="67.6308">
				<stop  offset="0" style="stop-color:#FAAF3F"/>
				<stop  offset="1" style="stop-color:#EC1B23"/>
			</linearGradient>
			<path class="st2" d="M21.42,83.51c26.89-21.17,50.54-6.64,50.54-6.64L58.14,63.05C37.17,59.26,21.42,83.51,21.42,83.51z"/>
			
				<linearGradient id="SVGID_00000124138891460745074730000010010568681726866863_" gradientUnits="userSpaceOnUse" x1="45.6861" y1="14.7525" x2="45.6861" y2="61.1664">
				<stop  offset="0" style="stop-color:#FAAF3F"/>
				<stop  offset="1" style="stop-color:#EC1B23"/>
			</linearGradient>
			<path style="fill:url(#SVGID_00000124138891460745074730000010010568681726866863_);" d="M71.96,24.32
				c-0.45-0.45-0.9-0.88-1.36-1.3c-14.59-13.2-37.12-12.77-51.19,1.3C5.14,38.59,4.9,61.59,18.7,76.15
				c0.08,0.08,0.65,0.62,1.23-0.01h0c2.59-3.22,7.07-8.13,12.87-11.93l0-0.01c0.96-0.68,0.13-1.45,0.13-1.45h0.01
				c-6.59-6.9-6.49-17.83,0.29-24.61c6.88-6.88,18.03-6.88,24.91,0c6.88,6.88,6.88,18.03,0,24.91l13.82,13.82
				C86.47,62.36,86.47,38.83,71.96,24.32z"/>
		</g>
	</g>
</g>
</svg>
